<?xml version="1.0" encoding="UTF-8" standalone="no"?>
<svg
   width="512"
   height="512"
   version="1.1"
   id="svg383"
   sodipodi:docname="screaming-hyrax.svg"
   xmlns:inkscape="http://www.inkscape.org/namespaces/inkscape"
   xmlns:sodipodi="http://sodipodi.sourceforge.net/DTD/sodipodi-0.dtd"
   xmlns="http://www.w3.org/2000/svg"
   xmlns:svg="http://www.w3.org/2000/svg">
  <sodipodi:namedview
     id="namedview385"
     pagecolor="#ffffff"
     bordercolor="#000000"
     borderopacity="0.25"
     inkscape:showpageshadow="2"
     inkscape:pageopacity="0.0"
     inkscape:pagecheckerboard="0"
     inkscape:deskcolor="#d1d1d1"
     showgrid="false" />
  <defs
     id="defs191">
    <linearGradient
       id="gradient_0"
       gradientUnits="userSpaceOnUse"
       x1="376.82617"
       y1="537.32971"
       x2="180.95314"
       y2="347.72049">
      <stop
         offset="0"
         stop-color="#794311"
         id="stop186" />
      <stop
         offset="1"
         stop-color="#051C34"
         id="stop188" />
    </linearGradient>
    <clipPath
       clipPathUnits="userSpaceOnUse"
       id="clipPath712">
      <circle
         style="fill:#ffffff;stroke:#ffffff;stroke-width:57.05"
         id="circle714"
         cx="256"
         cy="255.44797"
         r="215.39496" />
    </clipPath>
  </defs>
  <defs
     id="defs220">
    <linearGradient
       id="gradient_1"
       gradientUnits="userSpaceOnUse"
       x1="319.72903"
       y1="400.37631"
       x2="322.7832"
       y2="400.00223">
      <stop
         offset="0"
         stop-color="#55220F"
         id="stop215" />
      <stop
         offset="1"
         stop-color="#351419"
         id="stop217" />
    </linearGradient>
  </defs>
  <defs
     id="defs235">
    <linearGradient
       id="gradient_2"
       gradientUnits="userSpaceOnUse"
       x1="254.05612"
       y1="512.5495"
       x2="272.53928"
       y2="477.81442">
      <stop
         offset="0"
         stop-color="black"
         id="stop230" />
      <stop
         offset="1"
         stop-color="#272731"
         id="stop232" />
    </linearGradient>
  </defs>
  <defs
     id="defs248">
    <linearGradient
       id="gradient_3"
       gradientUnits="userSpaceOnUse"
       x1="170.23616"
       y1="369.89429"
       x2="257.45471"
       y2="416.07452">
      <stop
         offset="0"
         stop-color="#63200B"
         id="stop243" />
      <stop
         offset="1"
         stop-color="#D28F22"
         id="stop245" />
    </linearGradient>
  </defs>
  <defs
     id="defs257">
    <linearGradient
       id="gradient_4"
       gradientUnits="userSpaceOnUse"
       x1="246.66052"
       y1="399.61945"
       x2="209.20418"
       y2="382.94534">
      <stop
         offset="0"
         stop-color="#F3C35A"
         id="stop252" />
      <stop
         offset="1"
         stop-color="#F9E4A4"
         id="stop254" />
    </linearGradient>
  </defs>
  <defs
     id="defs284">
    <linearGradient
       id="gradient_5"
       gradientUnits="userSpaceOnUse"
       x1="414.896"
       y1="236.0081"
       x2="271.37997"
       y2="425.00089">
      <stop
         offset="0"
         stop-color="#E9A834"
         id="stop279" />
      <stop
         offset="1"
         stop-color="#F8CE66"
         id="stop281" />
    </linearGradient>
  </defs>
  <defs
     id="defs297">
    <linearGradient
       id="gradient_6"
       gradientUnits="userSpaceOnUse"
       x1="361.37405"
       y1="222.8277"
       x2="402.25629"
       y2="208.9015">
      <stop
         offset="0"
         stop-color="#82460A"
         id="stop292" />
      <stop
         offset="1"
         stop-color="#C78834"
         id="stop294" />
    </linearGradient>
  </defs>
  <defs
     id="defs308">
    <linearGradient
       id="gradient_7"
       gradientUnits="userSpaceOnUse"
       x1="365.1171"
       y1="243.67531"
       x2="468.85852"
       y2="231.38576">
      <stop
         offset="0"
         stop-color="#B8680A"
         id="stop303" />
      <stop
         offset="1"
         stop-color="#F5B73E"
         id="stop305" />
    </linearGradient>
  </defs>
  <defs
     id="defs317">
    <linearGradient
       id="gradient_8"
       gradientUnits="userSpaceOnUse"
       x1="410.95544"
       y1="237.38989"
       x2="438.97754"
       y2="321.21277">
      <stop
         offset="0"
         stop-color="black"
         id="stop312" />
      <stop
         offset="1"
         stop-color="#17283D"
         id="stop314" />
    </linearGradient>
  </defs>
  <defs
     id="defs352">
    <linearGradient
       id="gradient_9"
       gradientUnits="userSpaceOnUse"
       x1="400.72079"
       y1="103.86941"
       x2="369.0654"
       y2="390.95242">
      <stop
         offset="0"
         stop-color="#E66C00"
         id="stop347" />
      <stop
         offset="1"
         stop-color="#EA8800"
         id="stop349" />
    </linearGradient>
  </defs>
  <defs
     id="defs377">
    <linearGradient
       id="gradient_10"
       gradientUnits="userSpaceOnUse"
       x1="185.45087"
       y1="212.55681"
       x2="192.84511"
       y2="218.69151">
      <stop
         offset="0"
         stop-color="#2B3241"
         id="stop372" />
      <stop
         offset="1"
         stop-color="#3B3E64"
         id="stop374" />
    </linearGradient>
  </defs>
  <g
     id="g695"
     clip-path="url(#clipPath712)"
     transform="matrix(1.1883683,0,0,1.1883683,-48.253744,-47.597727)">
    <path
       transform="scale(0.666667)"
       d="M 0,173.47 V 0 H 123.92 642.231 768 V 173.669 768 H 0 Z"
       id="path132" />
    <path
       fill="#461b12"
       transform="scale(0.666667)"
       d="m 112.636,630.69 c 4.06,-1.908 7.512,-4.586 11.799,-6.186 6.633,-2.475 14.004,-2.633 20.883,-4.139 3.289,-0.721 6.627,-2.753 9.968,-2.753 7.076,0 14.947,2.435 21.9,3.82 l 15.564,2.554 14.941,2.324 0.402,0.04 -3.008,14.091 c -0.715,3.503 -1.407,7.355 -2.815,10.643 -2.43,5.674 -6.007,10.031 -10.234,14.409 -2.436,2.523 -4.806,5.283 -7.617,7.389 l -0.246,-11.327 c -1.518,2.514 -3.072,5.152 -5.014,7.362 -1.921,2.185 -4.285,4.026 -6.123,6.272 -1.348,1.648 -2.342,3.495 -3.507,5.266 -9.26,-5.707 -18.768,-12.337 -27.012,-19.416 -6.22,-5.341 -11.993,-11.246 -17.781,-17.047 -4.079,-4.089 -8.84,-8.533 -12.1,-13.302 z"
       id="path134" />
    <path
       fill="#985522"
       transform="scale(0.666667)"
       d="m 718.737,533.928 -8.086,17.094 c -10.446,20.5 -22.791,40.875 -37.824,58.341 -5.526,-5.247 -12.461,-10.043 -19.21,-13.561 l 28.028,-9.099 -13.02,-9.218 c -7.216,-4.907 -15.193,-9.493 -20.86,-16.246 -3.171,-3.778 -5.529,-8.355 -7.527,-12.837 l -8.902,-22.68 -0.169,-0.37 16.041,0.166 c 6.727,0.858 70.197,7.423 71.529,8.41 z"
       id="path136" />
    <path
       fill="#461b12"
       transform="scale(0.666667)"
       d="m 626.209,481.292 c 5.648,2.955 11.103,3.484 17.379,4.092 5.528,0.535 10.811,0.903 16.37,0.777 4.795,-0.108 9.905,-0.604 14.667,-0.114 1.969,0.202 3.761,2.251 5.541,1.694 2.519,-0.788 4.712,-2.007 7.082,-3.138 0.52,-0.248 1.783,-1.056 2.31,-1.102 2.852,-0.248 6.366,1.791 9.442,1.673 4.843,-0.187 9.308,-2.881 14.098,-3.176 3.444,-0.213 7.13,1.3 10.602,1.537 5.119,0.35 10.29,-0.418 15.438,-0.182 -3.299,12.4 -8.519,24.53 -13.673,36.264 -2.088,4.755 -4.01,9.728 -6.583,14.246 l -0.145,0.065 c -1.332,-0.987 -64.802,-7.552 -71.529,-8.41 0.582,-0.13 1.007,-0.12 1.463,-0.518 -1.132,-0.555 -2.358,-0.834 -3.477,-1.425 -4.136,-2.186 -7.686,-5.119 -10.508,-8.837 4.338,-2.132 8.595,-4.592 12.576,-7.338 3.23,-2.228 6.286,-4.754 9.653,-6.773 l 0.349,-0.206 c -7.474,0.223 -14.715,0.45 -22.202,0.054 -1.474,-0.078 -4.514,0.152 -5.59,-0.787 0.188,-0.507 0.207,-0.641 0.546,-1.126 0.904,-1.292 3.47,-1.866 4.904,-2.117 0.591,-0.103 0.922,-0.069 1.4,-0.436 -2.73,-3.321 -5.481,-6.632 -7.861,-10.219 -0.958,-1.443 -1.989,-2.753 -2.252,-4.498 z"
       id="path138" />
    <path
       fill="#461b12"
       transform="scale(0.666667)"
       d="m 444.034,619.708 0.394,0.17 c 0.696,0.229 0.935,0.176 1.418,0.749 2.665,3.158 0.814,14.408 0.289,18.304 l 78.398,-84.506 0.279,-0.288 -1.704,30.683 23.533,18.568 c -7.57,6.204 -14.431,13.196 -21.374,20.079 l -27.204,26.856 -17.429,16.507 -14.385,14.584 -37.876,38.448 c -5.522,6.085 -11.928,12.149 -16.532,18.962 l -2.938,4.713 c -7.104,0.308 -15.257,1.161 -22.324,0.145 l 3.233,-0.185 c 1.388,-2.728 2.692,-5.376 4.321,-7.981 2.997,-4.792 6.287,-9.146 8.625,-14.334 6.016,-13.35 7.587,-28.034 11.024,-42.123 1.919,-7.866 4.806,-15.58 6.233,-23.535 l 0.764,0.196 c 1.554,1.656 1.689,3.902 2.045,6.108 0.701,4.35 1.127,8.568 1.42,12.965 0.971,-2.249 1.221,-5.314 1.971,-7.743 l 5.266,-14.615 z"
       id="path140" />
    <path
       fill="#985522"
       transform="scale(0.666667)"
       d="m 76.229,585.046 125.426,-59.69 0.447,-3.177 c -0.006,2.235 -0.266,4.723 0.268,6.888 0.323,1.314 2.222,4.384 2.17,5.415 0.082,2.116 1.403,4.125 2.159,6.079 3.167,8.185 7.655,16.091 13.558,22.63 2.514,2.786 5.685,5.36 7.841,8.401 l -0.204,1.704 c -3.31,4.786 -4.732,10.604 -6.611,16.057 l -7.825,22.064 -5.365,14.933 -0.402,-0.04 -14.941,-2.324 -15.564,-2.554 c -6.953,-1.385 -14.824,-3.82 -21.9,-3.82 -3.341,0 -6.679,2.032 -9.968,2.753 -6.879,1.506 -14.25,1.664 -20.883,4.139 -4.287,1.6 -7.739,4.278 -11.799,6.186 l -9.734,-10.751 c -2.612,-2.902 -5.344,-5.72 -7.5214,-8.973 z"
       id="path142" />
    <path
       fill="#603019"
       transform="scale(0.666667)"
       d="m 95.3806,610.966 118.0774,0.451 -5.365,14.933 -0.402,-0.04 -14.941,-2.324 -15.564,-2.554 c -6.953,-1.385 -14.824,-3.82 -21.9,-3.82 -3.341,0 -6.679,2.032 -9.968,2.753 -6.879,1.506 -14.25,1.664 -20.883,4.139 -4.287,1.6 -7.739,4.278 -11.799,6.186 l -9.734,-10.751 c -2.612,-2.902 -5.344,-5.72 -7.5214,-8.973 z"
       id="path144" />
    <path
       fill="#461b12"
       transform="scale(0.666667)"
       d="m 28.3384,480.226 18.0533,-3.073 7.7417,-1.739 c 1.6636,-0.426 3.5684,-1.137 5.2918,-0.962 3.8469,0.39 8.3244,3.073 11.3101,5.411 3.2458,2.541 6.2591,5.092 9.8031,7.23 1.442,-1.082 3.7523,-3.407 5.3053,-4.013 0.686,-0.268 1.8948,-0.017 2.6449,0.041 l 8.2614,0.613 c 5.976,0.196 12.702,-1.074 18.536,-0.165 2.82,0.439 6.627,2.232 9.235,3.468 1.983,0.941 6.59,-0.681 8.495,-1.421 2.782,-1.08 5.496,-2.811 8.357,-3.588 5.447,-1.481 28.083,-3.568 32.89,-1.576 2.667,1.105 4.697,3.405 7.425,4.367 3.557,1.255 8.97,0.002 12.785,0.112 l 15.231,0.84 c -2.209,3.169 -4.93,6.785 -5.541,10.695 -0.368,2.353 0.072,5.176 0.497,7.534 0.402,2.23 1.108,4.596 1.095,6.872 -0.944,0.86 -2.329,1.943 -2.928,3.09 -0.718,1.376 -0.643,5.506 -0.707,7.149 l -0.018,1.068 -0.447,3.177 -125.426,59.69 C 73.1068,581.95 70.6108,576.858 68.3599,573.083 55.1552,550.94 44.686,527.565 35.8574,503.366 c -2.738,-7.505 -5.7618,-15.345 -7.519,-23.14 z"
       id="path146" />
    <path
       fill="#ad5a04"
       transform="scale(0.666667)"
       d="m 756.423,360.24 c 0.649,4.817 0.578,9.874 0.681,14.741 0.291,13.714 -0.194,27.954 -2.316,41.528 l -15.65,66.844 c -5.148,-0.236 -10.319,0.532 -15.438,0.182 -3.472,-0.237 -7.158,-1.75 -10.602,-1.537 -4.79,0.295 -9.255,2.989 -14.098,3.176 -3.076,0.118 -6.59,-1.921 -9.442,-1.673 -0.527,0.046 -1.79,0.854 -2.31,1.102 -2.37,1.131 -4.563,2.35 -7.082,3.138 -1.78,0.557 -3.572,-1.492 -5.541,-1.694 -4.762,-0.49 -9.872,0.006 -14.667,0.114 -5.559,0.126 -10.842,-0.242 -16.37,-0.777 -6.276,-0.608 -11.731,-1.137 -17.379,-4.092 l -0.65,-0.63 c -6.587,-6.761 -11.669,-18.393 -12.902,-27.697 -0.874,-6.594 -0.609,-13.407 -0.591,-20.051 l -0.779,-17.786 c -0.027,-0.953 -0.359,-3.235 -0.103,-4.047 0.251,-0.794 2.344,-2.722 2.957,-3.46 1.963,-2.369 3.724,-4.926 5.475,-7.454 l 0.516,0.291 c 0.366,0.141 0.879,0.121 1.243,0.066 1.456,-0.22 3.244,-1.092 4.676,-1.557 l 13.256,-4.414 33.475,-10.045 62.593,-15.471 c 6.884,-1.796 14.089,-3.335 20.813,-5.651 z"
       id="path148" />
    <path
       fill="#de7607"
       transform="scale(0.666667)"
       d="m 756.423,360.24 c 0.649,4.817 0.578,9.874 0.681,14.741 0.291,13.714 -0.194,27.954 -2.316,41.528 L 612.75,435.998 c -0.484,-0.997 -0.449,-2.028 -0.684,-3.084 l -0.779,-17.786 c -0.027,-0.953 -0.359,-3.235 -0.103,-4.047 0.251,-0.794 2.344,-2.722 2.957,-3.46 1.963,-2.369 3.724,-4.926 5.475,-7.454 l 0.516,0.291 c 0.366,0.141 0.879,0.121 1.243,0.066 1.456,-0.22 3.244,-1.092 4.676,-1.557 l 13.256,-4.414 33.475,-10.045 62.593,-15.471 c 6.884,-1.796 14.089,-3.335 20.813,-5.651 z"
       id="path150" />
    <path
       fill="#ffffff"
       transform="scale(0.666667)"
       d="m 416.557,431.917 0.625,-0.392 c 1.44,3.471 2.207,7.66 3.165,11.296 l 7.021,27.451 c 3.966,14.963 10.004,29.535 17.579,43.042 4.423,7.886 9.61,15.471 14.733,22.913 3.771,5.479 7.119,11.025 11.812,15.772 -2.383,8.319 -7.697,15.641 -11.361,23.439 1.174,0.778 2.438,-0.229 3.181,0.943 -7.051,11.88 -12.563,24.154 -17.274,37.132 -0.589,1.621 -1.959,4.488 -2.004,6.195 l -12.553,32.727 -5.266,14.615 c -0.75,2.429 -1,5.494 -1.971,7.743 -0.293,-4.397 -0.719,-8.615 -1.42,-12.965 -0.356,-2.206 -0.491,-4.452 -2.045,-6.108 l -0.764,-0.196 c -1.427,7.955 -4.314,15.669 -6.233,23.535 -3.437,14.089 -5.008,28.773 -11.024,42.123 -2.338,5.188 -5.628,9.542 -8.625,14.334 -1.629,2.605 -2.933,5.253 -4.321,7.981 l -3.233,0.185 -19.653,-0.339 c -7.024,-0.081 -14.251,0.081 -21.195,-1.053 -16.143,-2.382 -32.629,-3.06 -48.557,-6.947 l -23.394,-5.165 c -3.211,-11.074 -11.923,-19.912 -16.427,-30.286 -1.78,-4.101 -1.981,-8.907 -2.812,-13.267 l -2.15,-9.713 -15.321,-63.027 -9.176,-40.589 0.204,-1.704 c 8.615,5.217 18.773,7.904 28.59,9.84 17.595,3.273 36.891,3.146 54.536,0.019 7.06,-1.251 14.522,-2.862 21.141,-5.678 17.424,-7.412 32.188,-23.871 42.799,-39.154 l 16.958,-30.599 c 0.421,-0.281 0.84,-1.201 1.125,-1.666 l 3.313,-5.404 6.08,-8.891 c 3.412,-5.104 7.606,-13.144 13.044,-16.169 l -0.438,-0.34 c 0.301,-0.35 0.747,-0.616 0.902,-1.05 0.151,-0.423 -0.009,-1.924 -0.009,-2.438 l 0.05,-7.839 c 0.105,-10.117 0.882,-20.181 0.368,-30.306 z"
       id="path156" />
    <path
       fill="#eb960c"
       transform="scale(0.666667)"
       d="m 362.281,601.688 0.706,0.205 -11.142,19.144 3.279,3.089 -5.971,-1.165 -5.636,-0.528 c 4.384,-7.702 12.374,-14.626 18.764,-20.745 z"
       id="path158" />
    <path
       fill="#eb960c"
       transform="scale(0.666667)"
       d="m 398.345,550.688 c 0.255,0.319 0.111,0.094 0.278,0.75 l -5.199,13.674 c -1.086,3.208 -1.904,6.79 -3.353,9.828 -1.685,3.532 -6.028,4.642 -8.423,7.717 -1.439,1.847 -2.376,4.301 -3.382,6.416 l -4.432,8.572 c -1.145,2.113 -2.203,4.376 -4.271,5.72 l -0.411,-0.408 c 3.757,-9.483 8.333,-19.112 13.565,-27.851 l 9.492,-14.521 c 2.018,-3.165 3.661,-7.131 6.136,-9.897 z"
       id="path160" />
    <path
       fill="#c1cadc"
       transform="scale(0.666667)"
       d="m 256.688,581.432 c 17.595,3.273 36.891,3.146 54.536,0.019 7.06,-1.251 14.522,-2.862 21.141,-5.678 17.424,-7.412 32.188,-23.871 42.799,-39.154 3.916,4.643 1.525,28.572 1.595,35.176 -7.394,0.163 -14.541,0.816 -21.876,1.747 -6.84,0.869 -13.496,1.895 -20.048,4.094 l 11.664,5.3 c 1.66,0.711 4.718,1.54 6.02,2.648 -5.681,1.708 -10.853,4.206 -15.553,7.853 0.114,0.625 0.203,0.8 0.532,1.313 -0.572,0.523 -0.437,0.507 -1.262,0.647 -4.049,0.69 -7.427,4.745 -11.805,4.637 -3.223,-0.079 -6.602,-1.821 -9.472,-3.157 l -11.584,-5.166 c -4.718,-1.96 -10.092,-4.577 -15.187,-2.7 -1.733,0.639 -4.732,1.977 -6.541,1.905 l -4.619,2.845 c -3.66,3.574 -6.174,8.616 -10.088,11.722 -0.901,5.298 -1.15,10.803 -1.608,16.16 -0.229,2.688 -0.829,5.716 -0.666,8.382 0.084,1.378 1.712,5.19 0.45,6.076 -0.683,0.479 -1.348,0.617 -2.142,0.837 l -0.081,0.562 c 3.071,2.122 7.597,2.842 11.17,3.842 0.123,0.694 0.09,1.004 -0.166,1.661 l -0.35,-0.792 c -1.638,1.06 -2.861,3.49 -3.986,5.13 -4.383,6.391 -8.472,12.846 -12.056,19.722 -1.61,3.088 -3.054,7.146 -5.114,9.849 l -15.321,-63.027 -9.176,-40.589 0.204,-1.704 c 8.615,5.217 18.773,7.904 28.59,9.84 z"
       id="path162" />
    <path
       fill="#c7d5e6"
       transform="scale(0.666667)"
       d="m 277.028,593.761 c 0.029,-1.033 -0.004,-1.983 0.418,-2.949 1.635,-0.303 2.613,-0.448 4.201,0.104 z"
       id="path164" />
    <path
       fill="#de7607"
       transform="scale(0.666667)"
       d="m 250.489,594.631 0.402,-3.069 c 2.856,-1.255 8.694,-0.576 11.865,-0.592 l 11.513,-0.339 c -3.038,4.818 -5.948,9.888 -8.099,15.176 l 0.77,-0.324 c -0.901,5.298 -1.15,10.803 -1.608,16.16 -0.229,2.688 -0.829,5.716 -0.666,8.382 0.084,1.378 1.712,5.19 0.45,6.076 -0.683,0.479 -1.348,0.617 -2.142,0.837 l -0.081,0.562 c 3.071,2.122 7.597,2.842 11.17,3.842 0.123,0.694 0.09,1.004 -0.166,1.661 l -0.35,-0.792 c -1.638,1.06 -2.861,3.49 -3.986,5.13 -4.383,6.391 -8.472,12.846 -12.056,19.722 -1.61,3.088 -3.054,7.146 -5.114,9.849 L 237.07,613.885 c 2.345,-1.861 3.631,-4.23 5.151,-6.76 2.441,-4.064 4.993,-9.078 8.268,-12.494 z"
       id="path166" />
    <path
       fill="#ffffff"
       transform="scale(0.666667)"
       d="m 250.489,594.631 0.402,-3.069 c 2.856,-1.255 8.694,-0.576 11.865,-0.592 l 11.513,-0.339 c -3.038,4.818 -5.948,9.888 -8.099,15.176 -3.725,7.881 -7.64,15.766 -12.256,23.163 -0.648,1.038 -1.549,3.032 -2.521,3.729 z"
       id="path168" />
    <path
       fill="#de7607"
       transform="scale(0.666667)"
       d="m 416.557,431.917 0.625,-0.392 c 1.44,3.471 2.207,7.66 3.165,11.296 l 7.021,27.451 c 3.966,14.963 10.004,29.535 17.579,43.042 4.423,7.886 9.61,15.471 14.733,22.913 3.771,5.479 7.119,11.025 11.812,15.772 -2.383,8.319 -7.697,15.641 -11.361,23.439 1.174,0.778 2.438,-0.229 3.181,0.943 -7.051,11.88 -12.563,24.154 -17.274,37.132 -0.589,1.621 -1.959,4.488 -2.004,6.195 l -12.553,32.727 -5.266,14.615 c -0.75,2.429 -1,5.494 -1.971,7.743 -0.293,-4.397 -0.719,-8.615 -1.42,-12.965 -0.356,-2.206 -0.491,-4.452 -2.045,-6.108 l -0.764,-0.196 c -1.427,7.955 -4.314,15.669 -6.233,23.535 -3.437,14.089 -5.008,28.773 -11.024,42.123 -2.338,5.188 -5.628,9.542 -8.625,14.334 -1.629,2.605 -2.933,5.253 -4.321,7.981 l -3.233,0.185 -19.653,-0.339 c -7.024,-0.081 -14.251,0.081 -21.195,-1.053 -16.143,-2.382 -32.629,-3.06 -48.557,-6.947 l -23.394,-5.165 c -3.211,-11.074 -11.923,-19.912 -16.427,-30.286 -1.78,-4.101 -1.981,-8.907 -2.812,-13.267 l -2.15,-9.713 c 2.06,-2.703 3.504,-6.761 5.114,-9.849 3.584,-6.876 7.673,-13.331 12.056,-19.722 1.125,-1.64 2.348,-4.07 3.986,-5.13 l 0.35,0.792 -1.015,13.552 c -0.818,6.665 -2.07,13.146 -3.576,19.693 2.875,-2.788 4.706,-6.558 6.132,-10.252 0.157,-0.801 0.328,-1.102 0.75,-1.777 l 0.664,0.656 0.42,0.59 c 1.261,-2.785 3.157,-5.159 4.82,-7.706 l 10.05,-15.284 -5.576,24.425 c 3.323,-4.536 6.04,-9.176 8.459,-14.249 -0.361,8.218 0.333,16.455 -1.736,24.477 l 10.363,-13.382 2.605,25.426 c 0.713,6.852 0.803,14.174 3.326,20.635 l 3.679,-10.269 c 1.522,-3.675 3.639,-7.154 5.437,-10.705 0.898,-1.774 2.072,-4.706 3.54,-6.041 -0.898,7.463 -3.029,14.54 -4.307,21.903 -1.38,7.948 -1.34,15.858 -4.116,23.529 3.816,-2.975 6.856,-5.049 11.589,-6.348 l 3.364,-23.213 6.926,11.938 -1.254,-11.997 c -0.152,-1.717 -0.475,-3.545 -0.129,-5.24 l 0.75,-0.056 c 0.627,0.524 1.045,0.966 1.876,1.088 2.193,-1.815 3.762,-3.846 5.232,-6.27 1.444,-2.378 3.142,-5.463 3.47,-8.255 0.37,-3.158 -1.261,-7.964 -2.024,-11.125 4.329,3.227 8.941,7.177 11.443,12.066 1.217,2.379 2.192,4.855 3.667,7.093 -1.248,-6.469 -1.677,-12.915 -1.725,-19.501 -0.038,-5.145 0.252,-10.4 -0.242,-15.521 l -0.063,-0.619 c 4.34,6.338 7.896,13.63 10.998,20.657 l 3.906,-9.76 c 2.376,3.916 3.906,9.046 7.338,12.149 1.37,-0.448 1.304,-2.769 1.391,-4.06 0.679,-10.139 1.976,-19.618 4.085,-29.572 1.332,-6.285 2.715,-12.448 5.869,-18.103 0.318,2.631 -0.091,5.255 -0.384,7.872 -0.6,5.371 -1.533,10.451 -2.84,15.693 l 11.81,-18.217 c 6.809,-10.121 13.608,-19.674 21.808,-28.746 -0.931,3.525 -1.452,6.86 -1.694,10.5 3.679,-4.064 5.802,-9.592 7.637,-14.693 0.537,-1.493 1.076,-3.869 2.037,-5.121 0.447,-0.582 2.148,-1.397 2.812,-1.841 2.221,-1.486 4.477,-3.053 6.339,-4.984 2.956,-3.066 5.141,-7.036 7.308,-10.673 l 8.861,-15.036 -0.622,-1.829 c -1.444,-4.423 -3.614,-8.559 -5.473,-12.82 l -13.17,-29.958 -11.531,-26.95 c -1.539,-3.529 -2.94,-7.758 -4.91,-11.023 -0.795,-1.318 -1.094,-1.538 -2.587,-1.859 l -0.438,-0.34 c 0.301,-0.35 0.747,-0.616 0.902,-1.05 0.151,-0.423 -0.009,-1.924 -0.009,-2.438 l 0.05,-7.839 c 0.105,-10.117 0.882,-20.181 0.368,-30.306 z"
       id="path170" />
    <path
       fill="#603019"
       transform="scale(0.666667)"
       d="m 420.015,655.524 8.927,-22.233 c 1.862,-5.031 3.426,-11.199 6.237,-15.702 -1.627,9.701 -3.257,19.437 -3.86,29.259 -0.081,1.329 -0.6,4.088 -0.048,5.271 l 0.21,0.316 -5.266,14.615 c -0.75,2.429 -1,5.494 -1.971,7.743 -0.293,-4.397 -0.719,-8.615 -1.42,-12.965 -0.356,-2.206 -0.491,-4.452 -2.045,-6.108 z"
       id="path172" />
    <path
       fill="#603019"
       transform="scale(0.666667)"
       d="m 252.391,676.912 c 2.06,-2.703 3.504,-6.761 5.114,-9.849 3.584,-6.876 7.673,-13.331 12.056,-19.722 1.125,-1.64 2.348,-4.07 3.986,-5.13 l 0.35,0.792 -1.015,13.552 c -0.818,6.665 -2.07,13.146 -3.576,19.693 2.875,-2.788 4.706,-6.558 6.132,-10.252 0.941,0.937 0.838,1.288 0.851,2.554 0.06,5.627 -3.151,12.401 -4.843,17.782 2.323,-1.275 4.202,-2.726 6.189,-4.475 1.131,4.624 2.067,9.576 1.228,14.331 -0.509,2.884 -1.697,5.725 -2.615,8.495 2.728,-3.425 5.337,-6.889 8.94,-9.453 0.418,0.18 0.705,0.154 0.864,0.609 0.666,1.906 0.107,4.025 -0.127,5.973 l -2.958,18.484 6.675,-12.904 7.532,27.951 -23.394,-5.165 c -3.211,-11.074 -11.923,-19.912 -16.427,-30.286 -1.78,-4.101 -1.981,-8.907 -2.812,-13.267 z"
       id="path174" />
    <path
       fill="#633b14"
       transform="scale(0.666667)"
       d="m 345.731,742.29 2.196,-0.202 0.757,-2.588 c 0.701,-2.497 1.573,-4.584 3.02,-6.736 3.484,-5.183 8.269,-9.781 12.307,-14.549 l 17.488,-22.45 c 12.255,-16.824 24.778,-34.579 33.11,-53.748 l 0.183,-0.428 c 0.612,3.908 1.306,7.482 3.096,11.056 0.435,0.868 0.886,1.954 1.673,2.558 l 0.454,0.321 c -1.427,7.955 -4.314,15.669 -6.233,23.535 -3.437,14.089 -5.008,28.773 -11.024,42.123 -2.338,5.188 -5.628,9.542 -8.625,14.334 -1.629,2.605 -2.933,5.253 -4.321,7.981 l -3.233,0.185 -19.653,-0.339 c -7.024,-0.081 -14.251,0.081 -21.195,-1.053 z"
       id="path176" />
    <path
       fill="#f29d00"
       transform="scale(0.666667)"
       d="m 41.267,238.033 53.5489,29.198 c 4.4731,2.903 36.2561,18.151 37.0201,19.191 -3.793,7.442 -6.503,16.005 -8.921,24.015 -1.505,6.824 -9.712,32.471 -6.136,37.777 2.535,3.761 8.604,5.851 12.646,7.722 l 17.463,7.929 c 3.387,1.515 7.063,2.857 10.212,4.809 5.246,-13.835 10.935,-27.418 17.684,-40.594 1.766,-3.447 3.695,-8.782 6.987,-10.976 0.542,-0.361 0.288,-0.133 0.702,-0.884 l 2.423,15.888 c 0.454,2.96 0.783,6.45 2.145,9.145 2.129,4.211 8.832,7.91 12.605,10.75 4.788,3.605 9.927,7.799 13.462,12.686 3.88,5.362 6.122,12.713 8.166,18.936 2.579,7.85 5.053,15.779 6.968,23.817 2.351,8.163 5.166,18.009 4.693,26.549 l -0.234,1.396 c -2.699,11.541 -6.374,21.861 -11.115,32.696 -0.633,1.446 -1.282,2.475 -1.506,4.073 -1.773,3.327 -4.14,5.73 -6.564,8.572 -1.371,1.607 -2.471,3.416 -3.812,5.043 l -15.231,-0.84 c -3.815,-0.11 -9.228,1.143 -12.785,-0.112 -2.728,-0.962 -4.758,-3.262 -7.425,-4.367 -4.807,-1.992 -27.443,0.095 -32.89,1.576 -2.861,0.777 -5.575,2.508 -8.357,3.588 -1.905,0.74 -6.512,2.362 -8.495,1.421 -2.608,-1.236 -6.415,-3.029 -9.235,-3.468 -5.834,-0.909 -12.56,0.361 -18.536,0.165 l -8.2614,-0.613 c -0.7501,-0.058 -1.9589,-0.309 -2.6449,-0.041 -1.553,0.606 -3.8633,2.931 -5.3053,4.013 -3.544,-2.138 -6.5573,-4.689 -9.8031,-7.23 -2.9857,-2.338 -7.4632,-5.021 -11.3101,-5.411 -1.7234,-0.175 -3.6282,0.536 -5.2918,0.962 l -7.7417,1.739 -18.0533,3.073 c -2.1978,-6.118 -3.8418,-12.45 -5.626,-18.699 -2.4538,-8.595 -4.9429,-17.239 -6.7312,-26 -1.3873,-6.796 -2.2489,-13.628 -3.122,-20.504 -1.3225,-14.038 -1.6764,-28.104 -1.6452,-42.198 0.012,-5.375 -0.3031,-11.03 0.3594,-16.362 -0.1094,-5.294 0.6236,-10.747 1.2279,-16.007 1.6645,-14.487 4.7571,-28.773 8.4096,-42.88 l 5.5703,-20.155 7.9764,-22.161 z"
       id="path178" />
    <path
       fill="#f4c354"
       transform="scale(0.666667)"
       d="m 41.267,238.033 53.5489,29.198 c 4.4731,2.903 36.2561,18.151 37.0201,19.191 -3.793,7.442 -6.503,16.005 -8.921,24.015 L 75.1081,281.13 48.4222,264.256 l -7.334,-4.844 c -2.072,-1.455 -4.0345,-3.055 -6.3306,-4.152 z"
       id="path180" />
    <path
       fill="#de7607"
       transform="scale(0.666667)"
       d="m 12.8592,415.023 c -1.3225,-14.038 -1.6764,-28.104 -1.6452,-42.198 0.012,-5.375 -0.3031,-11.03 0.3594,-16.362 l 0.0456,7.182 216.623,43.797 c 2.351,8.163 5.166,18.009 4.693,26.549 l -0.234,1.396 c -4.657,-0.998 -9.711,-1.071 -14.451,-1.599 l -39.375,-4.159 -86.3827,-8.321 -58.1973,-4.481 z"
       id="path182" />
    <path
       fill="#ad5a04"
       transform="scale(0.666667)"
       d="m 12.8592,415.023 21.4358,1.804 58.1973,4.481 86.3827,8.321 39.375,4.159 c 4.74,0.528 9.794,0.601 14.451,1.599 -2.699,11.541 -6.374,21.861 -11.115,32.696 -0.633,1.446 -1.282,2.475 -1.506,4.073 -1.773,3.327 -4.14,5.73 -6.564,8.572 -1.371,1.607 -2.471,3.416 -3.812,5.043 l -15.231,-0.84 c -3.815,-0.11 -9.228,1.143 -12.785,-0.112 -2.728,-0.962 -4.758,-3.262 -7.425,-4.367 -4.807,-1.992 -27.443,0.095 -32.89,1.576 -2.861,0.777 -5.575,2.508 -8.357,3.588 -1.905,0.74 -6.512,2.362 -8.495,1.421 -2.608,-1.236 -6.415,-3.029 -9.235,-3.468 -5.834,-0.909 -12.56,0.361 -18.536,0.165 l -8.2614,-0.613 c -0.7501,-0.058 -1.9589,-0.309 -2.6449,-0.041 -1.553,0.606 -3.8633,2.931 -5.3053,4.013 -3.544,-2.138 -6.5573,-4.689 -9.8031,-7.23 -2.9857,-2.338 -7.4632,-5.021 -11.3101,-5.411 -1.7234,-0.175 -3.6282,0.536 -5.2918,0.962 l -7.7417,1.739 -18.0533,3.073 c -2.1978,-6.118 -3.8418,-12.45 -5.626,-18.699 -2.4538,-8.595 -4.9429,-17.239 -6.7312,-26 -1.3873,-6.796 -2.2489,-13.628 -3.122,-20.504 z"
       id="path184" />
    <path
       fill="url(#gradient_0)"
       transform="scale(0.666667)"
       d="m 246.285,279.545 c 3.307,1.295 5.647,2.181 9.277,2.002 10.072,-0.496 19.768,4.995 27.969,10.201 8.236,5.229 15.543,10.773 22.721,17.381 4.886,4.498 10.862,9.392 14.668,14.824 3.705,3.576 6.911,8.228 9.838,12.472 9.842,14.277 16.615,29.717 21.728,46.263 l 5.102,19.66 12.482,60.663 5.61,31.662 2.332,13.547 0.056,4.319 13.45,-6.327 0.604,-0.192 -16.958,30.599 c -10.611,15.283 -25.375,31.742 -42.799,39.154 -6.619,2.816 -14.081,4.427 -21.141,5.678 -17.645,3.127 -36.941,3.254 -54.536,-0.019 -9.817,-1.936 -19.975,-4.623 -28.59,-9.84 -2.156,-3.041 -5.327,-5.615 -7.841,-8.401 -5.903,-6.539 -10.391,-14.445 -13.558,-22.63 -0.756,-1.954 -2.077,-3.963 -2.159,-6.079 0.052,-1.031 -1.847,-4.101 -2.17,-5.415 -0.534,-2.165 -0.274,-4.653 -0.268,-6.888 l 0.018,-1.068 c 0.064,-1.643 -0.011,-5.773 0.707,-7.149 0.599,-1.147 1.984,-2.23 2.928,-3.09 0.013,-2.276 -0.693,-4.642 -1.095,-6.872 -0.425,-2.358 -0.865,-5.181 -0.497,-7.534 0.611,-3.91 3.332,-7.526 5.541,-10.695 1.341,-1.627 2.441,-3.436 3.812,-5.043 2.424,-2.842 4.791,-5.245 6.564,-8.572 0.224,-1.598 0.873,-2.627 1.506,-4.073 4.741,-10.835 8.416,-21.155 11.115,-32.696 l 0.234,-1.396 c 0.473,-8.54 -2.342,-18.386 -4.693,-26.549 -1.915,-8.038 -4.389,-15.967 -6.968,-23.817 -2.044,-6.223 -4.286,-13.574 -8.166,-18.936 -3.535,-4.887 -8.674,-9.081 -13.462,-12.686 -3.773,-2.84 -10.476,-6.539 -12.605,-10.75 -1.362,-2.695 -1.691,-6.185 -2.145,-9.145 l -2.423,-15.888 c -0.609,-4.508 -1.881,-9.388 -1.728,-13.946 0.083,-2.51 0.783,-5.182 1.364,-7.622 l 0.38,-1.335 0.441,-0.629 1.011,-1.57 c 4.309,-6.021 16.5,-8.781 23.539,-9.794 l 1.9,1.457 c 1.604,0.963 3.085,1.925 4.932,2.351 0.927,-0.372 1.348,-0.77 2.035,-1.463 7.94,-4.911 21.854,-2.776 30.711,-1.448 0.079,-0.747 -0.032,-0.432 0.254,-0.971 0.789,0.394 0.817,0.362 1.688,0.188 -0.46,-0.278 -0.78,-0.418 -1.313,-0.546 -0.771,-0.186 -0.943,-0.722 -1.402,-1.347 z"
       id="path193"
       style="fill:url(#gradient_0)" />
    <path
       fill="#461b12"
       transform="scale(0.666667)"
       d="m 204.54,534.482 7.877,8.389 c 3.253,3.799 6.32,7.931 10.341,10.965 5.671,4.278 12.218,6.279 19.304,6.371 8.599,0.111 16.783,-1.592 24.67,-5.001 l 0.695,0.226 c 1.677,0.47 4.33,-0.473 6.031,-0.85 11.258,-2.498 22.824,-5.975 32.561,-12.353 3.402,-2.228 6.551,-4.558 10.319,-6.172 -3.382,3.914 -6.613,8.077 -10.2,11.798 -9.959,10.332 -21.002,17.784 -33.22,25.127 -4.468,2.685 -8.747,5.72 -13.606,7.644 l -0.571,0.268 c -0.689,0.305 -1.315,0.405 -2.053,0.538 -9.817,-1.936 -19.975,-4.623 -28.59,-9.84 -2.156,-3.041 -5.327,-5.615 -7.841,-8.401 -5.903,-6.539 -10.391,-14.445 -13.558,-22.63 -0.756,-1.954 -2.077,-3.963 -2.159,-6.079 z"
       id="path195" />
    <path
       transform="scale(0.666667)"
       d="m 312.33,345.666 c 0.938,1.483 1.505,3.284 2.504,4.657 l 0.257,0.634 c 2.237,5.334 6.037,10.309 9.195,15.133 l 10.036,16.649 c 7.838,14.5 12.335,30.763 15.381,46.881 1.567,8.294 2.978,16.797 2.21,25.262 -1.364,15.033 -6.735,30.415 -12.186,44.403 -2.474,6.35 -5.547,13.027 -12.069,16.156 l -0.588,0.254 c -4.092,1.833 -8.386,2.642 -12.464,4.356 l -0.443,0.162 c -0.475,0.205 -0.325,0.138 -0.659,0.521 -1.249,1.435 -3.638,2.677 -5.254,3.78 l -0.551,-0.21 -0.268,-0.773 c 1.344,-1.317 3.368,-2.344 4.974,-3.362 -2.411,0.526 -4.647,1.3 -6.957,2.151 l -0.252,-0.181 c 0.626,-7.307 2.78,-13.452 7.272,-19.347 l 0.304,-0.39 c -4.332,-0.509 -7.804,-0.508 -12.013,-1.92 l 0.218,-0.415 c 0.49,-1.587 -0.97,-4.11 -1.823,-5.428 -1.017,-1.571 -2.132,-2.713 -4.029,-3.064 -2.656,0.502 -5.003,2.424 -7.077,4.064 -1.278,-1.047 -1.334,-3.222 -1.705,-4.745 -0.398,-1.63 -1.108,-3.456 -1.932,-4.913 l -0.207,-0.356 c -1.035,-1.803 -2.104,-3.785 -4.107,-4.521 0.559,-4.08 11.597,-5.949 15.02,-7.692 2.612,-1.33 4.588,-3.324 6.686,-5.326 8.206,-6.311 12.601,-19.375 15.916,-28.817 1.757,-5.003 3.606,-10.171 4.95,-15.302 0.569,-0.546 1.067,-1.049 1.519,-1.697 0.633,-5.734 0.504,-12.7 -0.875,-18.316 -0.352,-6.889 -2.189,-14.198 -3.61,-20.963 l -5.16,-26.677 c -0.674,-3.572 -1.872,-7.02 -2.213,-10.648 z"
       id="path197" />
    <path
       fill="#ffffff"
       transform="scale(0.666667)"
       d="m 328.412,454.535 c 0.956,4.368 2.888,8.521 3.769,12.858 0.838,4.124 0.14,8.556 -0.835,12.597 -2.327,9.638 -8.453,15.14 -16.534,20.083 -0.667,0.334 -0.286,0.177 -1.158,0.429 -0.241,-6.315 -2.762,-12.449 -3.132,-18.693 -0.052,-0.88 -0.317,-2.932 -0.044,-3.733 0.969,-2.847 4.267,-6.026 6.211,-8.334 4.139,-4.916 8.492,-9.62 11.723,-15.207 z"
       id="path199" />
    <path
       fill="#f4c354"
       transform="scale(0.666667)"
       d="m 220.08,472.156 1.347,0.346 -2.091,4.757 c 2.766,1.421 6.346,3.484 7.408,6.59 0.25,0.73 0.229,1.453 0.221,2.212 l -0.15,0.338 c -0.995,2.134 -2.473,3.956 -3.801,5.886 -2.944,4.277 -3.807,7.7 -4.608,12.722 l 0.476,0.305 c 0.522,-0.283 1.41,-0.973 1.996,-0.849 1.574,0.333 2.552,1.924 3.365,3.169 4.138,-2.794 7.294,-4.744 12.491,-3.724 3.223,0.632 5.94,1.517 8.956,2.817 0.777,-0.607 2.633,-2.47 3.459,-2.704 1.617,-0.458 4.69,-0.078 6.464,-0.108 l 0.455,0.158 c 2.462,0.888 4.698,2.231 6.744,3.858 1.376,-1.552 2.675,-3 4.329,-4.268 3.153,-0.147 7.109,-0.438 10.055,0.891 1.253,-0.762 2.899,-0.47 4.315,-0.414 l 0.457,1.018 c 1.794,-3.558 3.373,-6.562 6.08,-9.517 2.074,-1.64 4.421,-3.562 7.077,-4.064 1.897,0.351 3.012,1.493 4.029,3.064 0.853,1.318 2.313,3.841 1.823,5.428 l -0.218,0.415 c 4.209,1.412 7.681,1.411 12.013,1.92 l -0.304,0.39 c -4.492,5.895 -6.646,12.04 -7.272,19.347 l 0.252,0.181 c 2.31,-0.851 4.546,-1.625 6.957,-2.151 -1.606,1.018 -3.63,2.045 -4.974,3.362 l -0.266,-0.118 c -5.362,8.777 -15.266,14.857 -23.477,20.666 -5.586,3.952 -10.886,7.893 -16.956,11.127 -7.887,3.409 -16.071,5.112 -24.67,5.001 -7.086,-0.092 -13.633,-2.093 -19.304,-6.371 -4.021,-3.034 -7.088,-7.166 -10.341,-10.965 l -7.877,-8.389 c 0.052,-1.031 -1.847,-4.101 -2.17,-5.415 -0.534,-2.165 -0.274,-4.653 -0.268,-6.888 l 0.018,-1.068 c 0.064,-1.643 -0.011,-5.773 0.707,-7.149 0.599,-1.147 1.984,-2.23 2.928,-3.09 0.013,-2.276 -0.693,-4.642 -1.095,-6.872 -0.425,-2.358 -0.865,-5.181 -0.497,-7.534 0.611,-3.91 3.332,-7.526 5.541,-10.695 1.341,-1.627 2.441,-3.436 3.812,-5.043 2.424,-2.842 4.791,-5.245 6.564,-8.572 z"
       id="path201" />
    <path
       fill="#de7607"
       transform="scale(0.666667)"
       d="m 215.055,526.048 c 6.11,2.618 12.101,3.406 18.403,5.118 3.886,1.057 7.622,2.723 11.524,3.679 1.448,0.354 2.979,0.24 4.393,0.655 l -0.17,0.562 -2.92,0.276 c -4.771,0.705 -9.947,0.467 -14.775,0.654 -3.51,0.135 -7.279,0.713 -10.768,0.423 -0.966,-0.081 -1.496,-0.278 -2.104,-1.047 -0.588,-0.745 -0.661,-0.871 -0.576,-1.764 0.837,-0.367 1.733,-0.489 2.626,-0.656 l 0.228,-0.51 c -2.219,-2.387 -4.167,-4.585 -5.861,-7.39 z"
       id="path203" />
    <path
       fill="#eb960c"
       transform="scale(0.666667)"
       d="m 300.759,500.482 c 4.209,1.412 7.681,1.411 12.013,1.92 l -0.304,0.39 c -4.492,5.895 -6.646,12.04 -7.272,19.347 l 0.252,0.181 c 2.31,-0.851 4.546,-1.625 6.957,-2.151 -1.606,1.018 -3.63,2.045 -4.974,3.362 l -0.266,-0.118 -0.614,-0.582 c -0.968,0.04 -1.644,0.145 -2.582,0.379 -4.016,1.003 -9.368,0.238 -13.107,2.143 -2.57,1.309 -3.993,4.68 -6.05,6.679 -0.537,0.523 -2.09,1.849 -2.851,1.911 -3.093,0.251 -6.948,-1.855 -9.703,-3.036 L 259.46,525.45 c -0.329,-0.756 -0.233,-0.415 -0.354,-1.002 3.704,-0.749 7.485,-1.35 11.082,-2.533 8.325,-2.738 14.451,-7.911 21.056,-13.425 3.202,-2.674 6.536,-5.063 9.515,-8.008 z"
       id="path205" />
    <path
       fill="#ffffff"
       transform="scale(0.666667)"
       d="m 220.08,472.156 1.347,0.346 -2.091,4.757 c 2.766,1.421 6.346,3.484 7.408,6.59 0.25,0.73 0.229,1.453 0.221,2.212 l -0.15,0.338 c -0.995,2.134 -2.473,3.956 -3.801,5.886 -2.944,4.277 -3.807,7.7 -4.608,12.722 l 0.476,0.305 c 0.522,-0.283 1.41,-0.973 1.996,-0.849 1.574,0.333 2.552,1.924 3.365,3.169 4.138,-2.794 7.294,-4.744 12.491,-3.724 3.223,0.632 5.94,1.517 8.956,2.817 0.777,-0.607 2.633,-2.47 3.459,-2.704 1.617,-0.458 4.69,-0.078 6.464,-0.108 l 0.455,0.158 c 2.462,0.888 4.698,2.231 6.744,3.858 1.376,-1.552 2.675,-3 4.329,-4.268 3.153,-0.147 7.109,-0.438 10.055,0.891 1.253,-0.762 2.899,-0.47 4.315,-0.414 l 0.457,1.018 c 1.794,-3.558 3.373,-6.562 6.08,-9.517 2.074,-1.64 4.421,-3.562 7.077,-4.064 1.897,0.351 3.012,1.493 4.029,3.064 0.853,1.318 2.313,3.841 1.823,5.428 l -0.218,0.415 c -2.979,2.945 -6.313,5.334 -9.515,8.008 -6.605,5.514 -12.731,10.687 -21.056,13.425 -3.597,1.183 -7.378,1.784 -11.082,2.533 -6.991,0.972 -14.434,2.326 -21.522,1.772 -6.838,-0.533 -12.941,-2.869 -19.146,-5.609 -3.479,-1.535 -7.274,-3.046 -10.313,-5.38 -1.897,-1.456 -2.079,-2.043 -2.37,-4.359 0.013,-2.276 -0.693,-4.642 -1.095,-6.872 -0.425,-2.358 -0.865,-5.181 -0.497,-7.534 0.611,-3.91 3.332,-7.526 5.541,-10.695 1.341,-1.627 2.441,-3.436 3.812,-5.043 2.424,-2.842 4.791,-5.245 6.564,-8.572 z"
       id="path207" />
    <path
       transform="scale(0.666667)"
       d="m 277.196,504.552 c 1.253,-0.762 2.899,-0.47 4.315,-0.414 l 0.457,1.018 -1.28,1.819 c -1.229,-0.677 -2.358,-1.597 -3.492,-2.423 z"
       id="path209" />
    <path
       transform="scale(0.666667)"
       d="m 216.347,283.669 c 7.94,-4.911 21.854,-2.776 30.711,-1.448 2.526,0.401 5.451,0.627 7.865,1.467 3.42,1.189 6.886,4.191 10.092,6 l 14.834,7.521 c 5.896,3.345 11.684,8.171 15.692,13.666 2.906,3.986 3.946,8.797 6.224,13.093 1.637,1.871 2.727,4.134 3.935,6.293 2.356,4.214 4.627,8.311 6.139,12.915 0.36,0.931 0.585,1.471 0.491,2.49 0.341,3.628 1.539,7.076 2.213,10.648 l 5.16,26.677 c 1.421,6.765 3.258,14.074 3.61,20.963 1.379,5.616 1.508,12.582 0.875,18.316 -0.452,0.648 -0.95,1.151 -1.519,1.697 -1.344,5.131 -3.193,10.299 -4.95,15.302 -3.315,9.442 -7.71,22.506 -15.916,28.817 -2.098,2.002 -4.074,3.996 -6.686,5.326 -3.423,1.743 -14.461,3.612 -15.02,7.692 2.003,0.736 3.072,2.718 4.107,4.521 l 0.207,0.356 c 0.824,1.457 1.534,3.283 1.932,4.913 0.371,1.523 0.427,3.698 1.705,4.745 -2.707,2.955 -4.286,5.959 -6.08,9.517 l -0.457,-1.018 c -1.416,-0.056 -3.062,-0.348 -4.315,0.414 -2.946,-1.329 -6.902,-1.038 -10.055,-0.891 -1.654,1.268 -2.953,2.716 -4.329,4.268 -2.046,-1.627 -4.282,-2.97 -6.744,-3.858 l -0.455,-0.158 c -1.774,0.03 -4.847,-0.35 -6.464,0.108 -0.826,0.234 -2.682,2.097 -3.459,2.704 -3.016,-1.3 -5.733,-2.185 -8.956,-2.817 -5.197,-1.02 -8.353,0.93 -12.491,3.724 -0.813,-1.245 -1.791,-2.836 -3.365,-3.169 -0.586,-0.124 -1.474,0.566 -1.996,0.849 l -0.476,-0.305 c 0.801,-5.022 1.664,-8.445 4.608,-12.722 1.328,-1.93 2.806,-3.752 3.801,-5.886 l 0.15,-0.338 c 0.008,-0.759 0.029,-1.482 -0.221,-2.212 -1.062,-3.106 -4.642,-5.169 -7.408,-6.59 l 2.091,-4.757 -1.347,-0.346 c 0.224,-1.598 0.873,-2.627 1.506,-4.073 4.741,-10.835 8.416,-21.155 11.115,-32.696 l 0.234,-1.396 c 0.473,-8.54 -2.342,-18.386 -4.693,-26.549 -1.915,-8.038 -4.389,-15.967 -6.968,-23.817 -2.044,-6.223 -4.286,-13.574 -8.166,-18.936 -3.535,-4.887 -8.674,-9.081 -13.462,-12.686 -3.773,-2.84 -10.476,-6.539 -12.605,-10.75 -1.362,-2.695 -1.691,-6.185 -2.145,-9.145 l -2.423,-15.888 c -0.609,-4.508 -1.881,-9.388 -1.728,-13.946 0.083,-2.51 0.783,-5.182 1.364,-7.622 l 0.38,-1.335 0.441,-0.629 1.011,-1.57 c 4.309,-6.021 16.5,-8.781 23.539,-9.794 l 1.9,1.457 c 1.604,0.963 3.085,1.925 4.932,2.351 0.927,-0.372 1.348,-0.77 2.035,-1.463 z"
       id="path211" />
    <path
       fill="#461b12"
       transform="scale(0.666667)"
       d="m 311.839,343.176 c 0.36,0.931 0.585,1.471 0.491,2.49 0.341,3.628 1.539,7.076 2.213,10.648 l 5.16,26.677 -0.456,0.887 -0.09,-0.725 c -0.082,-0.634 -0.221,-1.168 -0.407,-1.778 -0.24,-0.785 -0.342,-1.595 -0.416,-2.408 -0.057,-0.622 -0.128,-1.136 -0.579,-1.587 -0.122,1.146 -0.229,1.798 0.237,2.878 0.481,1.114 0.461,2.773 0.499,3.979 l -0.307,0.412 -6.333,-31.868 c -0.461,-2.827 -1.292,-6.027 -1.176,-8.879 l 0.743,-0.011 z"
       id="path213" />
    <path
       fill="url(#gradient_1)"
       transform="scale(0.666667)"
       d="m 318.184,384.649 0.307,-0.412 c -0.038,-1.206 -0.018,-2.865 -0.499,-3.979 -0.466,-1.08 -0.359,-1.732 -0.237,-2.878 0.451,0.451 0.522,0.965 0.579,1.587 0.074,0.813 0.176,1.623 0.416,2.408 0.186,0.61 0.325,1.144 0.407,1.778 l 0.09,0.725 0.456,-0.887 c 1.421,6.765 3.258,14.074 3.61,20.963 1.379,5.616 1.508,12.582 0.875,18.316 -0.452,0.648 -0.95,1.151 -1.519,1.697 l 0.18,-0.956 c 0.523,-1.272 0.152,-3.554 0.102,-4.962 -0.252,-7.188 -1.445,-13.967 -2.358,-21.063 z"
       id="path222"
       style="fill:url(#gradient_1)" />
    <path
       fill="#985522"
       transform="scale(0.666667)"
       d="m 301.765,323.968 c 1.637,1.871 2.727,4.134 3.935,6.293 2.356,4.214 4.627,8.311 6.139,12.915 l -0.421,0.715 -0.743,0.011 c -1.1,-4.063 -4.697,-6.923 -7.487,-9.904 -2.706,-2.891 -5.274,-5.882 -8.181,-8.578 z"
       id="path224" />
    <path
       fill="#ffffff"
       transform="scale(0.666667)"
       d="m 242.906,497.691 c -0.99,1.207 -2.161,2.728 -3.466,3.615 -1.509,1.026 -3.452,1.041 -5.171,0.609 -1.797,-0.451 -3.449,-1.319 -4.331,-3.047 -0.505,-0.99 -0.41,-1.721 -0.066,-2.743 0.655,-1.943 2.288,-3.81 4.146,-4.687 3.558,-1.681 6.876,-0.603 10.294,0.698 l 0.15,1.191 z"
       id="path226" />
    <path
       fill="#ffffff"
       transform="scale(0.666667)"
       d="m 263.791,475.912 c 0.753,-0.366 0.405,-0.306 1.196,-0.289 2.155,0.047 5.025,0.285 7.084,-0.332 l 0.367,-0.122 c 2.407,-0.778 4.461,-2.785 6.471,-4.281 5.538,-4.123 10.57,-6.485 17.599,-5.384 2.162,0.339 3.97,0.788 5.295,2.582 -2.098,2.002 -4.074,3.996 -6.686,5.326 -3.423,1.743 -14.461,3.612 -15.02,7.692 2.003,0.736 3.072,2.718 4.107,4.521 l 0.207,0.356 c 0.824,1.457 1.534,3.283 1.932,4.913 0.371,1.523 0.427,3.698 1.705,4.745 -2.707,2.955 -4.286,5.959 -6.08,9.517 l -0.457,-1.018 c -1.416,-0.056 -3.062,-0.348 -4.315,0.414 -2.946,-1.329 -6.902,-1.038 -10.055,-0.891 -1.654,1.268 -2.953,2.716 -4.329,4.268 -2.046,-1.627 -4.282,-2.97 -6.744,-3.858 l -0.455,-0.158 c -1.92,-0.959 -4.492,-0.252 -6.567,-0.421 l -0.421,-0.051 -0.748,0.561 c -0.865,0.428 -1.202,0.793 -1.875,1.5 -1.255,0.316 -2.193,-0.577 -3.402,-0.982 l -0.725,-0.237 c -1.668,-0.555 -3.356,-0.815 -5.063,-1.217 1.117,-0.162 2.378,-0.508 3.314,-1.17 1.657,-1.173 2.413,-2.263 2.78,-4.205 l 1.556,-4.364 0.429,0.612 c 1.843,-3.115 7.509,-4.227 10.69,-6.081 1.644,-0.958 3.625,-2.136 4.87,-3.59 1.806,-2.11 2.665,-5.717 3.34,-8.356 z"
       id="path228" />
    <path
       fill="url(#gradient_2)"
       transform="scale(0.666667)"
       d="m 280.097,481.104 c 2.003,0.736 3.072,2.718 4.107,4.521 l 0.207,0.356 c 0.824,1.457 1.534,3.283 1.932,4.913 0.371,1.523 0.427,3.698 1.705,4.745 -2.707,2.955 -4.286,5.959 -6.08,9.517 l -0.457,-1.018 c -1.416,-0.056 -3.062,-0.348 -4.315,0.414 -2.946,-1.329 -6.902,-1.038 -10.055,-0.891 -1.654,1.268 -2.953,2.716 -4.329,4.268 -2.046,-1.627 -4.282,-2.97 -6.744,-3.858 l -0.455,-0.158 c -1.92,-0.959 -4.492,-0.252 -6.567,-0.421 l -0.421,-0.051 -0.748,0.561 c -0.865,0.428 -1.202,0.793 -1.875,1.5 -1.255,0.316 -2.193,-0.577 -3.402,-0.982 l -0.725,-0.237 c -1.668,-0.555 -3.356,-0.815 -5.063,-1.217 1.117,-0.162 2.378,-0.508 3.314,-1.17 1.657,-1.173 2.413,-2.263 2.78,-4.205 l 1.556,-4.364 0.429,0.612 -0.196,2.374 c 0.809,2.072 2.282,4.19 4.415,5.066 1.783,0.733 4.726,0.342 6.452,-0.435 4.25,-1.911 4.523,-9.092 6.165,-12.959 1.942,3.764 3.89,8.272 7.711,10.482 1.728,1 4.022,1.396 5.957,0.845 3.934,-4.41 3.308,-12.124 4.551,-17.57 z"
       id="path237"
       style="fill:url(#gradient_2)" />
    <path
       fill="#ffb8b4"
       transform="scale(0.666667)"
       d="m 322.849,423.011 -0.18,0.956 c -1.344,5.131 -3.193,10.299 -4.95,15.302 -3.315,9.442 -7.71,22.506 -15.916,28.817 -1.325,-1.794 -3.133,-2.243 -5.295,-2.582 -7.029,-1.101 -12.061,1.261 -17.599,5.384 -2.01,1.496 -4.064,3.503 -6.471,4.281 l -0.367,0.122 c -2.059,0.617 -4.929,0.379 -7.084,0.332 -0.791,-0.017 -0.443,-0.077 -1.196,0.289 l -0.412,-11.85 c -0.115,-3.739 -0.547,-8.163 0.503,-11.764 1,-3.43 3.86,-7.236 6.306,-9.799 4.618,-4.839 9.719,-9.107 15.684,-12.187 11.353,-5.86 24.436,-6.936 36.977,-7.301 z"
       id="path239" />
    <path
       fill="#603019"
       transform="scale(0.666667)"
       d="m 216.347,283.669 c 7.94,-4.911 21.854,-2.776 30.711,-1.448 2.526,0.401 5.451,0.627 7.865,1.467 3.42,1.189 6.886,4.191 10.092,6 l 14.834,7.521 c 5.896,3.345 11.684,8.171 15.692,13.666 2.906,3.986 3.946,8.797 6.224,13.093 l -6.758,1.452 c -1.964,0.771 -4.711,1.085 -6.819,1.19 -3.821,-1.48 -4.98,-11.269 -7.202,-14.7 -0.757,-1.168 -1.617,-1.468 -2.924,-1.727 l -0.378,0.538 c -0.02,0.482 -0.005,1.181 -0.169,1.654 -0.746,2.152 -4.055,4.822 -6.073,5.66 -0.97,0.403 -1.821,0.463 -2.797,-0.005 -4.068,-1.951 -6.893,-9.083 -8.665,-12.939 -0.942,-2.051 -2.044,-4.207 -2.698,-6.369 l -0.16,-0.551 c -1.769,1.487 -3.553,3.022 -5.684,3.972 -2.244,1 -5.027,1.168 -7.313,0.227 -3.957,-1.628 -5.731,-5.483 -7.243,-9.179 -0.844,2.369 -1.476,4.157 -3.698,5.599 -2.711,1.76 -7.117,3.27 -10.328,2.474 -2.548,-0.632 -4.71,-3.818 -5.948,-5.95 -0.317,-0.544 -0.08,-0.298 -0.704,-0.658 l -0.264,1.177 0.047,0.481 c 0.677,6.235 4.782,12.774 7.808,18.192 l 9.511,16.088 c 11.323,17.354 25.076,35.703 28.496,56.64 1.665,10.191 1.288,20.629 0.865,30.891 l -0.471,14.826 c -0.118,3.307 -0.14,6.614 -0.886,9.857 -2.067,8.969 -8.76,16.463 -14.32,23.503 -4.667,5.909 -9.581,10.638 -14.884,15.916 -1.042,1.038 -2.606,3.312 -4,3.627 l -0.481,-0.69 -0.269,0.455 -0.391,0.442 c 0.008,-0.759 0.029,-1.482 -0.221,-2.212 -1.062,-3.106 -4.642,-5.169 -7.408,-6.59 l 2.091,-4.757 -1.347,-0.346 c 0.224,-1.598 0.873,-2.627 1.506,-4.073 4.741,-10.835 8.416,-21.155 11.115,-32.696 l 0.234,-1.396 c 0.473,-8.54 -2.342,-18.386 -4.693,-26.549 -1.915,-8.038 -4.389,-15.967 -6.968,-23.817 -2.044,-6.223 -4.286,-13.574 -8.166,-18.936 -3.535,-4.887 -8.674,-9.081 -13.462,-12.686 -3.773,-2.84 -10.476,-6.539 -12.605,-10.75 -1.362,-2.695 -1.691,-6.185 -2.145,-9.145 l -2.423,-15.888 c -0.609,-4.508 -1.881,-9.388 -1.728,-13.946 0.083,-2.51 0.783,-5.182 1.364,-7.622 l 0.38,-1.335 0.441,-0.629 1.011,-1.57 c 4.309,-6.021 16.5,-8.781 23.539,-9.794 l 1.9,1.457 c 1.604,0.963 3.085,1.925 4.932,2.351 0.927,-0.372 1.348,-0.77 2.035,-1.463 z"
       id="path241" />
    <path
       fill="url(#gradient_3)"
       transform="scale(0.666667)"
       d="m 205.044,312.751 c 1.527,1.334 2.421,3.182 3.536,4.852 1.313,1.966 2.783,3.845 4.271,5.68 3.812,4.703 8.158,8.932 11.877,13.723 7.927,10.214 12.95,23.579 15.798,36.104 0.907,3.117 1.818,6.667 3.425,9.508 0.879,1.555 2.209,2.885 3.193,4.395 1.553,2.382 2.272,5.068 2.634,7.862 l 0.089,0.656 c 0.698,5.626 -0.118,11.703 -0.479,17.344 -0.381,5.938 -0.726,11.873 -1.627,17.762 -0.334,2.187 -0.597,4.722 -1.332,6.801 -0.774,2.187 -2.574,4.364 -4.014,6.165 -4.016,5.023 -9.05,9.247 -12.831,14.451 -3.276,4.509 -5.306,9.696 -8.157,14.448 l -1.347,-0.346 c 0.224,-1.598 0.873,-2.627 1.506,-4.073 4.741,-10.835 8.416,-21.155 11.115,-32.696 l 0.234,-1.396 0.404,0.209 c 1.012,-2.076 1.155,-5.022 1.533,-7.298 l -0.178,-1.068 c -1.162,-5.08 -1.224,-10.399 -1.978,-15.567 -0.907,-6.207 -2.484,-12.186 -4.135,-18.228 -1.723,-6.311 -3.648,-12.985 -6.578,-18.84 -0.949,-2.027 -1.671,-4.202 -2.486,-6.289 -0.314,-0.806 -1.06,-2.152 -1.165,-2.972 -0.059,-0.463 0.819,-2.107 1.037,-2.572 0.746,-1.588 1.671,-2.902 2.132,-4.624 l 0.083,-0.331 -2.799,-5.52 -3.63,-5.976 c -2.657,2.857 -4.934,5.915 -7.132,9.133 -3.126,-2.234 -5.678,-5.614 -7.967,-8.656 -0.564,-0.75 -1.823,-2.326 -2.046,-3.212 -0.246,-0.982 -0.022,-2.817 -0.023,-3.891 -0.009,-7.523 1.172,-14.736 2.176,-22.164 -0.309,-0.495 -0.492,-0.82 -0.662,-1.386 2.313,0.01 3.478,-0.142 5.231,-1.718 z"
       id="path250"
       style="fill:url(#gradient_3)" />
    <path
       fill="url(#gradient_4)"
       transform="scale(0.666667)"
       d="m 221.604,356.411 6.555,12.143 c 2.071,2.859 3.656,6.229 5.407,9.312 2.476,4.362 11.478,18.507 10.769,23.166 -0.602,3.956 -3.049,8.047 -4.633,11.737 -1.986,4.624 -3.702,9.219 -4.83,14.133 l -0.178,-1.068 c -1.162,-5.08 -1.224,-10.399 -1.978,-15.567 -0.907,-6.207 -2.484,-12.186 -4.135,-18.228 -1.723,-6.311 -3.648,-12.985 -6.578,-18.84 -0.949,-2.027 -1.671,-4.202 -2.486,-6.289 -0.314,-0.806 -1.06,-2.152 -1.165,-2.972 -0.059,-0.463 0.819,-2.107 1.037,-2.572 0.746,-1.588 1.671,-2.902 2.132,-4.624 z"
       id="path259"
       style="fill:url(#gradient_4)" />
    <path
       fill="#ffffff"
       transform="scale(0.666667)"
       d="m 216.347,283.669 c 7.94,-4.911 21.854,-2.776 30.711,-1.448 2.526,0.401 5.451,0.627 7.865,1.467 3.42,1.189 6.886,4.191 10.092,6 l 14.834,7.521 c 5.896,3.345 11.684,8.171 15.692,13.666 2.906,3.986 3.946,8.797 6.224,13.093 l -6.758,1.452 c -1.964,0.771 -4.711,1.085 -6.819,1.19 -3.821,-1.48 -4.98,-11.269 -7.202,-14.7 -0.757,-1.168 -1.617,-1.468 -2.924,-1.727 l -0.378,0.538 c -0.02,0.482 -0.005,1.181 -0.169,1.654 -0.746,2.152 -4.055,4.822 -6.073,5.66 -0.97,0.403 -1.821,0.463 -2.797,-0.005 -4.068,-1.951 -6.893,-9.083 -8.665,-12.939 -0.942,-2.051 -2.044,-4.207 -2.698,-6.369 l -0.16,-0.551 c -1.769,1.487 -3.553,3.022 -5.684,3.972 -2.244,1 -5.027,1.168 -7.313,0.227 -3.957,-1.628 -5.731,-5.483 -7.243,-9.179 -0.844,2.369 -1.476,4.157 -3.698,5.599 -2.711,1.76 -7.117,3.27 -10.328,2.474 -2.548,-0.632 -4.71,-3.818 -5.948,-5.95 -0.317,-0.544 -0.08,-0.298 -0.704,-0.658 l -0.264,1.177 -0.297,0.445 c -1.034,1.517 -2.353,3.205 -4.331,3.418 l -5.769,-0.095 c -0.862,1.904 -2.739,6.506 -2.087,8.452 l 0.356,0.861 1.232,3.837 -0.292,0.27 c -1.753,1.576 -2.918,1.728 -5.231,1.718 0.17,0.566 0.353,0.891 0.662,1.386 -1.004,7.428 -2.185,14.641 -2.176,22.164 0.001,1.074 -0.223,2.909 0.023,3.891 0.223,0.886 1.482,2.462 2.046,3.212 2.289,3.042 4.841,6.422 7.967,8.656 2.198,-3.218 4.475,-6.276 7.132,-9.133 l 3.63,5.976 2.799,5.52 -0.083,0.331 c -0.461,1.722 -1.386,3.036 -2.132,4.624 -0.218,0.465 -1.096,2.109 -1.037,2.572 0.105,0.82 0.851,2.166 1.165,2.972 0.815,2.087 1.537,4.262 2.486,6.289 2.93,5.855 4.855,12.529 6.578,18.84 1.651,6.042 3.228,12.021 4.135,18.228 0.754,5.168 0.816,10.487 1.978,15.567 l 0.178,1.068 c -0.378,2.276 -0.521,5.222 -1.533,7.298 l -0.404,-0.209 c 0.473,-8.54 -2.342,-18.386 -4.693,-26.549 -1.915,-8.038 -4.389,-15.967 -6.968,-23.817 -2.044,-6.223 -4.286,-13.574 -8.166,-18.936 -3.535,-4.887 -8.674,-9.081 -13.462,-12.686 -3.773,-2.84 -10.476,-6.539 -12.605,-10.75 -1.362,-2.695 -1.691,-6.185 -2.145,-9.145 l -2.423,-15.888 c -0.609,-4.508 -1.881,-9.388 -1.728,-13.946 0.083,-2.51 0.783,-5.182 1.364,-7.622 l 0.38,-1.335 0.441,-0.629 1.011,-1.57 c 4.309,-6.021 16.5,-8.781 23.539,-9.794 l 1.9,1.457 c 1.604,0.963 3.085,1.925 4.932,2.351 0.927,-0.372 1.348,-0.77 2.035,-1.463 z"
       id="path261" />
    <path
       fill="#633b14"
       transform="scale(0.666667)"
       d="m 293.533,195.736 c 3.283,-1.167 6.803,-1.825 10.172,-2.722 l 24.42,-5.932 c 16.287,-3.574 32.387,-6.768 49.078,-7.681 9.942,-0.543 19.954,0.003 29.851,0.975 30.163,2.962 59.595,11.757 86.934,24.741 19.956,9.478 39.553,22.21 53.799,39.328 4.84,5.815 8.493,12.468 11.646,19.314 1.778,3.862 3.366,8.068 5.551,11.704 1.55,2.58 25.022,31.21 26.452,31.847 1.571,0.459 3.315,2.431 4.158,3.846 l 0.472,-0.094 1.59,-0.257 c 0.775,-0.155 1.416,-0.502 1.969,-1.055 l -0.005,-1.994 0.122,-0.051 c 0.461,0.561 0.176,0.301 0.894,0.738 2.362,-2.213 5.447,-3.883 8.203,-5.554 l 23.281,-12.912 c 2.661,-1.597 5.691,-3.252 7.947,-5.39 l 0.086,-0.311 35.419,-17.706 50.801,-26.174 7.078,17.984 c 2.557,5.393 4.39,11.307 6.264,16.975 7.624,23.063 12.691,46.918 15.444,71.044 0.517,4.53 1.324,9.29 1.264,13.841 l -0.235,3.146 c -6.724,2.316 -13.929,3.855 -20.813,5.651 l -62.593,15.471 -33.475,10.045 -13.256,4.414 c -1.432,0.465 -3.22,1.337 -4.676,1.557 -0.364,0.055 -0.877,0.075 -1.243,-0.066 l -0.516,-0.291 3.898,-6.784 c -1.465,-0.788 -4.689,0.059 -6.405,0.218 -5.041,0.465 -10.135,0.916 -15.202,0.869 l 2.124,13.578 c -1.773,-1.247 -3.479,-2.523 -5.013,-4.061 -3.406,-3.415 -6.467,-7.42 -10.153,-10.52 -1.064,-0.895 -1.92,-1.654 -3.353,-1.779 -0.793,2.144 5.321,17.532 6.163,21.069 -4.319,-3.195 -8.597,-6.154 -13.431,-8.541 l 25.285,44.329 c -9.503,-6.958 -20.739,-12.587 -31.227,-17.917 0.583,2.08 2.363,4.426 3.491,6.294 5.068,8.394 10.865,17.126 17.144,24.645 l -33.182,-2.288 14.335,32.701 -19.762,-0.25 -0.313,0.452 c -1.371,1.901 -2.299,1.768 -4.453,2.078 l -8.722,1.143 c 1.555,10.144 0.441,19.231 -0.981,29.294 -0.283,1.999 -0.3,4.753 -1.032,6.613 -1.212,3.079 -4.369,6.424 -6.232,9.261 -2.862,4.358 -5.465,8.897 -7.783,13.566 l -0.279,0.288 -78.398,84.506 c 0.525,-3.896 2.376,-15.146 -0.289,-18.304 -0.483,-0.573 -0.722,-0.52 -1.418,-0.749 l -0.394,-0.17 c 0.045,-1.707 1.415,-4.574 2.004,-6.195 4.711,-12.978 10.223,-25.252 17.274,-37.132 -0.743,-1.172 -2.007,-0.165 -3.181,-0.943 3.664,-7.798 8.978,-15.12 11.361,-23.439 -4.693,-4.747 -8.041,-10.293 -11.812,-15.772 -5.123,-7.442 -10.31,-15.027 -14.733,-22.913 -7.575,-13.507 -13.613,-28.079 -17.579,-43.042 l -7.021,-27.451 c -0.958,-3.636 -1.725,-7.825 -3.165,-11.296 l -0.625,0.392 c 0.514,10.125 -0.263,20.189 -0.368,30.306 l -0.05,7.839 c 0,0.514 0.16,2.015 0.009,2.438 -0.155,0.434 -0.601,0.7 -0.902,1.05 l 0.438,0.34 c -5.438,3.025 -9.632,11.065 -13.044,16.169 l -6.08,8.891 -3.313,5.404 c -0.285,0.465 -0.704,1.385 -1.125,1.666 l -0.604,0.192 -13.45,6.327 -0.056,-4.319 -2.332,-13.547 -5.61,-31.662 -12.482,-60.663 -5.102,-19.66 c -5.113,-16.546 -11.886,-31.986 -21.728,-46.263 -2.927,-4.244 -6.133,-8.896 -9.838,-12.472 -3.806,-5.432 -9.782,-10.326 -14.668,-14.824 -7.178,-6.608 -14.485,-12.152 -22.721,-17.381 -8.201,-5.206 -17.897,-10.697 -27.969,-10.201 -3.63,0.179 -5.97,-0.707 -9.277,-2.002 v -0.043 c -3.169,-1.943 -5.191,-4.042 -7.132,-7.181 1.462,-2.187 3.142,-4.082 5.518,-5.312 5.279,-2.733 11.696,-2.658 17.486,-2.649 l 18.747,0.589 c 5.33,0.249 12.098,0.788 16.813,-2.145 2.539,-1.579 4.316,-3.86 4.954,-6.796 1.965,-9.033 -7.012,-26.612 -11.93,-34.102 -2.48,-3.778 -5.636,-7.102 -7.857,-11.053 -3.441,-6.124 -5.432,-13.006 -9.376,-18.833 0.625,-0.801 0.745,-0.817 1.721,-1.136 3.76,0.743 7.564,1.99 11.226,3.146 2.239,0.707 4.72,1.703 7.078,1.706 z"
       id="path263" />
    <path
       fill="#603019"
       transform="scale(0.666667)"
       d="m 603.425,323.365 0.48,0.83 c -0.808,0.733 -1.269,1.088 -2.313,1.459 -5.727,2.033 -10.802,6.051 -16.594,7.691 -3.396,0.962 -6.593,2.033 -10.17,2.096 l 1.676,-2.509 c 1.617,0.091 4.947,-2.173 6.749,-2.847 z"
       id="path265" />
    <path
       fill="#985522"
       transform="scale(0.666667)"
       d="m 594.791,311.579 c 1.121,0.386 2.229,0.09 3.356,-0.263 7.998,-2.506 18.152,-2.238 26.507,-2.409 -1.038,1.835 -2.684,3.007 -4.256,4.368 -2.563,2.218 -4.948,4.571 -7.898,6.307 -2.228,1.311 -4.707,2.131 -7.132,2.991 -0.321,0.113 -1.887,0.575 -1.943,0.792 l -20.172,6.72 c -1.802,0.674 -5.132,2.938 -6.749,2.847 3.533,-4.425 7.628,-8.639 11.471,-12.814 2.427,-2.636 5.189,-5.307 6.816,-8.539 z"
       id="path267" />
    <path
       transform="scale(0.666667)"
       d="m 620.825,323.371 c 7.885,-0.014 14.228,2.264 20.036,7.59 -2.737,7.597 -8.475,12.783 -12.978,19.253 -3.104,4.459 -5.68,9.213 -8.978,13.545 2.201,-0.305 4.428,-1.063 6.584,-1.625 4.001,-1.044 7.291,-1.808 10.983,-3.773 -3.233,4.311 -6.508,11.565 -11.16,14.392 -3.215,1.955 -7.49,2.789 -11.099,3.687 -3.92,1.261 -8.016,1.852 -11.94,3.244 -3.051,1.083 -5.656,2.644 -8.412,4.317 -6.218,-7.847 -10.619,-18.866 -14.118,-28.247 4.072,-0.969 7.969,-2.258 11.487,-4.591 4.757,-3.152 8.403,-8.276 11.874,-12.725 2.862,-3.669 5.835,-7.203 9.167,-10.457 1.509,-1.473 3.305,-3.262 5.316,-4.012 0.991,-0.369 2.192,-0.467 3.238,-0.598 z"
       id="path269" />
    <path
       fill="#f29d00"
       transform="scale(0.666667)"
       d="m 726.373,240.396 7.078,17.984 c 2.557,5.393 4.39,11.307 6.264,16.975 7.624,23.063 12.691,46.918 15.444,71.044 0.517,4.53 1.324,9.29 1.264,13.841 l -0.235,3.146 c -6.724,2.316 -13.929,3.855 -20.813,5.651 l -62.593,15.471 -33.475,10.045 -13.256,4.414 c -1.432,0.465 -3.22,1.337 -4.676,1.557 -0.364,0.055 -0.877,0.075 -1.243,-0.066 l -0.516,-0.291 3.898,-6.784 c 2.062,-2.81 4.97,-5.099 7.424,-7.572 12.076,-12.175 19.603,-29.494 24.462,-45.711 1.59,-5.308 3.32,-11.15 3.26,-16.737 -0.037,-3.496 -1.01,-6.483 -3.631,-8.925 -7.657,-7.136 -20.711,-5.982 -30.375,-5.531 -8.355,0.171 -18.509,-0.097 -26.507,2.409 -1.127,0.353 -2.235,0.649 -3.356,0.263 l -0.339,-0.898 -3.016,-3.371 c 1.571,0.459 3.315,2.431 4.158,3.846 l 0.472,-0.094 1.59,-0.257 c 0.775,-0.155 1.416,-0.502 1.969,-1.055 l -0.005,-1.994 0.122,-0.051 c 0.461,0.561 0.176,0.301 0.894,0.738 2.362,-2.213 5.447,-3.883 8.203,-5.554 l 23.281,-12.912 c 2.661,-1.597 5.691,-3.252 7.947,-5.39 l 0.086,-0.311 35.419,-17.706 z"
       id="path271" />
    <path
       fill="#f4c354"
       transform="scale(0.666667)"
       d="m 726.373,240.396 7.078,17.984 c -1.658,1.573 -3.844,2.622 -5.815,3.762 l -10.94,6.082 -32.608,18.241 -22.766,12.811 c -5.296,3.002 -10.577,6.424 -16.336,8.469 0.009,-8.263 -2.403,-15.408 -4.919,-23.158 l 0.086,-0.311 35.419,-17.706 z"
       id="path273" />
    <path
       fill="#f4c354"
       transform="scale(0.666667)"
       d="m 387.685,314.577 c 6.638,-3.708 18.055,-4.063 25.466,-2.706 -1.744,2.294 -3.253,4.437 -5.393,6.381 11.859,-0.728 23.524,-3.296 35.488,-2.462 5.164,0.36 10.617,1.012 15.694,1.98 3.097,0.591 6.162,1.449 9.206,2.266 1.713,0.46 3.762,1.223 5.529,1.056 9.964,4.291 16.885,11.104 25.242,17.676 3.399,2.673 7.058,4.948 10.368,7.733 l -29.847,-8.283 -0.148,0.274 50.345,23.944 6.351,2.881 c 0.505,0.229 1.667,0.913 2.173,0.901 1.297,0.755 2.985,1.569 4.067,2.595 1.678,1.591 2.898,3.945 4.385,5.747 2.435,2.952 5.275,5.494 7.621,8.531 l -29.066,-12.574 25.134,24.814 c -2.553,-1.093 -5.226,-2.458 -7.911,-3.179 -3.806,-1.023 -7.756,-1.464 -11.477,-2.827 -6.17,-2.261 -12.201,-7.213 -17.537,-10.987 l -13.832,-9.737 c -0.575,-0.397 -0.253,-0.325 -0.977,-0.163 10.881,8.439 22.108,16.768 32.099,26.273 5.956,5.666 11.023,12.133 16.913,17.844 -7.606,-3.235 -15.498,-6.031 -22.81,-9.889 -10.105,-5.33 -19.239,-12.446 -28.456,-19.158 v 0.399 l 20.955,19.093 10.41,10.574 c 4.772,4.596 11.004,8.558 14.742,14.08 -3.257,-1.384 -6.641,-1.988 -9.874,-3.252 -2.746,-1.073 -5.247,-2.666 -8.008,-3.71 l 10.05,19.533 c -2.947,-2.22 -5.144,-4.87 -7.614,-7.577 -0.639,-0.701 -2.022,-2.612 -2.767,-2.967 l -32.018,-33.902 -0.376,0.046 c 10.26,11.891 18.246,24.829 26.542,38.084 l 10.577,20.449 c -8.562,-7.98 -17.991,-14.784 -26.814,-22.429 l -8.796,-8.112 c -1.311,-1.232 -2.684,-2.85 -4.231,-3.718 0.78,1.851 2.866,3.663 4.089,5.308 2.909,3.913 5.704,7.82 8.259,11.976 10.636,17.302 21.171,35.91 28.276,54.978 2.258,6.06 3.901,12.349 5.53,18.601 l -37.875,-42.579 c -0.867,7.817 1.686,15.647 1.889,23.375 l 11.214,49.346 c -11.614,-16 -21.449,-34.219 -30.15,-51.948 -0.416,8.135 -0.698,16.274 -1.785,24.355 l -7.045,38.488 c -4.693,-4.747 -8.041,-10.293 -11.812,-15.772 -5.123,-7.442 -10.31,-15.027 -14.733,-22.913 -7.575,-13.507 -13.613,-28.079 -17.579,-43.042 l -7.021,-27.451 c -0.958,-3.636 -1.725,-7.825 -3.165,-11.296 l -0.625,0.392 -0.044,0.006 -7.727,-55.798 -0.122,-0.583 c -1.046,-3.464 -6.055,-7.613 -8.573,-10.143 -9.366,-9.411 -19.024,-18.239 -29.539,-26.359 -6.554,-5.06 -12.785,-9.645 -20.12,-13.538 0.169,-0.667 2.952,-2.001 3.661,-2.278 7.642,-2.994 16.246,-4.38 24.282,-5.976 2.645,-0.525 7.357,-0.909 9.563,-2.309 z"
       id="path275" />
    <path
       fill="#eb960c"
       transform="scale(0.666667)"
       d="m 490.875,476.25 c 0.447,0.789 0.687,0.906 1.5,1.228 0.685,-0.357 1.196,-0.614 1.968,-0.707 l 0.338,0.611 c -0.458,0.735 -0.931,1.273 -1.549,1.878 l -0.483,-0.452 -0.267,0.451 c 0.437,0.933 0.843,1.872 1.432,2.721 0.604,0.871 0.993,1.824 1.561,2.708 l 2.719,4.593 0.281,-0.469 c -0.502,-1.108 -0.33,-1.974 -0.693,-3.035 -0.27,-0.792 -0.088,-1.582 -0.149,-2.402 l -0.224,-2.252 -0.151,-0.748 c -0.077,-0.577 -0.033,-1.116 -0.187,-1.691 -0.175,-0.651 -0.312,-1.022 -0.2,-1.707 l 0.104,-0.539 c 0.023,-1.271 0.078,-3.48 -0.184,-4.688 -0.163,-0.75 -0.337,-1.031 -0.283,-1.875 0.082,-1.281 0.258,-1.775 -0.523,-2.865 l -3.697,-5.76 c -0.39,-0.624 -0.578,-0.999 -1.16,-1.466 l -0.526,-0.411 -0.002,-0.561 -0.469,-0.468 c -1.165,-1.748 0.452,0.192 -0.605,-1.048 -0.356,-0.418 -0.701,-0.824 -0.988,-1.296 -0.642,-1.054 -1.564,-1.72 -2.174,-2.736 -0.882,-1.47 -2.637,-2.689 -3.848,-3.922 -0.427,-0.434 -0.411,-0.91 -0.843,-1.362 -5.297,-5.534 -10.841,-11.447 -16.611,-16.469 l -0.521,-0.449 0.371,-0.371 11.567,11.439 c 3.8,3.801 7.695,7.525 11.077,11.713 3.652,4.521 6.873,9.587 9.913,14.54 -0.867,7.817 1.686,15.647 1.889,23.375 -0.819,-0.446 -1.064,-0.807 -1.447,-1.618 -2.397,-5.078 -5.709,-9.798 -8.282,-14.814 -6.437,-12.55 -12.016,-25.448 -20.15,-37.074 -0.361,-0.516 -0.522,-0.661 -0.627,-1.283 0.744,0.426 0.57,0.202 0.982,0.849 l 7.266,11.994 2.418,4.217 c 0.981,1.469 1.484,3.148 2.451,4.599 2.571,3.856 4.254,8.508 6.281,12.674 0.486,1 1.182,3.052 2.08,3.688 l 0.293,0.147 z"
       id="path277" />
    <path
       fill="url(#gradient_5)"
       transform="scale(0.666667)"
       d="m 293.533,195.736 c 3.283,-1.167 6.803,-1.825 10.172,-2.722 l 24.42,-5.932 c 16.287,-3.574 32.387,-6.768 49.078,-7.681 9.942,-0.543 19.954,0.003 29.851,0.975 30.163,2.962 59.595,11.757 86.934,24.741 19.956,9.478 39.553,22.21 53.799,39.328 4.84,5.815 8.493,12.468 11.646,19.314 1.778,3.862 3.366,8.068 5.551,11.704 1.55,2.58 25.022,31.21 26.452,31.847 l 3.016,3.371 0.339,0.898 c -1.627,3.232 -4.389,5.903 -6.816,8.539 -3.843,4.175 -7.938,8.389 -11.471,12.814 l -1.676,2.509 c -3.912,0.841 -7.861,0.71 -11.712,1.464 -1.422,0.279 -4.757,1.82 -5.927,1.487 -2.486,-2.074 -4.29,-6.42 -6.159,-9.172 -2.457,-3.618 -5.243,-6.967 -7.505,-10.731 -0.87,-1.449 -1.834,-2.905 -2.568,-4.426 -0.632,-1.311 -0.938,-3.03 -2.089,-3.965 l -0.445,0.147 c -0.646,0.16 -0.83,0.105 -1.439,0.016 -0.74,-0.109 -1.272,-0.054 -1.998,0.127 -2.685,0.667 -5.216,1.849 -7.925,2.48 -1.027,0.24 -4.058,0.382 -4.743,0.891 3.373,3.6 6.533,7.553 9.222,11.695 3.346,5.155 6.282,11.024 10.681,15.378 -2.042,1.217 -4.177,2.445 -6.421,3.251 l 0.844,0.597 c 2.49,-0.656 4.506,-1.295 7.126,-1.259 5.154,4.747 8.794,10.4 9.345,17.562 l 0.081,0.365 c 0.666,2.801 2.24,5.424 4.161,7.543 0.846,0.933 2.184,1.984 2.683,3.126 -4.463,-1.92 -17.975,-8.019 -22.288,-6.765 0,0.611 -0.07,0.269 0.407,0.966 -0.506,0.012 -1.668,-0.672 -2.173,-0.901 l -6.351,-2.881 -50.345,-23.944 0.148,-0.274 29.847,8.283 c -3.31,-2.785 -6.969,-5.06 -10.368,-7.733 -8.357,-6.572 -15.278,-13.385 -25.242,-17.676 -1.767,0.167 -3.816,-0.596 -5.529,-1.056 -3.044,-0.817 -6.109,-1.675 -9.206,-2.266 -5.077,-0.968 -10.53,-1.62 -15.694,-1.98 -11.964,-0.834 -23.629,1.734 -35.488,2.462 2.14,-1.944 3.649,-4.087 5.393,-6.381 -7.411,-1.357 -18.828,-1.002 -25.466,2.706 l 0.253,0.362 c -2.206,1.4 -6.918,1.784 -9.563,2.309 -8.036,1.596 -16.64,2.982 -24.282,5.976 -0.709,0.277 -3.492,1.611 -3.661,2.278 7.335,3.893 13.566,8.478 20.12,13.538 10.515,8.12 20.173,16.948 29.539,26.359 2.518,2.53 7.527,6.679 8.573,10.143 l 0.122,0.583 7.727,55.798 0.044,-0.006 c 0.514,10.125 -0.263,20.189 -0.368,30.306 l -0.05,7.839 c 0,0.514 0.16,2.015 0.009,2.438 -0.155,0.434 -0.601,0.7 -0.902,1.05 l 0.438,0.34 c -5.438,3.025 -9.632,11.065 -13.044,16.169 l -6.08,8.891 -3.313,5.404 c -0.285,0.465 -0.704,1.385 -1.125,1.666 l -0.604,0.192 -13.45,6.327 -0.056,-4.319 -2.332,-13.547 -5.61,-31.662 -12.482,-60.663 -5.102,-19.66 c -5.113,-16.546 -11.886,-31.986 -21.728,-46.263 -2.927,-4.244 -6.133,-8.896 -9.838,-12.472 -3.806,-5.432 -9.782,-10.326 -14.668,-14.824 -7.178,-6.608 -14.485,-12.152 -22.721,-17.381 -8.201,-5.206 -17.897,-10.697 -27.969,-10.201 -3.63,0.179 -5.97,-0.707 -9.277,-2.002 v -0.043 c -3.169,-1.943 -5.191,-4.042 -7.132,-7.181 1.462,-2.187 3.142,-4.082 5.518,-5.312 5.279,-2.733 11.696,-2.658 17.486,-2.649 l 18.747,0.589 c 5.33,0.249 12.098,0.788 16.813,-2.145 2.539,-1.579 4.316,-3.86 4.954,-6.796 1.965,-9.033 -7.012,-26.612 -11.93,-34.102 -2.48,-3.778 -5.636,-7.102 -7.857,-11.053 -3.441,-6.124 -5.432,-13.006 -9.376,-18.833 0.625,-0.801 0.745,-0.817 1.721,-1.136 3.76,0.743 7.564,1.99 11.226,3.146 2.239,0.707 4.72,1.703 7.078,1.706 z"
       id="path286"
       style="fill:url(#gradient_5)" />
    <path
       fill="#eb960c"
       transform="scale(0.666667)"
       d="m 352.674,215.438 0.564,-0.224 c 0.38,0.643 0.766,1.042 1.324,1.536 0.778,-0.333 1.134,-0.183 1.876,-0.375 0.759,-0.197 0.872,-0.311 1.676,-0.281 -0.417,0.222 -0.738,0.349 -1.204,0.451 l -14.48,4.339 c -1.601,0.576 -3.621,1.686 -5.303,1.734 v -0.241 l 1.578,-0.796 z"
       id="path288" />
    <path
       fill="#eb960c"
       transform="scale(0.666667)"
       d="m 378.012,508.22 c 9.805,-9.445 18.456,-19.995 27.654,-30.005 l 4.197,-4.729 c 0.925,-1.118 1.331,-2.029 2.508,-2.963 0.875,1.682 1.032,2.318 2.875,3.027 l 0.438,0.34 c -5.438,3.025 -9.632,11.065 -13.044,16.169 l -6.08,8.891 -3.313,5.404 c -0.285,0.465 -0.704,1.385 -1.125,1.666 l -0.604,0.192 -13.45,6.327 z"
       id="path290" />
    <path
       fill="url(#gradient_6)"
       transform="scale(0.666667)"
       d="m 381.781,210.775 -0.287,0.65 c 1.396,0.755 4.246,0.295 5.808,0.106 5.695,-0.688 11.545,-2.032 17.12,-3.385 4.141,-1.006 9.334,-2.924 13.604,-2.732 -1.907,1.899 -3.836,3.669 -5.948,5.339 -1.6,1.265 -3.606,2.486 -4.88,4.079 l -0.626,-0.819 0.305,-0.636 0.561,-0.002 0.468,-0.469 c 1.474,-0.982 -0.109,0.49 1.16,-0.779 0.55,-0.55 0.395,-0.464 0.957,-0.838 l 1.352,-0.914 0.563,-0.375 0.843,-0.844 c 1.259,-0.809 2.079,-1.677 3.141,-2.765 -2.205,-0.344 -6.395,1.11 -8.664,1.748 -1.016,0.285 -1.875,0.789 -2.96,0.789 -0.777,-0.001 -0.406,-0.142 -0.986,0.255 l 1.097,0.975 -0.498,1.163 h -0.928 c -2.811,1.129 -5.396,2.901 -8.008,4.427 l -10.66,6.061 -7.058,2.811 c -5.312,0.115 -11.66,1.951 -16.821,3.332 l 7.904,-8.535 c 3.925,-4.714 6.957,-8.051 13.441,-8.642 z"
       id="path299"
       style="fill:url(#gradient_6)" />
    <path
       transform="scale(0.666667)"
       d="m 377.257,224.62 c -0.756,-0.291 -1,-0.244 -1.474,-0.932 l 1.515,-1.876 c 5.428,-5.571 11.19,-7.622 18.556,-9.542 2.214,-0.577 4.613,-1.392 6.896,-1.458 l 0.233,0.509 c -2.811,1.129 -5.396,2.901 -8.008,4.427 l -10.66,6.061 z"
       id="path301" />
    <path
       fill="url(#gradient_7)"
       transform="scale(0.666667)"
       d="m 402.983,211.321 h 0.928 l 0.498,-1.163 -1.097,-0.975 c 0.58,-0.397 0.209,-0.256 0.986,-0.255 1.085,0 1.944,-0.504 2.96,-0.789 2.269,-0.638 6.459,-2.092 8.664,-1.748 -1.062,1.088 -1.882,1.956 -3.141,2.765 l -0.843,0.844 -0.563,0.375 -1.352,0.914 c -0.562,0.374 -0.407,0.288 -0.957,0.838 -1.269,1.269 0.314,-0.203 -1.16,0.779 l -0.468,0.469 -0.561,0.002 -0.305,0.636 0.626,0.819 c 7.53,-2.153 15.552,-2.698 23.302,-3.685 3.41,-0.434 6.903,-1.205 10.303,-1.488 -5.296,3.565 -9.264,7.311 -13.526,12.056 l -1.086,0.847 0.186,0.534 c 0.66,0 0.09,0.03 0.887,-0.126 0.778,-0.151 0.412,-0.12 1.1,0.039 1.139,0.262 2.493,-0.061 3.652,-0.2 2.279,-0.274 4.599,-0.557 6.894,-0.595 3.12,0.689 7.699,2.694 10.233,4.599 l 0.17,0.318 c 0.642,1.143 1.217,1.629 2.269,2.371 2.614,1.844 5.057,4.123 7.457,6.237 2.64,2.326 5.294,4.774 7.147,7.804 3.692,6.038 4.503,13.329 6.942,19.893 -7.33,-4.203 -13.558,-8.866 -19.396,-15.046 -2.58,-2.731 -4.797,-5.794 -7.085,-8.767 -1.808,-2.349 -3.943,-5.175 -6.634,-6.534 -4.72,-2.386 -10.033,-1.931 -15.138,-1.793 l -0.647,0.374 c -5.432,0.619 -10.375,1.848 -15.414,3.98 l -3.58,2.651 c -7.743,5.425 -13.943,13.152 -20.022,20.335 -3.318,3.92 -5.967,7.946 -10.437,10.678 -2.812,-1.798 -5.497,-4.532 -7.073,-7.496 l -0.975,-1.742 c 2.12,-1.29 4.462,-2.534 6.36,-4.138 4.683,-3.96 7.997,-9.38 12.55,-13.517 3.962,-3.6 8.984,-6.155 13.725,-8.562 0.499,-0.47 0.979,-0.813 1.544,-1.186 1.452,-0.959 3.356,-2.552 3.693,-4.298 -0.249,-1.143 -1.263,-1.952 -2.229,-2.541 -2.666,-1.626 -5.342,-1.628 -8.23,-0.795 -0.679,0.196 -0.803,0.286 -1.515,0.149 0.569,-0.373 0.856,-0.493 1.553,-0.592 l 0.603,-0.065 -0.05,-1.212 c -0.278,-1.051 -1.728,-1.602 -2.66,-1.924 l -0.678,-0.228 -0.525,-1.243 -0.867,-0.348 c -0.724,0.313 -1.469,0.602 -2.122,1.049 -1.04,0.711 -1.839,0.897 -3.086,1.108 l -0.478,0.076 10.66,-6.061 c 2.612,-1.526 5.197,-3.298 8.008,-4.427 z"
       id="path310"
       style="fill:url(#gradient_7)" />
    <path
       fill="url(#gradient_8)"
       transform="scale(0.666667)"
       d="m 405.234,238.301 c 2.13,0.377 3.324,-0.582 5.204,-1.258 1.527,-0.55 3.295,-0.928 4.893,-1.201 5.295,-0.907 11.958,-0.641 17.18,0.535 7.465,3.727 10.622,10.905 15.519,17.216 3.254,4.195 7.734,7.163 11.039,11.284 5.443,6.787 9.022,15.624 12.757,23.424 2.833,5.918 6.073,11.97 8.187,18.179 0.399,1.171 0.658,2.283 0.749,3.514 -4.858,-2.644 -11.345,-2.774 -16.738,-2.911 l -25.085,0.161 c -12.902,0.24 -26.785,1.727 -37.919,-6.204 -7.874,-5.61 -14.505,-15.196 -19.924,-23.167 -1.689,-2.486 -3.557,-6.203 -5.826,-8.153 l -0.495,-0.406 c 4.47,-2.732 7.119,-6.758 10.437,-10.678 6.079,-7.183 12.279,-14.91 20.022,-20.335 z"
       id="path319"
       style="fill:url(#gradient_8)" />
    <path
       fill="#ffffff"
       transform="scale(0.666667)"
       d="m 419.515,245.42 4.235,0.17 c 6.033,0.457 11.746,3.227 15.701,7.818 6.037,7.008 9.043,17.57 8.365,26.717 -0.286,3.862 -1.255,7.054 -4.237,9.678 -6.925,6.097 -17.144,7.162 -25.921,6.657 -7.196,-0.534 -15.151,-3.122 -20.644,-7.915 -3.998,-3.489 -9.173,-10.134 -9.364,-15.641 -0.183,-5.271 3.632,-11.102 7.038,-14.877 6.995,-7.754 14.347,-12 24.827,-12.607 z"
       id="path321" />
    <path
       fill="#985522"
       transform="scale(0.666667)"
       d="m 436.588,256.944 c 3.852,3.136 6.716,6.949 7.298,12.028 0.666,5.815 -0.871,12.686 -4.539,17.273 -3.378,4.225 -8.498,6.967 -13.883,7.441 -8.839,0.777 -18.597,-1.39 -25.459,-7.259 -2.825,-2.416 -4.579,-4.848 -4.915,-8.639 1.495,1.378 2.399,3.122 3.814,4.537 4.122,4.124 10.4,6.563 15.998,7.766 5.188,1.115 11.415,1.55 16.018,-1.53 4.592,-3.071 7.569,-8.454 8.588,-13.813 l 0.112,-0.623 0.188,-1.09 c 0.591,-4.575 0.086,-10.428 -2.863,-14.145 -0.428,-0.54 -0.315,-1.263 -0.357,-1.946 z"
       id="path323" />
    <path
       transform="scale(0.666667)"
       d="m 395.09,277.788 -0.587,-3.258 c -0.463,-3.959 1.689,-7.993 4.141,-10.985 3.481,-4.25 7.668,-6.968 12.694,-9.032 1.612,-0.662 3.318,-1.399 5.078,-1.506 7.797,-0.475 13.572,-1.103 20.172,3.937 0.042,0.683 -0.071,1.406 0.357,1.946 2.949,3.717 3.454,9.57 2.863,14.145 l -0.188,1.09 -0.112,0.623 c -1.019,5.359 -3.996,10.742 -8.588,13.813 -4.603,3.08 -10.83,2.645 -16.018,1.53 -5.598,-1.203 -11.876,-3.642 -15.998,-7.766 -1.415,-1.415 -2.319,-3.159 -3.814,-4.537 z"
       id="path325" />
    <path
       fill="#ffffff"
       transform="scale(0.666667)"
       d="m 412.732,259.474 c 1.212,-0.035 2.284,0.109 3.401,0.597 2.399,1.048 4.632,3.147 5.486,5.656 0.655,1.921 0.308,4.114 -0.667,5.87 -1.497,2.697 -4.357,3.803 -7.122,4.672 -1.455,0.099 -2.945,-0.004 -4.342,-0.451 -1.872,-0.598 -3.424,-1.684 -4.237,-3.509 -0.934,-2.1 -0.834,-4.531 0.072,-6.621 1.494,-3.448 4.115,-4.859 7.409,-6.214 z"
       id="path327" />
    <path
       fill="#fde790"
       transform="scale(0.666667)"
       d="m 412.371,470.523 c 0.029,-0.88 -0.488,-1.69 -0.881,-2.465 l -8.349,-14.739 -14.501,-27.357 c -4.648,-8.867 -9.446,-17.576 -13.318,-26.83 l -17.925,-48.133 c -2.717,-7.644 -4.957,-16.433 -8.876,-23.518 -1.183,-2.14 -2.832,-4.017 -4.222,-6.024 l -7.379,-10.558 -18.884,-26.274 c -3.668,-4.984 -7.833,-10.072 -10.767,-15.518 l 22.543,12.495 32.762,18.812 c 8.112,4.759 16.298,10.895 25.111,14.163 l 0.253,0.362 c -2.206,1.4 -6.918,1.784 -9.563,2.309 -8.036,1.596 -16.64,2.982 -24.282,5.976 -0.709,0.277 -3.492,1.611 -3.661,2.278 7.335,3.893 13.566,8.478 20.12,13.538 10.515,8.12 20.173,16.948 29.539,26.359 2.518,2.53 7.527,6.679 8.573,10.143 l 0.122,0.583 7.727,55.798 0.044,-0.006 c 0.514,10.125 -0.263,20.189 -0.368,30.306 l -0.05,7.839 c 0,0.514 0.16,2.015 0.009,2.438 -0.155,0.434 -0.601,0.7 -0.902,1.05 -1.843,-0.709 -2,-1.345 -2.875,-3.027 z"
       id="path329" />
    <path
       fill="#de7607"
       transform="scale(0.666667)"
       d="m 449.143,226.813 c 8.712,2.857 18.216,7.768 25.202,13.741 4.921,4.207 9.209,9.198 13.614,13.928 l 15.105,16.879 c 4.299,5.167 8.23,10.358 12.951,15.18 -3.14,-0.385 -6.056,-0.364 -9.2,-0.025 l 0.387,0.202 c 4.831,2.575 8.993,6.58 13.178,10.062 5.822,4.845 11.902,9.556 18.488,13.318 l -0.445,0.147 c -0.646,0.16 -0.83,0.105 -1.439,0.016 -0.74,-0.109 -1.272,-0.054 -1.998,0.127 -2.685,0.667 -5.216,1.849 -7.925,2.48 -1.027,0.24 -4.058,0.382 -4.743,0.891 3.373,3.6 6.533,7.553 9.222,11.695 3.346,5.155 6.282,11.024 10.681,15.378 -2.042,1.217 -4.177,2.445 -6.421,3.251 l 0.844,0.597 c 2.49,-0.656 4.506,-1.295 7.126,-1.259 5.154,4.747 8.794,10.4 9.345,17.562 l 0.081,0.365 c 0.666,2.801 2.24,5.424 4.161,7.543 0.846,0.933 2.184,1.984 2.683,3.126 -4.463,-1.92 -17.975,-8.019 -22.288,-6.765 0,0.611 -0.07,0.269 0.407,0.966 -0.506,0.012 -1.668,-0.672 -2.173,-0.901 l -6.351,-2.881 -50.345,-23.944 0.148,-0.274 29.847,8.283 c -3.31,-2.785 -6.969,-5.06 -10.368,-7.733 -8.357,-6.572 -15.278,-13.385 -25.242,-17.676 l -0.101,-0.157 17.972,-2.331 c -3.147,-1.802 -8.639,-5.29 -10.602,-8.275 l -0.182,-0.335 c -0.091,-1.231 -0.35,-2.343 -0.749,-3.514 -2.114,-6.209 -5.354,-12.261 -8.187,-18.179 -3.735,-7.8 -7.314,-16.637 -12.757,-23.424 -3.305,-4.121 -7.785,-7.089 -11.039,-11.284 -4.897,-6.311 -8.054,-13.489 -15.519,-17.216 -5.222,-1.176 -11.885,-1.442 -17.18,-0.535 -1.598,0.273 -3.366,0.651 -4.893,1.201 -1.88,0.676 -3.074,1.635 -5.204,1.258 l 3.58,-2.651 c 5.039,-2.132 9.982,-3.361 15.414,-3.98 l 0.647,-0.374 c 5.105,-0.138 10.418,-0.593 15.138,1.793 2.691,1.359 4.826,4.185 6.634,6.534 2.288,2.973 4.505,6.036 7.085,8.767 5.838,6.18 12.066,10.843 19.396,15.046 -2.439,-6.564 -3.25,-13.855 -6.942,-19.893 -1.853,-3.03 -4.507,-5.478 -7.147,-7.804 -2.4,-2.114 -4.843,-4.393 -7.457,-6.237 -1.052,-0.742 -1.627,-1.228 -2.269,-2.371 z"
       id="path331" />
    <path
       fill="#633b14"
       transform="scale(0.666667)"
       d="m 424.228,231.67 2.673,0.171 c -1.318,0.7 -4.132,0.327 -5.828,0.858 -0.841,0.263 -1.604,0.151 -2.443,0.306 -1.122,0.206 -2.231,0.684 -3.363,0.935 l -0.644,0.641 c 1.141,0.525 2.279,0.39 3.502,0.357 l 0.375,-0.372 3.375,0.092 0.504,0.006 c 2.182,0 3.931,-0.245 6.059,0.277 l 2.437,0.092 c 0.594,0.433 1.111,0.824 1.636,1.344 -5.222,-1.176 -11.885,-1.442 -17.18,-0.535 -1.598,0.273 -3.366,0.651 -4.893,1.201 -1.88,0.676 -3.074,1.635 -5.204,1.258 l 3.58,-2.651 c 5.039,-2.132 9.982,-3.361 15.414,-3.98 z"
       id="path333" />
    <path
       fill="#ad5a04"
       transform="scale(0.666667)"
       d="m 535.8,344.083 0.844,0.597 c 2.49,-0.656 4.506,-1.295 7.126,-1.259 5.154,4.747 8.794,10.4 9.345,17.562 l -0.492,-0.217 -0.248,0.172 c -0.88,-0.015 -1.351,-0.391 -2.053,-0.861 l -0.384,-0.261 -11.317,-7.817 c -3,-2.126 -5.847,-4.281 -9.265,-5.698 1.97,-0.716 4.414,-1.87 6.444,-2.218 z"
       id="path335" />
    <path
       fill="#102136"
       transform="scale(0.666667)"
       d="m 293.533,195.736 c 3.283,-1.167 6.803,-1.825 10.172,-2.722 l 24.42,-5.932 c 16.287,-3.574 32.387,-6.768 49.078,-7.681 9.942,-0.543 19.954,0.003 29.851,0.975 30.163,2.962 59.595,11.757 86.934,24.741 19.956,9.478 39.553,22.21 53.799,39.328 4.84,5.815 8.493,12.468 11.646,19.314 1.778,3.862 3.366,8.068 5.551,11.704 1.55,2.58 25.022,31.21 26.452,31.847 l 3.016,3.371 0.339,0.898 c -1.627,3.232 -4.389,5.903 -6.816,8.539 -3.843,4.175 -7.938,8.389 -11.471,12.814 l -1.676,2.509 c -3.912,0.841 -7.861,0.71 -11.712,1.464 -1.422,0.279 -4.757,1.82 -5.927,1.487 -2.486,-2.074 -4.29,-6.42 -6.159,-9.172 -2.457,-3.618 -5.243,-6.967 -7.505,-10.731 -0.87,-1.449 -1.834,-2.905 -2.568,-4.426 -0.632,-1.311 -0.938,-3.03 -2.089,-3.965 -6.586,-3.762 -12.666,-8.473 -18.488,-13.318 -4.185,-3.482 -8.347,-7.487 -13.178,-10.062 l -0.387,-0.202 c 3.144,-0.339 6.06,-0.36 9.2,0.025 -4.721,-4.822 -8.652,-10.013 -12.951,-15.18 l -15.105,-16.879 c -4.405,-4.73 -8.693,-9.721 -13.614,-13.928 -6.986,-5.973 -16.49,-10.884 -25.202,-13.741 -2.534,-1.905 -7.113,-3.91 -10.233,-4.599 -2.295,0.038 -4.615,0.321 -6.894,0.595 -1.159,0.139 -2.513,0.462 -3.652,0.2 -0.688,-0.159 -0.322,-0.19 -1.1,-0.039 -0.797,0.156 -0.227,0.126 -0.887,0.126 l -0.186,-0.534 1.086,-0.847 c 4.262,-4.745 8.23,-8.491 13.526,-12.056 -3.4,0.283 -6.893,1.054 -10.303,1.488 -7.75,0.987 -15.772,1.532 -23.302,3.685 1.274,-1.593 3.28,-2.814 4.88,-4.079 2.112,-1.67 4.041,-3.44 5.948,-5.339 -4.27,-0.192 -9.463,1.726 -13.604,2.732 -5.575,1.353 -11.425,2.697 -17.12,3.385 -1.562,0.189 -4.412,0.649 -5.808,-0.106 l 0.287,-0.65 c 0.595,-0.11 1.033,-0.333 1.579,-0.587 -0.099,-0.167 -0.133,-0.397 -0.298,-0.501 -1.387,-0.876 -20.452,2.9 -23.651,3.309 -2.536,0.325 -5.052,0.465 -7.608,0.426 -4.692,-0.073 -9.426,-0.632 -14.108,-0.968 -4.768,-0.342 -10.149,-0.2 -14.668,-1.868 -5.181,-1.913 -10.154,-5.396 -15.07,-7.972 -4.395,-2.304 -9.27,-5.347 -14.027,-6.767 z"
       id="path337" />
    <path
       fill="#de7607"
       transform="scale(0.666667)"
       d="m 427.277,221.715 23.733,-7.037 c -3.869,2.339 -8.875,3.854 -12.043,7.193 l -0.057,0.343 c -2.295,0.038 -4.615,0.321 -6.894,0.595 -1.159,0.139 -2.513,0.462 -3.652,0.2 -0.688,-0.159 -0.322,-0.19 -1.1,-0.039 -0.797,0.156 -0.227,0.126 -0.887,0.126 l -0.186,-0.534 z"
       id="path339" />
    <path
       transform="scale(0.666667)"
       d="m 594.452,310.681 0.339,0.898 c -1.627,3.232 -4.389,5.903 -6.816,8.539 -3.843,4.175 -7.938,8.389 -11.471,12.814 l -1.676,2.509 c -3.912,0.841 -7.861,0.71 -11.712,1.464 -1.422,0.279 -4.757,1.82 -5.927,1.487 0.609,-0.5 0.391,-0.25 0.807,-0.841 1.994,-2.832 4.513,-5.234 6.894,-7.739 2.849,-2.997 5.607,-6.007 8.949,-8.479 6.147,-4.547 13.203,-6.974 19.96,-10.325 z"
       id="path341" />
    <path
       fill="#de7607"
       transform="scale(0.666667)"
       d="m 41.267,238.033 c 5.0869,-12.049 10.8079,-24.03 17.4474,-35.311 5.5918,-9.501 11.9978,-18.638 18.4049,-27.602 12.13,-16.972 25.2617,-32.879 40.2447,-47.435 l 15.011,-13.316 c 16.63,-14.4287 33.985,-27.4691 52.5,-39.3826 l 20.25,-12.7419 c 12.633,-7.2686 26.006,-13.6366 39.504,-19.1241 32.657,-13.2772 66.501,-22.0655 101.484,-26.2638 15.653,-1.8785 31.254,-3.0372 47.033,-2.5139 15.01,0.4979 29.823,2.5996 44.642,4.9198 28.813,4.511 57.912,12.5437 84.799,23.9354 10.962,4.6445 22.002,9.3883 32.535,14.9482 17.259,9.1106 33.58,19.5761 49.39,30.9813 7.842,5.6571 15.681,11.3736 23.056,17.6356 l 17.06,15.877 c 17.544,17.013 33.407,35.297 47.422,55.312 13.383,19.11 24.92,39.177 33.666,60.842 l 0.657,1.602 -50.801,26.174 -35.419,17.706 -0.086,0.311 c -2.256,2.138 -5.286,3.793 -7.947,5.39 l -23.281,12.912 c -2.756,1.671 -5.841,3.341 -8.203,5.554 -0.718,-0.437 -0.433,-0.177 -0.894,-0.738 l -0.122,0.051 0.005,1.994 c -0.553,0.553 -1.194,0.9 -1.969,1.055 l -1.59,0.257 -0.472,0.094 c -0.843,-1.415 -2.587,-3.387 -4.158,-3.846 -1.43,-0.637 -24.902,-29.267 -26.452,-31.847 -2.185,-3.636 -3.773,-7.842 -5.551,-11.704 -3.153,-6.846 -6.806,-13.499 -11.646,-19.314 -14.246,-17.118 -33.843,-29.85 -53.799,-39.328 -27.339,-12.984 -56.771,-21.779 -86.934,-24.741 -9.897,-0.972 -19.909,-1.518 -29.851,-0.975 -16.691,0.913 -32.791,4.107 -49.078,7.681 l -24.42,5.932 c -3.369,0.897 -6.889,1.555 -10.172,2.722 -2.358,-0.003 -4.839,-0.999 -7.078,-1.706 -3.662,-1.156 -7.466,-2.403 -11.226,-3.146 -0.976,0.319 -1.096,0.335 -1.721,1.136 3.944,5.827 5.935,12.709 9.376,18.833 2.221,3.951 5.377,7.275 7.857,11.053 4.918,7.49 13.895,25.069 11.93,34.102 -0.638,2.936 -2.415,5.217 -4.954,6.796 -4.715,2.933 -11.483,2.394 -16.813,2.145 l -18.747,-0.589 c -5.79,-0.009 -12.207,-0.084 -17.486,2.649 -2.376,1.23 -4.056,3.125 -5.518,5.312 1.941,3.139 3.963,5.238 7.132,7.181 v 0.043 c 0.459,0.625 0.631,1.161 1.402,1.347 0.533,0.128 0.853,0.268 1.313,0.546 -0.871,0.174 -0.899,0.206 -1.688,-0.188 -0.286,0.539 -0.175,0.224 -0.254,0.971 -8.857,-1.328 -22.771,-3.463 -30.711,1.448 -0.687,0.693 -1.108,1.091 -2.035,1.463 -1.847,-0.426 -3.328,-1.388 -4.932,-2.351 l -1.9,-1.457 c -7.039,1.013 -19.23,3.773 -23.539,9.794 l -1.011,1.57 -0.441,0.629 -0.38,1.335 c -0.581,2.44 -1.281,5.112 -1.364,7.622 -0.153,4.558 1.119,9.438 1.728,13.946 -0.414,0.751 -0.16,0.523 -0.702,0.884 -3.292,2.194 -5.221,7.529 -6.987,10.976 -6.749,13.176 -12.438,26.759 -17.684,40.594 -3.149,-1.952 -6.825,-3.294 -10.212,-4.809 l -17.463,-7.929 c -4.042,-1.871 -10.111,-3.961 -12.646,-7.722 -3.576,-5.306 4.631,-30.953 6.136,-37.777 2.418,-8.01 5.128,-16.573 8.921,-24.015 -0.764,-1.04 -32.547,-16.288 -37.0201,-19.191 z"
       id="path343" />
    <path
       fill="#eb960c"
       transform="scale(0.666667)"
       d="m 94.8159,267.231 c 1.0414,-1.516 1.7799,-3.319 2.6633,-4.942 l 6.8598,-12.955 15.082,-25.477 c 10.431,-16.157 22.199,-30.928 35.004,-45.242 17.46,-19.519 36.181,-37.064 57.436,-52.427 12.18,-8.805 25.103,-16.523 38.211,-23.856 9.926,-5.5523 20.474,-9.9127 31.082,-13.9645 56.463,-21.5659 118.561,-25.9971 176.897,-9.2772 22.187,6.3591 43.079,15.6753 63.299,26.7077 18.677,10.19 36.781,21.918 53.21,35.484 14.501,11.973 27.642,25.337 40.381,39.136 l 19.193,21.624 c 7.267,8.918 14.016,18.472 20.41,28.037 l 9.853,16.335 6.973,11.935 4.202,8.221 -35.419,17.706 c -0.783,-3.03 -2.24,-5.951 -3.455,-8.834 -3.649,-8.657 -7.93,-17.209 -12.728,-25.28 -5.26,-8.85 -10.739,-17.589 -16.94,-25.818 -6.371,-8.457 -13.409,-16.246 -20.493,-24.101 -15.181,-16.833 -31.711,-32.322 -50.088,-45.643 -9.462,-6.86 -19.606,-13.049 -29.679,-18.971 -37.572,-22.088 -83.144,-33.403 -126.708,-32.357 -19.536,0.469 -39.66,3.548 -58.559,8.525 -45.773,12.052 -86.642,36.661 -119.733,70.354 -6.836,6.961 -12.99,14.342 -19.235,21.821 -5.025,6.018 -10.582,11.637 -15.156,18.005 -7.658,10.662 -14.439,22.442 -21.042,33.798 -3.012,5.181 -5.546,10.552 -8.116,15.957 -2.166,4.556 -4.486,9.25 -6.143,14.018 l -0.242,0.672 c -0.764,-1.04 -32.547,-16.288 -37.0201,-19.191 z"
       id="path345" />
    <path
       fill="url(#gradient_9)"
       transform="scale(0.666667)"
       d="m 131.836,286.422 0.242,-0.672 c 1.657,-4.768 3.977,-9.462 6.143,-14.018 2.57,-5.405 5.104,-10.776 8.116,-15.957 6.603,-11.356 13.384,-23.136 21.042,-33.798 4.574,-6.368 10.131,-11.987 15.156,-18.005 6.245,-7.479 12.399,-14.86 19.235,-21.821 33.091,-33.693 73.96,-58.302 119.733,-70.354 18.899,-4.977 39.023,-8.056 58.559,-8.525 43.564,-1.046 89.136,10.269 126.708,32.357 10.073,5.922 20.217,12.111 29.679,18.971 18.377,13.321 34.907,28.81 50.088,45.643 7.084,7.855 14.122,15.644 20.493,24.101 6.201,8.229 11.68,16.968 16.94,25.818 4.798,8.071 9.079,16.623 12.728,25.28 1.215,2.883 2.672,5.804 3.455,8.834 l -0.086,0.311 c -2.256,2.138 -5.286,3.793 -7.947,5.39 l -23.281,12.912 c -2.756,1.671 -5.841,3.341 -8.203,5.554 -0.718,-0.437 -0.433,-0.177 -0.894,-0.738 l -0.122,0.051 0.005,1.994 c -0.553,0.553 -1.194,0.9 -1.969,1.055 l -1.59,0.257 -0.472,0.094 c -0.843,-1.415 -2.587,-3.387 -4.158,-3.846 -1.43,-0.637 -24.902,-29.267 -26.452,-31.847 -2.185,-3.636 -3.773,-7.842 -5.551,-11.704 -3.153,-6.846 -6.806,-13.499 -11.646,-19.314 -14.246,-17.118 -33.843,-29.85 -53.799,-39.328 -27.339,-12.984 -56.771,-21.779 -86.934,-24.741 -9.897,-0.972 -19.909,-1.518 -29.851,-0.975 -16.691,0.913 -32.791,4.107 -49.078,7.681 l -24.42,5.932 c -3.369,0.897 -6.889,1.555 -10.172,2.722 -2.358,-0.003 -4.839,-0.999 -7.078,-1.706 -3.662,-1.156 -7.466,-2.403 -11.226,-3.146 -0.976,0.319 -1.096,0.335 -1.721,1.136 3.944,5.827 5.935,12.709 9.376,18.833 2.221,3.951 5.377,7.275 7.857,11.053 4.918,7.49 13.895,25.069 11.93,34.102 -0.638,2.936 -2.415,5.217 -4.954,6.796 -4.715,2.933 -11.483,2.394 -16.813,2.145 l -18.747,-0.589 c -5.79,-0.009 -12.207,-0.084 -17.486,2.649 -2.376,1.23 -4.056,3.125 -5.518,5.312 1.941,3.139 3.963,5.238 7.132,7.181 v 0.043 c 0.459,0.625 0.631,1.161 1.402,1.347 0.533,0.128 0.853,0.268 1.313,0.546 -0.871,0.174 -0.899,0.206 -1.688,-0.188 -0.286,0.539 -0.175,0.224 -0.254,0.971 -8.857,-1.328 -22.771,-3.463 -30.711,1.448 -0.687,0.693 -1.108,1.091 -2.035,1.463 -1.847,-0.426 -3.328,-1.388 -4.932,-2.351 l -1.9,-1.457 c -7.039,1.013 -19.23,3.773 -23.539,9.794 l -1.011,1.57 -0.441,0.629 -0.38,1.335 c -0.581,2.44 -1.281,5.112 -1.364,7.622 -0.153,4.558 1.119,9.438 1.728,13.946 -0.414,0.751 -0.16,0.523 -0.702,0.884 -3.292,2.194 -5.221,7.529 -6.987,10.976 -6.749,13.176 -12.438,26.759 -17.684,40.594 -3.149,-1.952 -6.825,-3.294 -10.212,-4.809 l -17.463,-7.929 c -4.042,-1.871 -10.111,-3.961 -12.646,-7.722 -3.576,-5.306 4.631,-30.953 6.136,-37.777 2.418,-8.01 5.128,-16.573 8.921,-24.015 z"
       id="path354"
       style="fill:url(#gradient_9)" />
    <path
       fill="#eb960c"
       transform="scale(0.666667)"
       d="m 275.229,190.884 0.702,-0.251 c 1.596,-0.62 3.013,-2.021 4.399,-3.029 l 7.701,-5.366 c 5.875,-3.847 12.03,-7.091 18.391,-10.053 14.032,-6.535 28.891,-11.97 44.062,-15.171 25.851,-5.455 52.914,-4.471 78.527,1.73 10.299,2.494 20.416,6.131 30.263,10.03 12.332,4.884 23.429,10.882 34.788,17.671 9.667,5.777 19.003,11.805 27.793,18.872 9.705,7.803 18.537,16.813 26.98,25.939 19.552,21.133 37.764,44.553 49.207,71.145 0.679,1.578 1.554,3.598 1.7,5.304 l -0.122,0.051 0.005,1.994 c -0.553,0.553 -1.194,0.9 -1.969,1.055 l -1.59,0.257 -0.472,0.094 c -0.843,-1.415 -2.587,-3.387 -4.158,-3.846 -1.43,-0.637 -24.902,-29.267 -26.452,-31.847 -2.185,-3.636 -3.773,-7.842 -5.551,-11.704 -3.153,-6.846 -6.806,-13.499 -11.646,-19.314 -14.246,-17.118 -33.843,-29.85 -53.799,-39.328 -27.339,-12.984 -56.771,-21.779 -86.934,-24.741 -9.897,-0.972 -19.909,-1.518 -29.851,-0.975 -16.691,0.913 -32.791,4.107 -49.078,7.681 l -24.42,5.932 c -3.369,0.897 -6.889,1.555 -10.172,2.722 -2.358,-0.003 -4.839,-0.999 -7.078,-1.706 -3.662,-1.156 -7.466,-2.403 -11.226,-3.146 z"
       id="path356" />
    <path
       fill="#102136"
       transform="scale(0.666667)"
       d="m 194.964,201.303 c 3.942,-2.592 8.364,-4.868 13.12,-5.319 3.306,-0.314 6.476,-0.337 9.625,-1.522 5.493,-2.068 10.233,-5.976 15.807,-7.936 1.775,-0.624 3.691,-1.1 5.551,-1.36 10.726,-1.502 25.52,0.185 34.441,6.854 3.944,5.827 5.935,12.709 9.376,18.833 2.221,3.951 5.377,7.275 7.857,11.053 4.918,7.49 13.895,25.069 11.93,34.102 -0.638,2.936 -2.415,5.217 -4.954,6.796 -4.715,2.933 -11.483,2.394 -16.813,2.145 l -18.747,-0.589 c -5.79,-0.009 -12.207,-0.084 -17.486,2.649 -2.376,1.23 -4.056,3.125 -5.518,5.312 1.941,3.139 3.963,5.238 7.132,7.181 v 0.043 c 0.459,0.625 0.631,1.161 1.402,1.347 0.533,0.128 0.853,0.268 1.313,0.546 -0.871,0.174 -0.899,0.206 -1.688,-0.188 -0.286,0.539 -0.175,0.224 -0.254,0.971 -8.857,-1.328 -22.771,-3.463 -30.711,1.448 -0.687,0.693 -1.108,1.091 -2.035,1.463 -1.847,-0.426 -3.328,-1.388 -4.932,-2.351 l -1.9,-1.457 c -7.039,1.013 -19.23,3.773 -23.539,9.794 l -1.011,1.57 -0.441,0.629 -0.38,1.335 -0.381,-0.409 c -0.564,-3.421 -2.121,-5.383 -3.598,-8.34 -1.142,-2.285 -1.733,-5.033 -2.315,-7.503 -3.262,-13.835 0.651,-26.553 2.923,-40.088 1.161,-6.919 1.821,-13.845 4.12,-20.528 2.039,-6.878 5.98,-12.728 12.106,-16.481 z"
       id="path358" />
    <path
       fill="#76649f"
       transform="scale(0.666667)"
       d="m 238.482,201.733 -0.984,-0.545 c 0.393,-0.909 1.057,-1.037 1.953,-1.416 4.664,-1.975 13.173,1.581 17.558,3.533 4.59,2.043 12.501,5.607 14.303,10.759 0.349,0.996 0.72,2.299 0.328,3.317 -3.408,-3.563 -7.688,-5.36 -12.039,-7.514 -6.749,-3.341 -13.686,-6.659 -21.119,-8.134 z"
       id="path360" />
    <path
       fill="#eb960c"
       transform="scale(0.666667)"
       d="m 182.489,293.317 c -0.372,-1.34 -0.685,-2.653 -0.672,-4.055 0.049,-5.13 3.841,-14.782 7.745,-18.13 1.072,-0.919 1.824,-1.212 3.221,-1.131 6.637,0.386 10.802,6.723 14.697,11.323 -7.039,1.013 -19.23,3.773 -23.539,9.794 l -1.011,1.57 z"
       id="path362" />
    <path
       transform="scale(0.666667)"
       d="m 209.38,282.781 c -0.561,-3.78 -1.693,-7.395 -2.288,-11.153 -1,-6.307 -2.187,-23.607 1.523,-28.819 0.65,-0.914 1.447,-1.608 2.604,-1.723 0.779,-0.078 0.816,0.029 1.473,0.342 1.069,2.138 0.598,6.231 0.6,8.672 0.005,5.722 -0.159,11.496 0.369,17.198 0.235,2.543 0.538,5.146 1.081,7.643 0.63,2.895 1.538,5.747 1.605,8.728 -0.687,0.693 -1.108,1.091 -2.035,1.463 -1.847,-0.426 -3.328,-1.388 -4.932,-2.351 z"
       id="path364" />
    <path
       fill="#76649f"
       transform="scale(0.666667)"
       d="m 270.223,232.221 c 0.321,0.69 0.483,0.638 0.201,1.402 -2.254,6.121 -8.703,10.244 -14.409,12.748 -6.281,2.758 -13.157,3.623 -19.932,4.279 l -15.754,1.028 c 1.79,-2.907 5.195,-8.999 8.733,-9.928 l 0.366,-0.082 29.977,-3.23 c 4.828,-0.868 7.92,-2.088 10.818,-6.217 z"
       id="path366" />
    <path
       fill="#76649f"
       transform="scale(0.666667)"
       d="m 199.474,200.767 c 4.07,-2.402 9.039,-4.769 13.901,-3.44 3.629,0.991 7.504,3.979 10.48,6.261 0.877,0.673 2.23,1.645 2.676,2.662 0.492,1.123 -0.005,1.919 -0.523,2.939 l -0.605,1.053 c -4.124,5.18 -7.376,11.365 -7.559,18.119 l -0.532,1.323 c -4.083,-3.205 -6.302,-10.26 -11.899,-10.485 -0.931,0.522 -1.143,0.81 -1.399,1.863 L 200.037,255 c -3.718,-1.912 -8.25,-3.828 -11.225,-6.809 -3.236,-3.244 -5.298,-9.108 -6.677,-13.433 l -0.193,-0.606 c -0.189,-2.376 -0.442,-4.707 -0.083,-7.078 l 0.95,-6.012 0.189,-0.939 c 0.243,-0.874 0.023,-1.452 -0.14,-2.339 2.039,-6.878 5.98,-12.728 12.106,-16.481 0.918,0.068 1.413,-0.056 2.284,-0.305 0.745,-0.213 1.458,-0.22 2.226,-0.231 z"
       id="path368" />
    <path
       transform="scale(0.666667)"
       d="m 194.964,201.303 c 0.918,0.068 1.413,-0.056 2.284,-0.305 0.745,-0.213 1.458,-0.22 2.226,-0.231 -1.889,2.155 -3.257,4.363 -4.004,7.171 -0.232,0.872 -0.222,1.826 -0.559,2.655 l 0.03,0.352 c 0.368,3.562 2.58,6.406 3.342,9.789 0.6,2.661 -0.409,5.589 -1.221,8.099 -0.714,2.211 -1.689,4.927 -3.141,6.757 -0.559,0.704 -1.116,0.958 -1.938,1.274 -1.89,-0.014 -3.571,-0.476 -4.891,-1.926 -0.867,-0.954 -1.257,-1.999 -1.555,-3.226 -1.126,0.307 -2.065,0.65 -3.099,1.194 l -0.496,1.246 c -0.189,-2.376 -0.442,-4.707 -0.083,-7.078 l 0.95,-6.012 0.189,-0.939 c 0.243,-0.874 0.023,-1.452 -0.14,-2.339 2.039,-6.878 5.98,-12.728 12.106,-16.481 z"
       id="path370" />
    <path
       fill="url(#gradient_10)"
       transform="scale(0.666667)"
       d="m 194.964,201.303 c 0.918,0.068 1.413,-0.056 2.284,-0.305 0.745,-0.213 1.458,-0.22 2.226,-0.231 -1.889,2.155 -3.257,4.363 -4.004,7.171 -0.232,0.872 -0.222,1.826 -0.559,2.655 -4.168,2.48 -7.11,5.68 -8.324,10.459 -0.917,3.61 -0.964,6.955 -1.05,10.66 -1.126,0.307 -2.065,0.65 -3.099,1.194 l -0.496,1.246 c -0.189,-2.376 -0.442,-4.707 -0.083,-7.078 l 0.95,-6.012 0.189,-0.939 c 0.243,-0.874 0.023,-1.452 -0.14,-2.339 2.039,-6.878 5.98,-12.728 12.106,-16.481 z"
       id="path379"
       style="fill:url(#gradient_10)" />
    <path
       transform="scale(0.666667)"
       d="m 238.482,201.733 c 7.433,1.475 14.37,4.793 21.119,8.134 4.351,2.154 8.631,3.951 12.039,7.514 l -0.027,0.339 c -0.273,3.891 0.333,7.616 -0.881,11.405 -0.313,0.977 -0.801,2.077 -0.509,3.096 -2.898,4.129 -5.99,5.349 -10.818,6.217 l -29.977,3.23 c -1.199,-0.131 -2.244,-0.291 -3.196,-1.071 -1.825,-1.496 -8.145,-10.027 -8.388,-12.236 0.183,-6.754 3.435,-12.939 7.559,-18.119 4.688,-1.008 10.229,-4.642 13.079,-8.509 z"
       id="path381" />
  </g>
</svg>
