<?xml version="1.0" encoding="utf-8" ?>
<svg xmlns="http://www.w3.org/2000/svg" xmlns:xlink="http://www.w3.org/1999/xlink" width="512" height="512">
	<path transform="scale(0.666667 0.666667)" d="M0 173.47L-0 -0L123.92 0L642.231 0L768 0L768 173.669L768 768L-0 768L0 173.47Z"/>
	<path fill="#461B12" transform="scale(0.666667 0.666667)" d="M112.636 630.69C116.696 628.782 120.148 626.104 124.435 624.504C131.068 622.029 138.439 621.871 145.318 620.365C148.607 619.644 151.945 617.612 155.286 617.612C162.362 617.612 170.233 620.047 177.186 621.432L192.75 623.986L207.691 626.31L208.093 626.35L205.085 640.441C204.37 643.944 203.678 647.796 202.27 651.084C199.84 656.758 196.263 661.115 192.036 665.493C189.6 668.016 187.23 670.776 184.419 672.882L184.173 661.555C182.655 664.069 181.101 666.707 179.159 668.917C177.238 671.102 174.874 672.943 173.036 675.189C171.688 676.837 170.694 678.684 169.529 680.455C160.269 674.748 150.761 668.118 142.517 661.039C136.297 655.698 130.524 649.793 124.736 643.992C120.657 639.903 115.896 635.459 112.636 630.69Z"/>
	<path fill="#985522" transform="scale(0.666667 0.666667)" d="M718.737 533.928L710.651 551.022C700.205 571.522 687.86 591.897 672.827 609.363C667.301 604.116 660.366 599.32 653.617 595.802L681.645 586.703L668.625 577.485C661.409 572.578 653.432 567.992 647.765 561.239C644.594 557.461 642.236 552.884 640.238 548.402L631.336 525.722L631.167 525.352L647.208 525.518C653.935 526.376 717.405 532.941 718.737 533.928Z"/>
	<path fill="#461B12" transform="scale(0.666667 0.666667)" d="M626.209 481.292C631.857 484.247 637.312 484.776 643.588 485.384C649.116 485.919 654.399 486.287 659.958 486.161C664.753 486.053 669.863 485.557 674.625 486.047C676.594 486.249 678.386 488.298 680.166 487.741C682.685 486.953 684.878 485.734 687.248 484.603C687.768 484.355 689.031 483.547 689.558 483.501C692.41 483.253 695.924 485.292 699 485.174C703.843 484.987 708.308 482.293 713.098 481.998C716.542 481.785 720.228 483.298 723.7 483.535C728.819 483.885 733.99 483.117 739.138 483.353C735.839 495.753 730.619 507.883 725.465 519.617C723.377 524.372 721.455 529.345 718.882 533.863L718.737 533.928C717.405 532.941 653.935 526.376 647.208 525.518C647.79 525.388 648.215 525.398 648.671 525C647.539 524.445 646.313 524.166 645.194 523.575C641.058 521.389 637.508 518.456 634.686 514.738C639.024 512.606 643.281 510.146 647.262 507.4C650.492 505.172 653.548 502.646 656.915 500.627L657.264 500.421C649.79 500.644 642.549 500.871 635.062 500.475C633.588 500.397 630.548 500.627 629.472 499.688C629.66 499.181 629.679 499.047 630.018 498.562C630.922 497.27 633.488 496.696 634.922 496.445C635.513 496.342 635.844 496.376 636.322 496.009C633.592 492.688 630.841 489.377 628.461 485.79C627.503 484.347 626.472 483.037 626.209 481.292Z"/>
	<path fill="#461B12" transform="scale(0.666667 0.666667)" d="M444.034 619.708L444.428 619.878C445.124 620.107 445.363 620.054 445.846 620.627C448.511 623.785 446.66 635.035 446.135 638.931L524.533 554.425L524.812 554.137L523.108 584.82L546.641 603.388C539.071 609.592 532.21 616.584 525.267 623.467L498.063 650.323L480.634 666.83L466.249 681.414L428.373 719.862C422.851 725.947 416.445 732.011 411.841 738.824L408.903 743.537C401.799 743.845 393.646 744.698 386.579 743.682L389.812 743.497C391.2 740.769 392.504 738.121 394.133 735.516C397.13 730.724 400.42 726.37 402.758 721.182C408.774 707.832 410.345 693.148 413.782 679.059C415.701 671.193 418.588 663.479 420.015 655.524L420.779 655.72C422.333 657.376 422.468 659.622 422.824 661.828C423.525 666.178 423.951 670.396 424.244 674.793C425.215 672.544 425.465 669.479 426.215 667.05L431.481 652.435L444.034 619.708Z"/>
	<path fill="#985522" transform="scale(0.666667 0.666667)" d="M76.229 585.046L201.655 525.356L202.102 522.179C202.096 524.414 201.836 526.902 202.37 529.067C202.693 530.381 204.592 533.451 204.54 534.482C204.622 536.598 205.943 538.607 206.699 540.561C209.866 548.746 214.354 556.652 220.257 563.191C222.771 565.977 225.942 568.551 228.098 571.592L227.894 573.296C224.584 578.082 223.162 583.9 221.283 589.353L213.458 611.417L208.093 626.35L207.691 626.31L192.75 623.986L177.186 621.432C170.233 620.047 162.362 617.612 155.286 617.612C151.945 617.612 148.607 619.644 145.318 620.365C138.439 621.871 131.068 622.029 124.435 624.504C120.148 626.104 116.696 628.782 112.636 630.69L102.902 619.939C100.29 617.037 97.558 614.219 95.3806 610.966L76.229 585.046Z"/>
	<path fill="#603019" transform="scale(0.666667 0.666667)" d="M95.3806 610.966L213.458 611.417L208.093 626.35L207.691 626.31L192.75 623.986L177.186 621.432C170.233 620.047 162.362 617.612 155.286 617.612C151.945 617.612 148.607 619.644 145.318 620.365C138.439 621.871 131.068 622.029 124.435 624.504C120.148 626.104 116.696 628.782 112.636 630.69L102.902 619.939C100.29 617.037 97.558 614.219 95.3806 610.966Z"/>
	<path fill="#461B12" transform="scale(0.666667 0.666667)" d="M28.3384 480.226L46.3917 477.153L54.1334 475.414C55.797 474.988 57.7018 474.277 59.4252 474.452C63.2721 474.842 67.7496 477.525 70.7353 479.863C73.9811 482.404 76.9944 484.955 80.5384 487.093C81.9804 486.011 84.2907 483.686 85.8437 483.08C86.5297 482.812 87.7385 483.063 88.4886 483.121L96.75 483.734C102.726 483.93 109.452 482.66 115.286 483.569C118.106 484.008 121.913 485.801 124.521 487.037C126.504 487.978 131.111 486.356 133.016 485.616C135.798 484.536 138.512 482.805 141.373 482.028C146.82 480.547 169.456 478.46 174.263 480.452C176.93 481.557 178.96 483.857 181.688 484.819C185.245 486.074 190.658 484.821 194.473 484.931L209.704 485.771C207.495 488.94 204.774 492.556 204.163 496.466C203.795 498.819 204.235 501.642 204.66 504C205.062 506.23 205.768 508.596 205.755 510.872C204.811 511.732 203.426 512.815 202.827 513.962C202.109 515.338 202.184 519.468 202.12 521.111L202.102 522.179L201.655 525.356L76.229 585.046C73.1068 581.95 70.6108 576.858 68.3599 573.083C55.1552 550.94 44.686 527.565 35.8574 503.366C33.1194 495.861 30.0956 488.021 28.3384 480.226Z"/>
	<path fill="#AD5A04" transform="scale(0.666667 0.666667)" d="M756.423 360.24C757.072 365.057 757.001 370.114 757.104 374.981C757.395 388.695 756.91 402.935 754.788 416.509L739.138 483.353C733.99 483.117 728.819 483.885 723.7 483.535C720.228 483.298 716.542 481.785 713.098 481.998C708.308 482.293 703.843 484.987 699 485.174C695.924 485.292 692.41 483.253 689.558 483.501C689.031 483.547 687.768 484.355 687.248 484.603C684.878 485.734 682.685 486.953 680.166 487.741C678.386 488.298 676.594 486.249 674.625 486.047C669.863 485.557 664.753 486.053 659.958 486.161C654.399 486.287 649.116 485.919 643.588 485.384C637.312 484.776 631.857 484.247 626.209 481.292L625.559 480.662C618.972 473.901 613.89 462.269 612.657 452.965C611.783 446.371 612.048 439.558 612.066 432.914L611.287 415.128C611.26 414.175 610.928 411.893 611.184 411.081C611.435 410.287 613.528 408.359 614.141 407.621C616.104 405.252 617.865 402.695 619.616 400.167L620.132 400.458C620.498 400.599 621.011 400.579 621.375 400.524C622.831 400.304 624.619 399.432 626.051 398.967L639.307 394.553L672.782 384.508L735.375 369.037C742.259 367.241 749.464 365.702 756.188 363.386L756.423 360.24Z"/>
	<path fill="#DE7607" transform="scale(0.666667 0.666667)" d="M756.423 360.24C757.072 365.057 757.001 370.114 757.104 374.981C757.395 388.695 756.91 402.935 754.788 416.509L612.75 435.998C612.266 435.001 612.301 433.97 612.066 432.914L611.287 415.128C611.26 414.175 610.928 411.893 611.184 411.081C611.435 410.287 613.528 408.359 614.141 407.621C616.104 405.252 617.865 402.695 619.616 400.167L620.132 400.458C620.498 400.599 621.011 400.579 621.375 400.524C622.831 400.304 624.619 399.432 626.051 398.967L639.307 394.553L672.782 384.508L735.375 369.037C742.259 367.241 749.464 365.702 756.188 363.386L756.423 360.24Z"/>
	<path fill="#985522" transform="scale(0.666667 0.666667)" d="M0 173.47L-0 -0L123.92 0L166.188 62.0884C147.166 76.7223 126.799 89.6861 106.686 102.742L33.6026 150.977L11.6177 165.755C7.84216 168.229 3.41371 170.546 0 173.47Z"/>
	<path fill="#985522" transform="scale(0.666667 0.666667)" d="M642.231 0L768 0L768 173.669L601.209 61.9457C605.235 57.0081 608.781 51.095 612.386 45.8101L642.231 0Z"/>
	<path fill="white" transform="scale(0.666667 0.666667)" d="M416.557 431.917L417.182 431.525C418.622 434.996 419.389 439.185 420.347 442.821L427.368 470.272C431.334 485.235 437.372 499.807 444.947 513.314C449.37 521.2 454.557 528.785 459.68 536.227C463.451 541.706 466.799 547.252 471.492 551.999C469.109 560.318 463.795 567.64 460.131 575.438C461.305 576.216 462.569 575.209 463.312 576.381C456.261 588.261 450.749 600.535 446.038 613.513C445.449 615.134 444.079 618.001 444.034 619.708L431.481 652.435L426.215 667.05C425.465 669.479 425.215 672.544 424.244 674.793C423.951 670.396 423.525 666.178 422.824 661.828C422.468 659.622 422.333 657.376 420.779 655.72L420.015 655.524C418.588 663.479 415.701 671.193 413.782 679.059C410.345 693.148 408.774 707.832 402.758 721.182C400.42 726.37 397.13 730.724 394.133 735.516C392.504 738.121 391.2 740.769 389.812 743.497L386.579 743.682L366.926 743.343C359.902 743.262 352.675 743.424 345.731 742.29C329.588 739.908 313.102 739.23 297.174 735.343L273.78 730.178C270.569 719.104 261.857 710.266 257.353 699.892C255.573 695.791 255.372 690.985 254.541 686.625L252.391 676.912L237.07 613.885L227.894 573.296L228.098 571.592C236.713 576.809 246.871 579.496 256.688 581.432C274.283 584.705 293.579 584.578 311.224 581.451C318.284 580.2 325.746 578.589 332.365 575.773C349.789 568.361 364.553 551.902 375.164 536.619L392.122 506.02C392.543 505.739 392.962 504.819 393.247 504.354L396.56 498.95L402.64 490.059C406.052 484.955 410.246 476.915 415.684 473.89L415.246 473.55C415.547 473.2 415.993 472.934 416.148 472.5C416.299 472.077 416.139 470.576 416.139 470.062L416.189 462.223C416.294 452.106 417.071 442.042 416.557 431.917Z"/>
	<path fill="#EB960C" transform="scale(0.666667 0.666667)" d="M362.281 601.688L362.987 601.893L351.845 621.037L355.124 624.126L349.153 622.961L343.517 622.433C347.901 614.731 355.891 607.807 362.281 601.688Z"/>
	<path fill="#EB960C" transform="scale(0.666667 0.666667)" d="M398.345 550.688C398.6 551.007 398.456 550.782 398.623 551.438L393.424 565.112C392.338 568.32 391.52 571.902 390.071 574.94C388.386 578.472 384.043 579.582 381.648 582.657C380.209 584.504 379.272 586.958 378.266 589.073L373.834 597.645C372.689 599.758 371.631 602.021 369.563 603.365L369.152 602.957C372.909 593.474 377.485 583.845 382.717 575.106L392.209 560.585C394.227 557.42 395.87 553.454 398.345 550.688Z"/>
	<path fill="#C1CADC" transform="scale(0.666667 0.666667)" d="M256.688 581.432C274.283 584.705 293.579 584.578 311.224 581.451C318.284 580.2 325.746 578.589 332.365 575.773C349.789 568.361 364.553 551.902 375.164 536.619C379.08 541.262 376.689 565.191 376.759 571.795C369.365 571.958 362.218 572.611 354.883 573.542C348.043 574.411 341.387 575.437 334.835 577.636L346.499 582.936C348.159 583.647 351.217 584.476 352.519 585.584C346.838 587.292 341.666 589.79 336.966 593.437C337.08 594.062 337.169 594.237 337.498 594.75C336.926 595.273 337.061 595.257 336.236 595.397C332.187 596.087 328.809 600.142 324.431 600.034C321.208 599.955 317.829 598.213 314.959 596.877L303.375 591.711C298.657 589.751 293.283 587.134 288.188 589.011C286.455 589.65 283.456 590.988 281.647 590.916L277.028 593.761C273.368 597.335 270.854 602.377 266.94 605.483C266.039 610.781 265.79 616.286 265.332 621.643C265.103 624.331 264.503 627.359 264.666 630.025C264.75 631.403 266.378 635.215 265.116 636.101C264.433 636.58 263.768 636.718 262.974 636.938L262.893 637.5C265.964 639.622 270.49 640.342 274.063 641.342C274.186 642.036 274.153 642.346 273.897 643.003L273.547 642.211C271.909 643.271 270.686 645.701 269.561 647.341C265.178 653.732 261.089 660.187 257.505 667.063C255.895 670.151 254.451 674.209 252.391 676.912L237.07 613.885L227.894 573.296L228.098 571.592C236.713 576.809 246.871 579.496 256.688 581.432Z"/>
	<path fill="#C7D5E6" transform="scale(0.666667 0.666667)" d="M277.028 593.761C277.057 592.728 277.024 591.778 277.446 590.812C279.081 590.509 280.059 590.364 281.647 590.916L277.028 593.761Z"/>
	<path fill="#DE7607" transform="scale(0.666667 0.666667)" d="M250.489 594.631L250.891 591.562C253.747 590.307 259.585 590.986 262.756 590.97L274.269 590.631C271.231 595.449 268.321 600.519 266.17 605.807L266.94 605.483C266.039 610.781 265.79 616.286 265.332 621.643C265.103 624.331 264.503 627.359 264.666 630.025C264.75 631.403 266.378 635.215 265.116 636.101C264.433 636.58 263.768 636.718 262.974 636.938L262.893 637.5C265.964 639.622 270.49 640.342 274.063 641.342C274.186 642.036 274.153 642.346 273.897 643.003L273.547 642.211C271.909 643.271 270.686 645.701 269.561 647.341C265.178 653.732 261.089 660.187 257.505 667.063C255.895 670.151 254.451 674.209 252.391 676.912L237.07 613.885C239.415 612.024 240.701 609.655 242.221 607.125C244.662 603.061 247.214 598.047 250.489 594.631Z"/>
	<path fill="white" transform="scale(0.666667 0.666667)" d="M250.489 594.631L250.891 591.562C253.747 590.307 259.585 590.986 262.756 590.97L274.269 590.631C271.231 595.449 268.321 600.519 266.17 605.807C262.445 613.688 258.53 621.573 253.914 628.97C253.266 630.008 252.365 632.002 251.393 632.699L250.489 594.631Z"/>
	<path fill="#DE7607" transform="scale(0.666667 0.666667)" d="M416.557 431.917L417.182 431.525C418.622 434.996 419.389 439.185 420.347 442.821L427.368 470.272C431.334 485.235 437.372 499.807 444.947 513.314C449.37 521.2 454.557 528.785 459.68 536.227C463.451 541.706 466.799 547.252 471.492 551.999C469.109 560.318 463.795 567.64 460.131 575.438C461.305 576.216 462.569 575.209 463.312 576.381C456.261 588.261 450.749 600.535 446.038 613.513C445.449 615.134 444.079 618.001 444.034 619.708L431.481 652.435L426.215 667.05C425.465 669.479 425.215 672.544 424.244 674.793C423.951 670.396 423.525 666.178 422.824 661.828C422.468 659.622 422.333 657.376 420.779 655.72L420.015 655.524C418.588 663.479 415.701 671.193 413.782 679.059C410.345 693.148 408.774 707.832 402.758 721.182C400.42 726.37 397.13 730.724 394.133 735.516C392.504 738.121 391.2 740.769 389.812 743.497L386.579 743.682L366.926 743.343C359.902 743.262 352.675 743.424 345.731 742.29C329.588 739.908 313.102 739.23 297.174 735.343L273.78 730.178C270.569 719.104 261.857 710.266 257.353 699.892C255.573 695.791 255.372 690.985 254.541 686.625L252.391 676.912C254.451 674.209 255.895 670.151 257.505 667.063C261.089 660.187 265.178 653.732 269.561 647.341C270.686 645.701 271.909 643.271 273.547 642.211L273.897 643.003L272.882 656.555C272.064 663.22 270.812 669.701 269.306 676.248C272.181 673.46 274.012 669.69 275.438 665.996C275.595 665.195 275.766 664.894 276.188 664.219L276.852 664.875L277.272 665.465C278.533 662.68 280.429 660.306 282.092 657.759L292.142 642.475L286.566 666.9C289.889 662.364 292.606 657.724 295.025 652.651C294.664 660.869 295.358 669.106 293.289 677.128L303.652 663.746L306.257 689.172C306.97 696.024 307.06 703.346 309.583 709.807L313.262 699.538C314.784 695.863 316.901 692.384 318.699 688.833C319.597 687.059 320.771 684.127 322.239 682.792C321.341 690.255 319.21 697.332 317.932 704.695C316.552 712.643 316.592 720.553 313.816 728.224C317.632 725.249 320.672 723.175 325.405 721.876L328.769 698.663L335.695 710.601L334.441 698.604C334.289 696.887 333.966 695.059 334.312 693.364L335.062 693.308C335.689 693.832 336.107 694.274 336.938 694.396C339.131 692.581 340.7 690.55 342.17 688.126C343.614 685.748 345.312 682.663 345.64 679.871C346.01 676.713 344.379 671.907 343.616 668.746C347.945 671.973 352.557 675.923 355.059 680.812C356.276 683.191 357.251 685.667 358.726 687.905C357.478 681.436 357.049 674.99 357.001 668.404C356.963 663.259 357.253 658.004 356.759 652.883L356.696 652.264C361.036 658.602 364.592 665.894 367.694 672.921L371.6 663.161C373.976 667.077 375.506 672.207 378.938 675.31C380.308 674.862 380.242 672.541 380.329 671.25C381.008 661.111 382.305 651.632 384.414 641.678C385.746 635.393 387.129 629.23 390.283 623.575C390.601 626.206 390.192 628.83 389.899 631.447C389.299 636.818 388.366 641.898 387.059 647.14L398.869 628.923C405.678 618.802 412.477 609.249 420.677 600.177C419.746 603.702 419.225 607.037 418.983 610.677C422.662 606.613 424.785 601.085 426.62 595.984C427.157 594.491 427.696 592.115 428.657 590.863C429.104 590.281 430.805 589.466 431.469 589.022C433.69 587.536 435.946 585.969 437.808 584.038C440.764 580.972 442.949 577.002 445.116 573.365L453.977 558.329L453.355 556.5C451.911 552.077 449.741 547.941 447.882 543.68L434.712 513.722L423.181 486.772C421.642 483.243 420.241 479.014 418.271 475.749C417.476 474.431 417.177 474.211 415.684 473.89L415.246 473.55C415.547 473.2 415.993 472.934 416.148 472.5C416.299 472.077 416.139 470.576 416.139 470.062L416.189 462.223C416.294 452.106 417.071 442.042 416.557 431.917Z"/>
	<path fill="#603019" transform="scale(0.666667 0.666667)" d="M420.015 655.524L428.942 633.291C430.804 628.26 432.368 622.092 435.179 617.589C433.552 627.29 431.922 637.026 431.319 646.848C431.238 648.177 430.719 650.936 431.271 652.119L431.481 652.435L426.215 667.05C425.465 669.479 425.215 672.544 424.244 674.793C423.951 670.396 423.525 666.178 422.824 661.828C422.468 659.622 422.333 657.376 420.779 655.72L420.015 655.524Z"/>
	<path fill="#603019" transform="scale(0.666667 0.666667)" d="M252.391 676.912C254.451 674.209 255.895 670.151 257.505 667.063C261.089 660.187 265.178 653.732 269.561 647.341C270.686 645.701 271.909 643.271 273.547 642.211L273.897 643.003L272.882 656.555C272.064 663.22 270.812 669.701 269.306 676.248C272.181 673.46 274.012 669.69 275.438 665.996C276.379 666.933 276.276 667.284 276.289 668.55C276.349 674.177 273.138 680.951 271.446 686.332C273.769 685.057 275.648 683.606 277.635 681.857C278.766 686.481 279.702 691.433 278.863 696.188C278.354 699.072 277.166 701.913 276.248 704.683C278.976 701.258 281.585 697.794 285.188 695.23C285.606 695.41 285.893 695.384 286.052 695.839C286.718 697.745 286.159 699.864 285.925 701.812L282.967 720.296L289.642 707.392L297.174 735.343L273.78 730.178C270.569 719.104 261.857 710.266 257.353 699.892C255.573 695.791 255.372 690.985 254.541 686.625L252.391 676.912Z"/>
	<path fill="#633B14" transform="scale(0.666667 0.666667)" d="M345.731 742.29L347.927 742.088L348.684 739.5C349.385 737.003 350.257 734.916 351.704 732.764C355.188 727.581 359.973 722.983 364.011 718.215L381.499 695.765C393.754 678.941 406.277 661.186 414.609 642.017L414.792 641.589C415.404 645.497 416.098 649.071 417.888 652.645C418.323 653.513 418.774 654.599 419.561 655.203L420.015 655.524C418.588 663.479 415.701 671.193 413.782 679.059C410.345 693.148 408.774 707.832 402.758 721.182C400.42 726.37 397.13 730.724 394.133 735.516C392.504 738.121 391.2 740.769 389.812 743.497L386.579 743.682L366.926 743.343C359.902 743.262 352.675 743.424 345.731 742.29Z"/>
	<path fill="#F29D00" transform="scale(0.666667 0.666667)" d="M41.267 238.033L94.8159 267.231C99.289 270.134 131.072 285.382 131.836 286.422C128.043 293.864 125.333 302.427 122.915 310.437C121.41 317.261 113.203 342.908 116.779 348.214C119.314 351.975 125.383 354.065 129.425 355.936L146.888 363.865C150.275 365.38 153.951 366.722 157.1 368.674C162.346 354.839 168.035 341.256 174.784 328.08C176.55 324.633 178.479 319.298 181.771 317.104C182.313 316.743 182.059 316.971 182.473 316.22L184.896 332.108C185.35 335.068 185.679 338.558 187.041 341.253C189.17 345.464 195.873 349.163 199.646 352.003C204.434 355.608 209.573 359.802 213.108 364.689C216.988 370.051 219.23 377.402 221.274 383.625C223.853 391.475 226.327 399.404 228.242 407.442C230.593 415.605 233.408 425.451 232.935 433.991L232.701 435.387C230.002 446.928 226.327 457.248 221.586 468.083C220.953 469.529 220.304 470.558 220.08 472.156C218.307 475.483 215.94 477.886 213.516 480.728C212.145 482.335 211.045 484.144 209.704 485.771L194.473 484.931C190.658 484.821 185.245 486.074 181.688 484.819C178.96 483.857 176.93 481.557 174.263 480.452C169.456 478.46 146.82 480.547 141.373 482.028C138.512 482.805 135.798 484.536 133.016 485.616C131.111 486.356 126.504 487.978 124.521 487.037C121.913 485.801 118.106 484.008 115.286 483.569C109.452 482.66 102.726 483.93 96.75 483.734L88.4886 483.121C87.7385 483.063 86.5297 482.812 85.8437 483.08C84.2907 483.686 81.9804 486.011 80.5384 487.093C76.9944 484.955 73.9811 482.404 70.7353 479.863C67.7496 477.525 63.2721 474.842 59.4252 474.452C57.7018 474.277 55.797 474.988 54.1334 475.414L46.3917 477.153L28.3384 480.226C26.1406 474.108 24.4966 467.776 22.7124 461.527C20.2586 452.932 17.7695 444.288 15.9812 435.527C14.5939 428.731 13.7323 421.899 12.8592 415.023C11.5367 400.985 11.1828 386.919 11.214 372.825C11.226 367.45 10.9109 361.795 11.5734 356.463C11.464 351.169 12.197 345.716 12.8013 340.456C14.4658 325.969 17.5584 311.683 21.2109 297.576L26.7812 277.421L34.7576 255.26L41.267 238.033Z"/>
	<path fill="#F4C354" transform="scale(0.666667 0.666667)" d="M41.267 238.033L94.8159 267.231C99.289 270.134 131.072 285.382 131.836 286.422C128.043 293.864 125.333 302.427 122.915 310.437L75.1081 281.13L48.4222 264.256L41.0882 259.412C39.0162 257.957 37.0537 256.357 34.7576 255.26L41.267 238.033Z"/>
	<path fill="#DE7607" transform="scale(0.666667 0.666667)" d="M12.8592 415.023C11.5367 400.985 11.1828 386.919 11.214 372.825C11.226 367.45 10.9109 361.795 11.5734 356.463L11.619 363.645L228.242 407.442C230.593 415.605 233.408 425.451 232.935 433.991L232.701 435.387C228.044 434.389 222.99 434.316 218.25 433.788L178.875 429.629L92.4923 421.308L34.295 416.827L12.8592 415.023Z"/>
	<path fill="#AD5A04" transform="scale(0.666667 0.666667)" d="M12.8592 415.023L34.295 416.827L92.4923 421.308L178.875 429.629L218.25 433.788C222.99 434.316 228.044 434.389 232.701 435.387C230.002 446.928 226.327 457.248 221.586 468.083C220.953 469.529 220.304 470.558 220.08 472.156C218.307 475.483 215.94 477.886 213.516 480.728C212.145 482.335 211.045 484.144 209.704 485.771L194.473 484.931C190.658 484.821 185.245 486.074 181.688 484.819C178.96 483.857 176.93 481.557 174.263 480.452C169.456 478.46 146.82 480.547 141.373 482.028C138.512 482.805 135.798 484.536 133.016 485.616C131.111 486.356 126.504 487.978 124.521 487.037C121.913 485.801 118.106 484.008 115.286 483.569C109.452 482.66 102.726 483.93 96.75 483.734L88.4886 483.121C87.7385 483.063 86.5297 482.812 85.8437 483.08C84.2907 483.686 81.9804 486.011 80.5384 487.093C76.9944 484.955 73.9811 482.404 70.7353 479.863C67.7496 477.525 63.2721 474.842 59.4252 474.452C57.7018 474.277 55.797 474.988 54.1334 475.414L46.3917 477.153L28.3384 480.226C26.1406 474.108 24.4966 467.776 22.7124 461.527C20.2586 452.932 17.7695 444.288 15.9812 435.527C14.5939 428.731 13.7323 421.899 12.8592 415.023Z"/>
	<defs>
		<linearGradient id="gradient_0" gradientUnits="userSpaceOnUse" x1="376.82617" y1="537.32971" x2="180.95314" y2="347.72049">
			<stop offset="0" stop-color="#794311"/>
			<stop offset="1" stop-color="#051C34"/>
		</linearGradient>
	</defs>
	<path fill="url(#gradient_0)" transform="scale(0.666667 0.666667)" d="M246.285 279.545C249.592 280.84 251.932 281.726 255.562 281.547C265.634 281.051 275.33 286.542 283.531 291.748C291.767 296.977 299.074 302.521 306.252 309.129C311.138 313.627 317.114 318.521 320.92 323.953C324.625 327.529 327.831 332.181 330.758 336.425C340.6 350.702 347.373 366.142 352.486 382.688L357.588 402.348L370.07 463.011L375.68 494.673L378.012 508.22L378.068 512.539L391.518 506.212L392.122 506.02L375.164 536.619C364.553 551.902 349.789 568.361 332.365 575.773C325.746 578.589 318.284 580.2 311.224 581.451C293.579 584.578 274.283 584.705 256.688 581.432C246.871 579.496 236.713 576.809 228.098 571.592C225.942 568.551 222.771 565.977 220.257 563.191C214.354 556.652 209.866 548.746 206.699 540.561C205.943 538.607 204.622 536.598 204.54 534.482C204.592 533.451 202.693 530.381 202.37 529.067C201.836 526.902 202.096 524.414 202.102 522.179L202.12 521.111C202.184 519.468 202.109 515.338 202.827 513.962C203.426 512.815 204.811 511.732 205.755 510.872C205.768 508.596 205.062 506.23 204.66 504C204.235 501.642 203.795 498.819 204.163 496.466C204.774 492.556 207.495 488.94 209.704 485.771C211.045 484.144 212.145 482.335 213.516 480.728C215.94 477.886 218.307 475.483 220.08 472.156C220.304 470.558 220.953 469.529 221.586 468.083C226.327 457.248 230.002 446.928 232.701 435.387L232.935 433.991C233.408 425.451 230.593 415.605 228.242 407.442C226.327 399.404 223.853 391.475 221.274 383.625C219.23 377.402 216.988 370.051 213.108 364.689C209.573 359.802 204.434 355.608 199.646 352.003C195.873 349.163 189.17 345.464 187.041 341.253C185.679 338.558 185.35 335.068 184.896 332.108L182.473 316.22C181.864 311.712 180.592 306.832 180.745 302.274C180.828 299.764 181.528 297.092 182.109 294.652L182.489 293.317L182.93 292.688L183.941 291.118C188.25 285.097 200.441 282.337 207.48 281.324L209.38 282.781C210.984 283.744 212.465 284.706 214.312 285.132C215.239 284.76 215.66 284.362 216.347 283.669C224.287 278.758 238.201 280.893 247.058 282.221C247.137 281.474 247.026 281.789 247.312 281.25C248.101 281.644 248.129 281.612 249 281.438C248.54 281.16 248.22 281.02 247.687 280.892C246.916 280.706 246.744 280.17 246.285 279.545Z"/>
	<path fill="#461B12" transform="scale(0.666667 0.666667)" d="M204.54 534.482L212.417 542.871C215.67 546.67 218.737 550.802 222.758 553.836C228.429 558.114 234.976 560.115 242.062 560.207C250.661 560.318 258.845 558.615 266.732 555.206L267.427 555.432C269.104 555.902 271.757 554.959 273.458 554.582C284.716 552.084 296.282 548.607 306.019 542.229C309.421 540.001 312.57 537.671 316.338 536.057C312.956 539.971 309.725 544.134 306.138 547.855C296.179 558.187 285.136 565.639 272.918 572.982C268.45 575.667 264.171 578.702 259.312 580.626L258.741 580.894C258.052 581.199 257.426 581.299 256.688 581.432C246.871 579.496 236.713 576.809 228.098 571.592C225.942 568.551 222.771 565.977 220.257 563.191C214.354 556.652 209.866 548.746 206.699 540.561C205.943 538.607 204.622 536.598 204.54 534.482Z"/>
	<path transform="scale(0.666667 0.666667)" d="M312.33 345.666C313.268 347.149 313.835 348.95 314.834 350.323L315.091 350.957C317.328 356.291 321.128 361.266 324.286 366.09L334.322 382.739C342.16 397.239 346.657 413.502 349.703 429.62C351.27 437.914 352.681 446.417 351.913 454.882C350.549 469.915 345.178 485.297 339.727 499.285C337.253 505.635 334.18 512.312 327.658 515.441L327.07 515.695C322.978 517.528 318.684 518.337 314.606 520.051L314.163 520.213C313.688 520.418 313.838 520.351 313.504 520.734C312.255 522.169 309.866 523.411 308.25 524.514L307.699 524.304L307.431 523.531C308.775 522.214 310.799 521.187 312.405 520.169C309.994 520.695 307.758 521.469 305.448 522.32L305.196 522.139C305.822 514.832 307.976 508.687 312.468 502.792L312.772 502.402C308.44 501.893 304.968 501.894 300.759 500.482L300.977 500.067C301.467 498.48 300.007 495.957 299.154 494.639C298.137 493.068 297.022 491.926 295.125 491.575C292.469 492.077 290.122 493.999 288.048 495.639C286.77 494.592 286.714 492.417 286.343 490.894C285.945 489.264 285.235 487.438 284.411 485.981L284.204 485.625C283.169 483.822 282.1 481.84 280.097 481.104C280.656 477.024 291.694 475.155 295.117 473.412C297.729 472.082 299.705 470.088 301.803 468.086C310.009 461.775 314.404 448.711 317.719 439.269C319.476 434.266 321.325 429.098 322.669 423.967C323.238 423.421 323.736 422.918 324.188 422.27C324.821 416.536 324.692 409.57 323.313 403.954C322.961 397.065 321.124 389.756 319.703 382.991L314.543 356.314C313.869 352.742 312.671 349.294 312.33 345.666Z"/>
	<path fill="white" transform="scale(0.666667 0.666667)" d="M328.412 454.535C329.368 458.903 331.3 463.056 332.181 467.393C333.019 471.517 332.321 475.949 331.346 479.99C329.019 489.628 322.893 495.13 314.812 500.073C314.145 500.407 314.526 500.25 313.654 500.502C313.413 494.187 310.892 488.053 310.522 481.809C310.47 480.929 310.205 478.877 310.478 478.076C311.447 475.229 314.745 472.05 316.689 469.742C320.828 464.826 325.181 460.122 328.412 454.535Z"/>
	<path fill="#F4C354" transform="scale(0.666667 0.666667)" d="M220.08 472.156L221.427 472.502L219.336 477.259C222.102 478.68 225.682 480.743 226.744 483.849C226.994 484.579 226.973 485.302 226.965 486.061L226.815 486.399C225.82 488.533 224.342 490.355 223.014 492.285C220.07 496.562 219.207 499.985 218.406 505.007L218.882 505.312C219.404 505.029 220.292 504.339 220.878 504.463C222.452 504.796 223.43 506.387 224.243 507.632C228.381 504.838 231.537 502.888 236.734 503.908C239.957 504.54 242.674 505.425 245.69 506.725C246.467 506.118 248.323 504.255 249.149 504.021C250.766 503.563 253.839 503.943 255.613 503.913L256.068 504.071C258.53 504.959 260.766 506.302 262.812 507.929C264.188 506.377 265.487 504.929 267.141 503.661C270.294 503.514 274.25 503.223 277.196 504.552C278.449 503.79 280.095 504.082 281.511 504.138L281.968 505.156C283.762 501.598 285.341 498.594 288.048 495.639C290.122 493.999 292.469 492.077 295.125 491.575C297.022 491.926 298.137 493.068 299.154 494.639C300.007 495.957 301.467 498.48 300.977 500.067L300.759 500.482C304.968 501.894 308.44 501.893 312.772 502.402L312.468 502.792C307.976 508.687 305.822 514.832 305.196 522.139L305.448 522.32C307.758 521.469 309.994 520.695 312.405 520.169C310.799 521.187 308.775 522.214 307.431 523.531L307.165 523.413C301.803 532.19 291.899 538.27 283.688 544.079C278.102 548.031 272.802 551.972 266.732 555.206C258.845 558.615 250.661 560.318 242.062 560.207C234.976 560.115 228.429 558.114 222.758 553.836C218.737 550.802 215.67 546.67 212.417 542.871L204.54 534.482C204.592 533.451 202.693 530.381 202.37 529.067C201.836 526.902 202.096 524.414 202.102 522.179L202.12 521.111C202.184 519.468 202.109 515.338 202.827 513.962C203.426 512.815 204.811 511.732 205.755 510.872C205.768 508.596 205.062 506.23 204.66 504C204.235 501.642 203.795 498.819 204.163 496.466C204.774 492.556 207.495 488.94 209.704 485.771C211.045 484.144 212.145 482.335 213.516 480.728C215.94 477.886 218.307 475.483 220.08 472.156Z"/>
	<path fill="#DE7607" transform="scale(0.666667 0.666667)" d="M215.055 526.048C221.165 528.666 227.156 529.454 233.458 531.166C237.344 532.223 241.08 533.889 244.982 534.845C246.43 535.199 247.961 535.085 249.375 535.5L249.205 536.062L246.285 536.338C241.514 537.043 236.338 536.805 231.51 536.992C228 537.127 224.231 537.705 220.742 537.415C219.776 537.334 219.246 537.137 218.638 536.368C218.05 535.623 217.977 535.497 218.062 534.604C218.899 534.237 219.795 534.115 220.688 533.948L220.916 533.438C218.697 531.051 216.749 528.853 215.055 526.048Z"/>
	<path fill="#EB960C" transform="scale(0.666667 0.666667)" d="M300.759 500.482C304.968 501.894 308.44 501.893 312.772 502.402L312.468 502.792C307.976 508.687 305.822 514.832 305.196 522.139L305.448 522.32C307.758 521.469 309.994 520.695 312.405 520.169C310.799 521.187 308.775 522.214 307.431 523.531L307.165 523.413L306.551 522.831C305.583 522.871 304.907 522.976 303.969 523.21C299.953 524.213 294.601 523.448 290.862 525.353C288.292 526.662 286.869 530.033 284.812 532.032C284.275 532.555 282.722 533.881 281.961 533.943C278.868 534.194 275.013 532.088 272.258 530.907L259.46 525.45C259.131 524.694 259.227 525.035 259.106 524.448C262.81 523.699 266.591 523.098 270.188 521.915C278.513 519.177 284.639 514.004 291.244 508.49C294.446 505.816 297.78 503.427 300.759 500.482Z"/>
	<path fill="white" transform="scale(0.666667 0.666667)" d="M220.08 472.156L221.427 472.502L219.336 477.259C222.102 478.68 225.682 480.743 226.744 483.849C226.994 484.579 226.973 485.302 226.965 486.061L226.815 486.399C225.82 488.533 224.342 490.355 223.014 492.285C220.07 496.562 219.207 499.985 218.406 505.007L218.882 505.312C219.404 505.029 220.292 504.339 220.878 504.463C222.452 504.796 223.43 506.387 224.243 507.632C228.381 504.838 231.537 502.888 236.734 503.908C239.957 504.54 242.674 505.425 245.69 506.725C246.467 506.118 248.323 504.255 249.149 504.021C250.766 503.563 253.839 503.943 255.613 503.913L256.068 504.071C258.53 504.959 260.766 506.302 262.812 507.929C264.188 506.377 265.487 504.929 267.141 503.661C270.294 503.514 274.25 503.223 277.196 504.552C278.449 503.79 280.095 504.082 281.511 504.138L281.968 505.156C283.762 501.598 285.341 498.594 288.048 495.639C290.122 493.999 292.469 492.077 295.125 491.575C297.022 491.926 298.137 493.068 299.154 494.639C300.007 495.957 301.467 498.48 300.977 500.067L300.759 500.482C297.78 503.427 294.446 505.816 291.244 508.49C284.639 514.004 278.513 519.177 270.188 521.915C266.591 523.098 262.81 523.699 259.106 524.448C252.115 525.42 244.672 526.774 237.584 526.22C230.746 525.687 224.643 523.351 218.438 520.611C214.959 519.076 211.164 517.565 208.125 515.231C206.228 513.775 206.046 513.188 205.755 510.872C205.768 508.596 205.062 506.23 204.66 504C204.235 501.642 203.795 498.819 204.163 496.466C204.774 492.556 207.495 488.94 209.704 485.771C211.045 484.144 212.145 482.335 213.516 480.728C215.94 477.886 218.307 475.483 220.08 472.156Z"/>
	<path transform="scale(0.666667 0.666667)" d="M277.196 504.552C278.449 503.79 280.095 504.082 281.511 504.138L281.968 505.156L280.688 506.975C279.459 506.298 278.33 505.378 277.196 504.552Z"/>
	<path transform="scale(0.666667 0.666667)" d="M216.347 283.669C224.287 278.758 238.201 280.893 247.058 282.221C249.584 282.622 252.509 282.848 254.923 283.688C258.343 284.877 261.809 287.879 265.015 289.688L279.849 297.209C285.745 300.554 291.533 305.38 295.541 310.875C298.447 314.861 299.487 319.672 301.765 323.968C303.402 325.839 304.492 328.102 305.7 330.261C308.056 334.475 310.327 338.572 311.839 343.176C312.199 344.107 312.424 344.647 312.33 345.666C312.671 349.294 313.869 352.742 314.543 356.314L319.703 382.991C321.124 389.756 322.961 397.065 323.313 403.954C324.692 409.57 324.821 416.536 324.188 422.27C323.736 422.918 323.238 423.421 322.669 423.967C321.325 429.098 319.476 434.266 317.719 439.269C314.404 448.711 310.009 461.775 301.803 468.086C299.705 470.088 297.729 472.082 295.117 473.412C291.694 475.155 280.656 477.024 280.097 481.104C282.1 481.84 283.169 483.822 284.204 485.625L284.411 485.981C285.235 487.438 285.945 489.264 286.343 490.894C286.714 492.417 286.77 494.592 288.048 495.639C285.341 498.594 283.762 501.598 281.968 505.156L281.511 504.138C280.095 504.082 278.449 503.79 277.196 504.552C274.25 503.223 270.294 503.514 267.141 503.661C265.487 504.929 264.188 506.377 262.812 507.929C260.766 506.302 258.53 504.959 256.068 504.071L255.613 503.913C253.839 503.943 250.766 503.563 249.149 504.021C248.323 504.255 246.467 506.118 245.69 506.725C242.674 505.425 239.957 504.54 236.734 503.908C231.537 502.888 228.381 504.838 224.243 507.632C223.43 506.387 222.452 504.796 220.878 504.463C220.292 504.339 219.404 505.029 218.882 505.312L218.406 505.007C219.207 499.985 220.07 496.562 223.014 492.285C224.342 490.355 225.82 488.533 226.815 486.399L226.965 486.061C226.973 485.302 226.994 484.579 226.744 483.849C225.682 480.743 222.102 478.68 219.336 477.259L221.427 472.502L220.08 472.156C220.304 470.558 220.953 469.529 221.586 468.083C226.327 457.248 230.002 446.928 232.701 435.387L232.935 433.991C233.408 425.451 230.593 415.605 228.242 407.442C226.327 399.404 223.853 391.475 221.274 383.625C219.23 377.402 216.988 370.051 213.108 364.689C209.573 359.802 204.434 355.608 199.646 352.003C195.873 349.163 189.17 345.464 187.041 341.253C185.679 338.558 185.35 335.068 184.896 332.108L182.473 316.22C181.864 311.712 180.592 306.832 180.745 302.274C180.828 299.764 181.528 297.092 182.109 294.652L182.489 293.317L182.93 292.688L183.941 291.118C188.25 285.097 200.441 282.337 207.48 281.324L209.38 282.781C210.984 283.744 212.465 284.706 214.312 285.132C215.239 284.76 215.66 284.362 216.347 283.669Z"/>
	<path fill="#461B12" transform="scale(0.666667 0.666667)" d="M311.839 343.176C312.199 344.107 312.424 344.647 312.33 345.666C312.671 349.294 313.869 352.742 314.543 356.314L319.703 382.991L319.247 383.878L319.157 383.153C319.075 382.519 318.936 381.985 318.75 381.375C318.51 380.59 318.408 379.78 318.334 378.967C318.277 378.345 318.206 377.831 317.755 377.38C317.633 378.526 317.526 379.178 317.992 380.258C318.473 381.372 318.453 383.031 318.491 384.237L318.184 384.649L311.851 352.781C311.39 349.954 310.559 346.754 310.675 343.902L311.418 343.891L311.839 343.176Z"/>
	<defs>
		<linearGradient id="gradient_1" gradientUnits="userSpaceOnUse" x1="319.72903" y1="400.37631" x2="322.7832" y2="400.00223">
			<stop offset="0" stop-color="#55220F"/>
			<stop offset="1" stop-color="#351419"/>
		</linearGradient>
	</defs>
	<path fill="url(#gradient_1)" transform="scale(0.666667 0.666667)" d="M318.184 384.649L318.491 384.237C318.453 383.031 318.473 381.372 317.992 380.258C317.526 379.178 317.633 378.526 317.755 377.38C318.206 377.831 318.277 378.345 318.334 378.967C318.408 379.78 318.51 380.59 318.75 381.375C318.936 381.985 319.075 382.519 319.157 383.153L319.247 383.878L319.703 382.991C321.124 389.756 322.961 397.065 323.313 403.954C324.692 409.57 324.821 416.536 324.188 422.27C323.736 422.918 323.238 423.421 322.669 423.967L322.849 423.011C323.372 421.739 323.001 419.457 322.951 418.049C322.699 410.861 321.506 404.082 320.593 396.986L318.184 384.649Z"/>
	<path fill="#985522" transform="scale(0.666667 0.666667)" d="M301.765 323.968C303.402 325.839 304.492 328.102 305.7 330.261C308.056 334.475 310.327 338.572 311.839 343.176L311.418 343.891L310.675 343.902C309.575 339.839 305.978 336.979 303.188 333.998C300.482 331.107 297.914 328.116 295.007 325.42L301.765 323.968Z"/>
	<path fill="white" transform="scale(0.666667 0.666667)" d="M242.906 497.691C241.916 498.898 240.745 500.419 239.44 501.306C237.931 502.332 235.988 502.347 234.269 501.915C232.472 501.464 230.82 500.596 229.938 498.868C229.433 497.878 229.528 497.147 229.872 496.125C230.527 494.182 232.16 492.315 234.018 491.438C237.576 489.757 240.894 490.835 244.312 492.136L244.462 493.327L242.906 497.691Z"/>
	<path fill="white" transform="scale(0.666667 0.666667)" d="M263.791 475.912C264.544 475.546 264.196 475.606 264.987 475.623C267.142 475.67 270.012 475.908 272.071 475.291L272.438 475.169C274.845 474.391 276.899 472.384 278.909 470.888C284.447 466.765 289.479 464.403 296.508 465.504C298.67 465.843 300.478 466.292 301.803 468.086C299.705 470.088 297.729 472.082 295.117 473.412C291.694 475.155 280.656 477.024 280.097 481.104C282.1 481.84 283.169 483.822 284.204 485.625L284.411 485.981C285.235 487.438 285.945 489.264 286.343 490.894C286.714 492.417 286.77 494.592 288.048 495.639C285.341 498.594 283.762 501.598 281.968 505.156L281.511 504.138C280.095 504.082 278.449 503.79 277.196 504.552C274.25 503.223 270.294 503.514 267.141 503.661C265.487 504.929 264.188 506.377 262.812 507.929C260.766 506.302 258.53 504.959 256.068 504.071L255.613 503.913C253.693 502.954 251.121 503.661 249.046 503.492L248.625 503.441L247.877 504.002C247.012 504.43 246.675 504.795 246.002 505.502C244.747 505.818 243.809 504.925 242.6 504.52L241.875 504.283C240.207 503.728 238.519 503.468 236.812 503.066C237.929 502.904 239.19 502.558 240.126 501.896C241.783 500.723 242.539 499.633 242.906 497.691L244.462 493.327L244.891 493.939C246.734 490.824 252.4 489.712 255.581 487.858C257.225 486.9 259.206 485.722 260.451 484.268C262.257 482.158 263.116 478.551 263.791 475.912Z"/>
	<defs>
		<linearGradient id="gradient_2" gradientUnits="userSpaceOnUse" x1="254.05612" y1="512.5495" x2="272.53928" y2="477.81442">
			<stop offset="0" stop-color="black"/>
			<stop offset="1" stop-color="#272731"/>
		</linearGradient>
	</defs>
	<path fill="url(#gradient_2)" transform="scale(0.666667 0.666667)" d="M280.097 481.104C282.1 481.84 283.169 483.822 284.204 485.625L284.411 485.981C285.235 487.438 285.945 489.264 286.343 490.894C286.714 492.417 286.77 494.592 288.048 495.639C285.341 498.594 283.762 501.598 281.968 505.156L281.511 504.138C280.095 504.082 278.449 503.79 277.196 504.552C274.25 503.223 270.294 503.514 267.141 503.661C265.487 504.929 264.188 506.377 262.812 507.929C260.766 506.302 258.53 504.959 256.068 504.071L255.613 503.913C253.693 502.954 251.121 503.661 249.046 503.492L248.625 503.441L247.877 504.002C247.012 504.43 246.675 504.795 246.002 505.502C244.747 505.818 243.809 504.925 242.6 504.52L241.875 504.283C240.207 503.728 238.519 503.468 236.812 503.066C237.929 502.904 239.19 502.558 240.126 501.896C241.783 500.723 242.539 499.633 242.906 497.691L244.462 493.327L244.891 493.939L244.695 496.313C245.504 498.385 246.977 500.503 249.11 501.379C250.893 502.112 253.836 501.721 255.562 500.944C259.812 499.033 260.085 491.852 261.727 487.985C263.669 491.749 265.617 496.257 269.438 498.467C271.166 499.467 273.46 499.863 275.395 499.312C279.329 494.902 278.703 487.188 279.946 481.742L280.097 481.104Z"/>
	<path fill="#FFB8B4" transform="scale(0.666667 0.666667)" d="M322.849 423.011L322.669 423.967C321.325 429.098 319.476 434.266 317.719 439.269C314.404 448.711 310.009 461.775 301.803 468.086C300.478 466.292 298.67 465.843 296.508 465.504C289.479 464.403 284.447 466.765 278.909 470.888C276.899 472.384 274.845 474.391 272.438 475.169L272.071 475.291C270.012 475.908 267.142 475.67 264.987 475.623C264.196 475.606 264.544 475.546 263.791 475.912L263.379 464.062C263.264 460.323 262.832 455.899 263.882 452.298C264.882 448.868 267.742 445.062 270.188 442.499C274.806 437.66 279.907 433.392 285.872 430.312C297.225 424.452 310.308 423.376 322.849 423.011Z"/>
	<path fill="#603019" transform="scale(0.666667 0.666667)" d="M216.347 283.669C224.287 278.758 238.201 280.893 247.058 282.221C249.584 282.622 252.509 282.848 254.923 283.688C258.343 284.877 261.809 287.879 265.015 289.688L279.849 297.209C285.745 300.554 291.533 305.38 295.541 310.875C298.447 314.861 299.487 319.672 301.765 323.968L295.007 325.42C293.043 326.191 290.296 326.505 288.188 326.61C284.367 325.13 283.208 315.341 280.986 311.91C280.229 310.742 279.369 310.442 278.062 310.183L277.684 310.721C277.664 311.203 277.679 311.902 277.515 312.375C276.769 314.527 273.46 317.197 271.442 318.035C270.472 318.438 269.621 318.498 268.645 318.03C264.577 316.079 261.752 308.947 259.98 305.091C259.038 303.04 257.936 300.884 257.282 298.722L257.122 298.171C255.353 299.658 253.569 301.193 251.438 302.143C249.194 303.143 246.411 303.311 244.125 302.37C240.168 300.742 238.394 296.887 236.882 293.191C236.038 295.56 235.406 297.348 233.184 298.79C230.473 300.55 226.067 302.06 222.856 301.264C220.308 300.632 218.146 297.446 216.908 295.314C216.591 294.77 216.828 295.016 216.204 294.656L215.94 295.833L215.987 296.314C216.664 302.549 220.769 309.088 223.795 314.506L233.306 330.594C244.629 347.948 258.382 366.297 261.802 387.234C263.467 397.425 263.09 407.863 262.667 418.125L262.196 432.951C262.078 436.258 262.056 439.565 261.31 442.808C259.243 451.777 252.55 459.271 246.99 466.311C242.323 472.22 237.409 476.949 232.106 482.227C231.064 483.265 229.5 485.539 228.106 485.854L227.625 485.164L227.356 485.619L226.965 486.061C226.973 485.302 226.994 484.579 226.744 483.849C225.682 480.743 222.102 478.68 219.336 477.259L221.427 472.502L220.08 472.156C220.304 470.558 220.953 469.529 221.586 468.083C226.327 457.248 230.002 446.928 232.701 435.387L232.935 433.991C233.408 425.451 230.593 415.605 228.242 407.442C226.327 399.404 223.853 391.475 221.274 383.625C219.23 377.402 216.988 370.051 213.108 364.689C209.573 359.802 204.434 355.608 199.646 352.003C195.873 349.163 189.17 345.464 187.041 341.253C185.679 338.558 185.35 335.068 184.896 332.108L182.473 316.22C181.864 311.712 180.592 306.832 180.745 302.274C180.828 299.764 181.528 297.092 182.109 294.652L182.489 293.317L182.93 292.688L183.941 291.118C188.25 285.097 200.441 282.337 207.48 281.324L209.38 282.781C210.984 283.744 212.465 284.706 214.312 285.132C215.239 284.76 215.66 284.362 216.347 283.669Z"/>
	<defs>
		<linearGradient id="gradient_3" gradientUnits="userSpaceOnUse" x1="170.23616" y1="369.89429" x2="257.45471" y2="416.07452">
			<stop offset="0" stop-color="#63200B"/>
			<stop offset="1" stop-color="#D28F22"/>
		</linearGradient>
	</defs>
	<path fill="url(#gradient_3)" transform="scale(0.666667 0.666667)" d="M205.044 312.751C206.571 314.085 207.465 315.933 208.58 317.603C209.893 319.569 211.363 321.448 212.851 323.283C216.663 327.986 221.009 332.215 224.728 337.006C232.655 347.22 237.678 360.585 240.526 373.11C241.433 376.227 242.344 379.777 243.951 382.618C244.83 384.173 246.16 385.503 247.144 387.013C248.697 389.395 249.416 392.081 249.778 394.875L249.867 395.531C250.565 401.157 249.749 407.234 249.388 412.875C249.007 418.813 248.662 424.748 247.761 430.637C247.427 432.824 247.164 435.359 246.429 437.438C245.655 439.625 243.855 441.802 242.415 443.603C238.399 448.626 233.365 452.85 229.584 458.054C226.308 462.563 224.278 467.75 221.427 472.502L220.08 472.156C220.304 470.558 220.953 469.529 221.586 468.083C226.327 457.248 230.002 446.928 232.701 435.387L232.935 433.991L233.339 434.2C234.351 432.124 234.494 429.178 234.872 426.902L234.694 425.834C233.532 420.754 233.47 415.435 232.716 410.267C231.809 404.06 230.232 398.081 228.581 392.039C226.858 385.728 224.933 379.054 222.003 373.199C221.054 371.172 220.332 368.997 219.517 366.91C219.203 366.104 218.457 364.758 218.352 363.938C218.293 363.475 219.171 361.831 219.389 361.366C220.135 359.778 221.06 358.464 221.521 356.742L221.604 356.411L218.805 350.891L215.175 344.915C212.518 347.772 210.241 350.83 208.043 354.048C204.917 351.814 202.365 348.434 200.076 345.392C199.512 344.642 198.253 343.066 198.03 342.18C197.784 341.198 198.008 339.363 198.007 338.289C197.998 330.766 199.179 323.553 200.183 316.125C199.874 315.63 199.691 315.305 199.521 314.739C201.834 314.749 202.999 314.597 204.752 313.021L205.044 312.751Z"/>
	<defs>
		<linearGradient id="gradient_4" gradientUnits="userSpaceOnUse" x1="246.66052" y1="399.61945" x2="209.20418" y2="382.94534">
			<stop offset="0" stop-color="#F3C35A"/>
			<stop offset="1" stop-color="#F9E4A4"/>
		</linearGradient>
	</defs>
	<path fill="url(#gradient_4)" transform="scale(0.666667 0.666667)" d="M221.604 356.411L228.159 368.554C230.23 371.413 231.815 374.783 233.566 377.866C236.042 382.228 245.044 396.373 244.335 401.032C243.733 404.988 241.286 409.079 239.702 412.769C237.716 417.393 236 421.988 234.872 426.902L234.694 425.834C233.532 420.754 233.47 415.435 232.716 410.267C231.809 404.06 230.232 398.081 228.581 392.039C226.858 385.728 224.933 379.054 222.003 373.199C221.054 371.172 220.332 368.997 219.517 366.91C219.203 366.104 218.457 364.758 218.352 363.938C218.293 363.475 219.171 361.831 219.389 361.366C220.135 359.778 221.06 358.464 221.521 356.742L221.604 356.411Z"/>
	<path fill="white" transform="scale(0.666667 0.666667)" d="M216.347 283.669C224.287 278.758 238.201 280.893 247.058 282.221C249.584 282.622 252.509 282.848 254.923 283.688C258.343 284.877 261.809 287.879 265.015 289.688L279.849 297.209C285.745 300.554 291.533 305.38 295.541 310.875C298.447 314.861 299.487 319.672 301.765 323.968L295.007 325.42C293.043 326.191 290.296 326.505 288.188 326.61C284.367 325.13 283.208 315.341 280.986 311.91C280.229 310.742 279.369 310.442 278.062 310.183L277.684 310.721C277.664 311.203 277.679 311.902 277.515 312.375C276.769 314.527 273.46 317.197 271.442 318.035C270.472 318.438 269.621 318.498 268.645 318.03C264.577 316.079 261.752 308.947 259.98 305.091C259.038 303.04 257.936 300.884 257.282 298.722L257.122 298.171C255.353 299.658 253.569 301.193 251.438 302.143C249.194 303.143 246.411 303.311 244.125 302.37C240.168 300.742 238.394 296.887 236.882 293.191C236.038 295.56 235.406 297.348 233.184 298.79C230.473 300.55 226.067 302.06 222.856 301.264C220.308 300.632 218.146 297.446 216.908 295.314C216.591 294.77 216.828 295.016 216.204 294.656L215.94 295.833L215.643 296.278C214.609 297.795 213.29 299.483 211.312 299.696L205.543 299.601C204.681 301.505 202.804 306.107 203.456 308.053L203.812 308.914L205.044 312.751L204.752 313.021C202.999 314.597 201.834 314.749 199.521 314.739C199.691 315.305 199.874 315.63 200.183 316.125C199.179 323.553 197.998 330.766 198.007 338.289C198.008 339.363 197.784 341.198 198.03 342.18C198.253 343.066 199.512 344.642 200.076 345.392C202.365 348.434 204.917 351.814 208.043 354.048C210.241 350.83 212.518 347.772 215.175 344.915L218.805 350.891L221.604 356.411L221.521 356.742C221.06 358.464 220.135 359.778 219.389 361.366C219.171 361.831 218.293 363.475 218.352 363.938C218.457 364.758 219.203 366.104 219.517 366.91C220.332 368.997 221.054 371.172 222.003 373.199C224.933 379.054 226.858 385.728 228.581 392.039C230.232 398.081 231.809 404.06 232.716 410.267C233.47 415.435 233.532 420.754 234.694 425.834L234.872 426.902C234.494 429.178 234.351 432.124 233.339 434.2L232.935 433.991C233.408 425.451 230.593 415.605 228.242 407.442C226.327 399.404 223.853 391.475 221.274 383.625C219.23 377.402 216.988 370.051 213.108 364.689C209.573 359.802 204.434 355.608 199.646 352.003C195.873 349.163 189.17 345.464 187.041 341.253C185.679 338.558 185.35 335.068 184.896 332.108L182.473 316.22C181.864 311.712 180.592 306.832 180.745 302.274C180.828 299.764 181.528 297.092 182.109 294.652L182.489 293.317L182.93 292.688L183.941 291.118C188.25 285.097 200.441 282.337 207.48 281.324L209.38 282.781C210.984 283.744 212.465 284.706 214.312 285.132C215.239 284.76 215.66 284.362 216.347 283.669Z"/>
	<path fill="#633B14" transform="scale(0.666667 0.666667)" d="M293.533 195.736C296.816 194.569 300.336 193.911 303.705 193.014L328.125 187.082C344.412 183.508 360.512 180.314 377.203 179.401C387.145 178.858 397.157 179.404 407.054 180.376C437.217 183.338 466.649 192.133 493.988 205.117C513.944 214.595 533.541 227.327 547.787 244.445C552.627 250.26 556.28 256.913 559.433 263.759C561.211 267.621 562.799 271.827 564.984 275.463C566.534 278.043 590.006 306.673 591.436 307.31C593.007 307.769 594.751 309.741 595.594 311.156L596.066 311.062L597.656 310.805C598.431 310.65 599.072 310.303 599.625 309.75L599.62 307.756L599.742 307.705C600.203 308.266 599.918 308.006 600.636 308.443C602.998 306.23 606.083 304.56 608.839 302.889L632.12 289.977C634.781 288.38 637.811 286.725 640.067 284.587L640.153 284.276L675.572 266.57L726.373 240.396L733.451 258.38C736.008 263.773 737.841 269.687 739.715 275.355C747.339 298.418 752.406 322.273 755.159 346.399C755.676 350.929 756.483 355.689 756.423 360.24L756.188 363.386C749.464 365.702 742.259 367.241 735.375 369.037L672.782 384.508L639.307 394.553L626.051 398.967C624.619 399.432 622.831 400.304 621.375 400.524C621.011 400.579 620.498 400.599 620.132 400.458L619.616 400.167L623.514 393.383C622.049 392.595 618.825 393.442 617.109 393.601C612.068 394.066 606.974 394.517 601.907 394.47L604.031 408.048C602.258 406.801 600.552 405.525 599.018 403.987C595.612 400.572 592.551 396.567 588.865 393.467C587.801 392.572 586.945 391.813 585.512 391.688C584.719 393.832 590.833 409.22 591.675 412.757C587.356 409.562 583.078 406.603 578.244 404.216L603.529 448.545C594.026 441.587 582.79 435.958 572.302 430.628C572.885 432.708 574.665 435.054 575.793 436.922C580.861 445.316 586.658 454.048 592.937 461.567L559.755 459.279L574.09 491.98L554.328 491.73L554.015 492.182C552.644 494.083 551.716 493.95 549.562 494.26L540.84 495.403C542.395 505.547 541.281 514.634 539.859 524.697C539.576 526.696 539.559 529.45 538.827 531.31C537.615 534.389 534.458 537.734 532.595 540.571C529.733 544.929 527.13 549.468 524.812 554.137L524.533 554.425L446.135 638.931C446.66 635.035 448.511 623.785 445.846 620.627C445.363 620.054 445.124 620.107 444.428 619.878L444.034 619.708C444.079 618.001 445.449 615.134 446.038 613.513C450.749 600.535 456.261 588.261 463.312 576.381C462.569 575.209 461.305 576.216 460.131 575.438C463.795 567.64 469.109 560.318 471.492 551.999C466.799 547.252 463.451 541.706 459.68 536.227C454.557 528.785 449.37 521.2 444.947 513.314C437.372 499.807 431.334 485.235 427.368 470.272L420.347 442.821C419.389 439.185 418.622 434.996 417.182 431.525L416.557 431.917C417.071 442.042 416.294 452.106 416.189 462.223L416.139 470.062C416.139 470.576 416.299 472.077 416.148 472.5C415.993 472.934 415.547 473.2 415.246 473.55L415.684 473.89C410.246 476.915 406.052 484.955 402.64 490.059L396.56 498.95L393.247 504.354C392.962 504.819 392.543 505.739 392.122 506.02L391.518 506.212L378.068 512.539L378.012 508.22L375.68 494.673L370.07 463.011L357.588 402.348L352.486 382.688C347.373 366.142 340.6 350.702 330.758 336.425C327.831 332.181 324.625 327.529 320.92 323.953C317.114 318.521 311.138 313.627 306.252 309.129C299.074 302.521 291.767 296.977 283.531 291.748C275.33 286.542 265.634 281.051 255.562 281.547C251.932 281.726 249.592 280.84 246.285 279.545L246.285 279.502C243.116 277.559 241.094 275.46 239.153 272.321C240.615 270.134 242.295 268.239 244.671 267.009C249.95 264.276 256.367 264.351 262.157 264.36L280.904 264.949C286.234 265.198 293.002 265.737 297.717 262.804C300.256 261.225 302.033 258.944 302.671 256.008C304.636 246.975 295.659 229.396 290.741 221.906C288.261 218.128 285.105 214.804 282.884 210.853C279.443 204.729 277.452 197.847 273.508 192.02C274.133 191.219 274.253 191.203 275.229 190.884C278.989 191.627 282.793 192.874 286.455 194.03C288.694 194.737 291.175 195.733 293.533 195.736Z"/>
	<path fill="#603019" transform="scale(0.666667 0.666667)" d="M603.425 323.365L603.905 324.195C603.097 324.928 602.636 325.283 601.592 325.654C595.865 327.687 590.79 331.705 584.998 333.345C581.602 334.307 578.405 335.378 574.828 335.441L576.504 332.932C578.121 333.023 581.451 330.759 583.253 330.085L603.425 323.365Z"/>
	<path fill="#985522" transform="scale(0.666667 0.666667)" d="M594.791 311.579C595.912 311.965 597.02 311.669 598.147 311.316C606.145 308.81 616.299 309.078 624.654 308.907C623.616 310.742 621.97 311.914 620.398 313.275C617.835 315.493 615.45 317.846 612.5 319.582C610.272 320.893 607.793 321.713 605.368 322.573C605.047 322.686 603.481 323.148 603.425 323.365L583.253 330.085C581.451 330.759 578.121 333.023 576.504 332.932C580.037 328.507 584.132 324.293 587.975 320.118C590.402 317.482 593.164 314.811 594.791 311.579Z"/>
	<path transform="scale(0.666667 0.666667)" d="M620.825 323.371C628.71 323.357 635.053 325.635 640.861 330.961C638.124 338.558 632.386 343.744 627.883 350.214C624.779 354.673 622.203 359.427 618.905 363.759C621.106 363.454 623.333 362.696 625.489 362.134C629.49 361.09 632.78 360.326 636.472 358.361C633.239 362.672 629.964 369.926 625.312 372.753C622.097 374.708 617.822 375.542 614.213 376.44C610.293 377.701 606.197 378.292 602.273 379.684C599.222 380.767 596.617 382.328 593.861 384.001C587.643 376.154 583.242 365.135 579.743 355.754C583.815 354.785 587.712 353.496 591.23 351.163C595.987 348.011 599.633 342.887 603.104 338.438C605.966 334.769 608.939 331.235 612.271 327.981C613.78 326.508 615.576 324.719 617.587 323.969C618.578 323.6 619.779 323.502 620.825 323.371Z"/>
	<path fill="#F29D00" transform="scale(0.666667 0.666667)" d="M726.373 240.396L733.451 258.38C736.008 263.773 737.841 269.687 739.715 275.355C747.339 298.418 752.406 322.273 755.159 346.399C755.676 350.929 756.483 355.689 756.423 360.24L756.188 363.386C749.464 365.702 742.259 367.241 735.375 369.037L672.782 384.508L639.307 394.553L626.051 398.967C624.619 399.432 622.831 400.304 621.375 400.524C621.011 400.579 620.498 400.599 620.132 400.458L619.616 400.167L623.514 393.383C625.576 390.573 628.484 388.284 630.938 385.811C643.014 373.636 650.541 356.317 655.4 340.1C656.99 334.792 658.72 328.95 658.66 323.363C658.623 319.867 657.65 316.88 655.029 314.438C647.372 307.302 634.318 308.456 624.654 308.907C616.299 309.078 606.145 308.81 598.147 311.316C597.02 311.669 595.912 311.965 594.791 311.579L594.452 310.681L591.436 307.31C593.007 307.769 594.751 309.741 595.594 311.156L596.066 311.062L597.656 310.805C598.431 310.65 599.072 310.303 599.625 309.75L599.62 307.756L599.742 307.705C600.203 308.266 599.918 308.006 600.636 308.443C602.998 306.23 606.083 304.56 608.839 302.889L632.12 289.977C634.781 288.38 637.811 286.725 640.067 284.587L640.153 284.276L675.572 266.57L726.373 240.396Z"/>
	<path fill="#F4C354" transform="scale(0.666667 0.666667)" d="M726.373 240.396L733.451 258.38C731.793 259.953 729.607 261.002 727.636 262.142L716.696 268.224L684.088 286.465L661.322 299.276C656.026 302.278 650.745 305.7 644.986 307.745C644.995 299.482 642.583 292.337 640.067 284.587L640.153 284.276L675.572 266.57L726.373 240.396Z"/>
	<path fill="#F4C354" transform="scale(0.666667 0.666667)" d="M387.685 314.577C394.323 310.869 405.74 310.514 413.151 311.871C411.407 314.165 409.898 316.308 407.758 318.252C419.617 317.524 431.282 314.956 443.246 315.79C448.41 316.15 453.863 316.802 458.94 317.77C462.037 318.361 465.102 319.219 468.146 320.036C469.859 320.496 471.908 321.259 473.675 321.092C483.639 325.383 490.56 332.196 498.917 338.768C502.316 341.441 505.975 343.716 509.285 346.501L479.438 338.218L479.29 338.492L529.635 362.436L535.986 365.317C536.491 365.546 537.653 366.23 538.159 366.218C539.456 366.973 541.144 367.787 542.226 368.813C543.904 370.404 545.124 372.758 546.611 374.56C549.046 377.512 551.886 380.054 554.232 383.091L525.166 370.517L550.3 395.331C547.747 394.238 545.074 392.873 542.389 392.152C538.583 391.129 534.633 390.688 530.912 389.325C524.742 387.064 518.711 382.112 513.375 378.338L499.543 368.601C498.968 368.204 499.29 368.276 498.566 368.438C509.447 376.877 520.674 385.206 530.665 394.711C536.621 400.377 541.688 406.844 547.578 412.555C539.972 409.32 532.08 406.524 524.768 402.666C514.663 397.336 505.529 390.22 496.312 383.508L496.312 383.907L517.267 403L527.677 413.574C532.449 418.17 538.681 422.132 542.419 427.654C539.162 426.27 535.778 425.666 532.545 424.402C529.799 423.329 527.298 421.736 524.537 420.692L534.587 440.225C531.64 438.005 529.443 435.355 526.973 432.648C526.334 431.947 524.951 430.036 524.206 429.681L492.188 395.779L491.812 395.825C502.072 407.716 510.058 420.654 518.354 433.909L528.931 454.358C520.369 446.378 510.94 439.574 502.117 431.929L493.321 423.817C492.01 422.585 490.637 420.967 489.09 420.099C489.87 421.95 491.956 423.762 493.179 425.407C496.088 429.32 498.883 433.227 501.438 437.383C512.074 454.685 522.609 473.293 529.714 492.361C531.972 498.421 533.615 504.71 535.244 510.962L497.369 468.383C496.502 476.2 499.055 484.03 499.258 491.758L510.472 541.104C498.858 525.104 489.023 506.885 480.322 489.156C479.906 497.291 479.624 505.43 478.537 513.511L471.492 551.999C466.799 547.252 463.451 541.706 459.68 536.227C454.557 528.785 449.37 521.2 444.947 513.314C437.372 499.807 431.334 485.235 427.368 470.272L420.347 442.821C419.389 439.185 418.622 434.996 417.182 431.525L416.557 431.917L416.513 431.923L408.786 376.125L408.664 375.542C407.618 372.078 402.609 367.929 400.091 365.399C390.725 355.988 381.067 347.16 370.552 339.04C363.998 333.98 357.767 329.395 350.432 325.502C350.601 324.835 353.384 323.501 354.093 323.224C361.735 320.23 370.339 318.844 378.375 317.248C381.02 316.723 385.732 316.339 387.938 314.939L387.685 314.577Z"/>
	<path fill="#EB960C" transform="scale(0.666667 0.666667)" d="M490.875 476.25C491.322 477.039 491.562 477.156 492.375 477.478C493.06 477.121 493.571 476.864 494.343 476.771L494.681 477.382C494.223 478.117 493.75 478.655 493.132 479.26L492.649 478.808L492.382 479.259C492.819 480.192 493.225 481.131 493.814 481.98C494.418 482.851 494.807 483.804 495.375 484.688L498.094 489.281L498.375 488.812C497.873 487.704 498.045 486.838 497.682 485.777C497.412 484.985 497.594 484.195 497.533 483.375L497.309 481.123L497.158 480.375C497.081 479.798 497.125 479.259 496.971 478.684C496.796 478.033 496.659 477.662 496.771 476.977L496.875 476.438C496.898 475.167 496.953 472.958 496.691 471.75C496.528 471 496.354 470.719 496.408 469.875C496.49 468.594 496.666 468.1 495.885 467.01L492.188 461.25C491.798 460.626 491.61 460.251 491.028 459.784L490.502 459.373L490.5 458.812L490.031 458.344C488.866 456.596 490.483 458.536 489.426 457.296C489.07 456.878 488.725 456.472 488.438 456C487.796 454.946 486.874 454.28 486.264 453.264C485.382 451.794 483.627 450.575 482.416 449.342C481.989 448.908 482.005 448.432 481.573 447.98C476.276 442.446 470.732 436.533 464.962 431.511L464.441 431.062L464.812 430.691L476.379 442.13C480.179 445.931 484.074 449.655 487.456 453.843C491.108 458.364 494.329 463.43 497.369 468.383C496.502 476.2 499.055 484.03 499.258 491.758C498.439 491.312 498.194 490.951 497.811 490.14C495.414 485.062 492.102 480.342 489.529 475.326C483.092 462.776 477.513 449.878 469.379 438.252C469.018 437.736 468.857 437.591 468.752 436.969C469.496 437.395 469.322 437.171 469.734 437.818L477 449.812L479.418 454.029C480.399 455.498 480.902 457.177 481.869 458.628C484.44 462.484 486.123 467.136 488.15 471.302C488.636 472.302 489.332 474.354 490.23 474.99L490.523 475.137L490.875 476.25Z"/>
	<defs>
		<linearGradient id="gradient_5" gradientUnits="userSpaceOnUse" x1="414.896" y1="236.0081" x2="271.37997" y2="425.00089">
			<stop offset="0" stop-color="#E9A834"/>
			<stop offset="1" stop-color="#F8CE66"/>
		</linearGradient>
	</defs>
	<path fill="url(#gradient_5)" transform="scale(0.666667 0.666667)" d="M293.533 195.736C296.816 194.569 300.336 193.911 303.705 193.014L328.125 187.082C344.412 183.508 360.512 180.314 377.203 179.401C387.145 178.858 397.157 179.404 407.054 180.376C437.217 183.338 466.649 192.133 493.988 205.117C513.944 214.595 533.541 227.327 547.787 244.445C552.627 250.26 556.28 256.913 559.433 263.759C561.211 267.621 562.799 271.827 564.984 275.463C566.534 278.043 590.006 306.673 591.436 307.31L594.452 310.681L594.791 311.579C593.164 314.811 590.402 317.482 587.975 320.118C584.132 324.293 580.037 328.507 576.504 332.932L574.828 335.441C570.916 336.282 566.967 336.151 563.116 336.905C561.694 337.184 558.359 338.725 557.189 338.392C554.703 336.318 552.899 331.972 551.03 329.22C548.573 325.602 545.787 322.253 543.525 318.489C542.655 317.04 541.691 315.584 540.957 314.063C540.325 312.752 540.019 311.033 538.868 310.098L538.423 310.245C537.777 310.405 537.593 310.35 536.984 310.261C536.244 310.152 535.712 310.207 534.986 310.388C532.301 311.055 529.77 312.237 527.061 312.868C526.034 313.108 523.003 313.25 522.318 313.759C525.691 317.359 528.851 321.312 531.54 325.454C534.886 330.609 537.822 336.478 542.221 340.832C540.179 342.049 538.044 343.277 535.8 344.083L536.644 344.68C539.134 344.024 541.15 343.385 543.77 343.421C548.924 348.168 552.564 353.821 553.115 360.983L553.196 361.348C553.862 364.149 555.436 366.772 557.357 368.891C558.203 369.824 559.541 370.875 560.04 372.017C555.577 370.097 542.065 363.998 537.752 365.252C537.752 365.863 537.682 365.521 538.159 366.218C537.653 366.23 536.491 365.546 535.986 365.317L529.635 362.436L479.29 338.492L479.438 338.218L509.285 346.501C505.975 343.716 502.316 341.441 498.917 338.768C490.56 332.196 483.639 325.383 473.675 321.092C471.908 321.259 469.859 320.496 468.146 320.036C465.102 319.219 462.037 318.361 458.94 317.77C453.863 316.802 448.41 316.15 443.246 315.79C431.282 314.956 419.617 317.524 407.758 318.252C409.898 316.308 411.407 314.165 413.151 311.871C405.74 310.514 394.323 310.869 387.685 314.577L387.938 314.939C385.732 316.339 381.02 316.723 378.375 317.248C370.339 318.844 361.735 320.23 354.093 323.224C353.384 323.501 350.601 324.835 350.432 325.502C357.767 329.395 363.998 333.98 370.552 339.04C381.067 347.16 390.725 355.988 400.091 365.399C402.609 367.929 407.618 372.078 408.664 375.542L408.786 376.125L416.513 431.923L416.557 431.917C417.071 442.042 416.294 452.106 416.189 462.223L416.139 470.062C416.139 470.576 416.299 472.077 416.148 472.5C415.993 472.934 415.547 473.2 415.246 473.55L415.684 473.89C410.246 476.915 406.052 484.955 402.64 490.059L396.56 498.95L393.247 504.354C392.962 504.819 392.543 505.739 392.122 506.02L391.518 506.212L378.068 512.539L378.012 508.22L375.68 494.673L370.07 463.011L357.588 402.348L352.486 382.688C347.373 366.142 340.6 350.702 330.758 336.425C327.831 332.181 324.625 327.529 320.92 323.953C317.114 318.521 311.138 313.627 306.252 309.129C299.074 302.521 291.767 296.977 283.531 291.748C275.33 286.542 265.634 281.051 255.562 281.547C251.932 281.726 249.592 280.84 246.285 279.545L246.285 279.502C243.116 277.559 241.094 275.46 239.153 272.321C240.615 270.134 242.295 268.239 244.671 267.009C249.95 264.276 256.367 264.351 262.157 264.36L280.904 264.949C286.234 265.198 293.002 265.737 297.717 262.804C300.256 261.225 302.033 258.944 302.671 256.008C304.636 246.975 295.659 229.396 290.741 221.906C288.261 218.128 285.105 214.804 282.884 210.853C279.443 204.729 277.452 197.847 273.508 192.02C274.133 191.219 274.253 191.203 275.229 190.884C278.989 191.627 282.793 192.874 286.455 194.03C288.694 194.737 291.175 195.733 293.533 195.736Z"/>
	<path fill="#EB960C" transform="scale(0.666667 0.666667)" d="M352.674 215.438L353.238 215.214C353.618 215.857 354.004 216.256 354.562 216.75C355.34 216.417 355.696 216.567 356.438 216.375C357.197 216.178 357.31 216.064 358.114 216.094C357.697 216.316 357.376 216.443 356.91 216.545L342.43 220.884C340.829 221.46 338.809 222.57 337.127 222.618L337.127 222.377L338.705 221.581L352.674 215.438Z"/>
	<path fill="#EB960C" transform="scale(0.666667 0.666667)" d="M378.012 508.22C387.817 498.775 396.468 488.225 405.666 478.215L409.863 473.486C410.788 472.368 411.194 471.457 412.371 470.523C413.246 472.205 413.403 472.841 415.246 473.55L415.684 473.89C410.246 476.915 406.052 484.955 402.64 490.059L396.56 498.95L393.247 504.354C392.962 504.819 392.543 505.739 392.122 506.02L391.518 506.212L378.068 512.539L378.012 508.22Z"/>
	<defs>
		<linearGradient id="gradient_6" gradientUnits="userSpaceOnUse" x1="361.37405" y1="222.8277" x2="402.25629" y2="208.9015">
			<stop offset="0" stop-color="#82460A"/>
			<stop offset="1" stop-color="#C78834"/>
		</linearGradient>
	</defs>
	<path fill="url(#gradient_6)" transform="scale(0.666667 0.666667)" d="M381.781 210.775L381.494 211.425C382.89 212.18 385.74 211.72 387.302 211.531C392.997 210.843 398.847 209.499 404.422 208.146C408.563 207.14 413.756 205.222 418.026 205.414C416.119 207.313 414.19 209.083 412.078 210.753C410.478 212.018 408.472 213.239 407.198 214.832L406.572 214.013L406.877 213.377L407.438 213.375L407.906 212.906C409.38 211.924 407.797 213.396 409.066 212.127C409.616 211.577 409.461 211.663 410.023 211.289L411.375 210.375L411.938 210L412.781 209.156C414.04 208.347 414.86 207.479 415.922 206.391C413.717 206.047 409.527 207.501 407.258 208.139C406.242 208.424 405.383 208.928 404.298 208.928C403.521 208.927 403.892 208.786 403.312 209.183L404.409 210.158L403.911 211.321L402.983 211.321C400.172 212.45 397.587 214.222 394.975 215.748L384.315 221.809L377.257 224.62C371.945 224.735 365.597 226.571 360.436 227.952L368.34 219.417C372.265 214.703 375.297 211.366 381.781 210.775Z"/>
	<path transform="scale(0.666667 0.666667)" d="M377.257 224.62C376.501 224.329 376.257 224.376 375.783 223.688L377.298 221.812C382.726 216.241 388.488 214.19 395.854 212.27C398.068 211.693 400.467 210.878 402.75 210.812L402.983 211.321C400.172 212.45 397.587 214.222 394.975 215.748L384.315 221.809L377.257 224.62Z"/>
	<defs>
		<linearGradient id="gradient_7" gradientUnits="userSpaceOnUse" x1="365.1171" y1="243.67531" x2="468.85852" y2="231.38576">
			<stop offset="0" stop-color="#B8680A"/>
			<stop offset="1" stop-color="#F5B73E"/>
		</linearGradient>
	</defs>
	<path fill="url(#gradient_7)" transform="scale(0.666667 0.666667)" d="M402.983 211.321L403.911 211.321L404.409 210.158L403.312 209.183C403.892 208.786 403.521 208.927 404.298 208.928C405.383 208.928 406.242 208.424 407.258 208.139C409.527 207.501 413.717 206.047 415.922 206.391C414.86 207.479 414.04 208.347 412.781 209.156L411.938 210L411.375 210.375L410.023 211.289C409.461 211.663 409.616 211.577 409.066 212.127C407.797 213.396 409.38 211.924 407.906 212.906L407.438 213.375L406.877 213.377L406.572 214.013L407.198 214.832C414.728 212.679 422.75 212.134 430.5 211.147C433.91 210.713 437.403 209.942 440.803 209.659C435.507 213.224 431.539 216.97 427.277 221.715L426.191 222.562L426.377 223.096C427.037 223.096 426.467 223.126 427.264 222.97C428.042 222.819 427.676 222.85 428.364 223.009C429.503 223.271 430.857 222.948 432.016 222.809C434.295 222.535 436.615 222.252 438.91 222.214C442.03 222.903 446.609 224.908 449.143 226.813L449.313 227.131C449.955 228.274 450.53 228.76 451.582 229.502C454.196 231.346 456.639 233.625 459.039 235.739C461.679 238.065 464.333 240.513 466.186 243.543C469.878 249.581 470.689 256.872 473.128 263.436C465.798 259.233 459.57 254.57 453.732 248.39C451.152 245.659 448.935 242.596 446.647 239.623C444.839 237.274 442.704 234.448 440.013 233.089C435.293 230.703 429.98 231.158 424.875 231.296L424.228 231.67C418.796 232.289 413.853 233.518 408.814 235.65L405.234 238.301C397.491 243.726 391.291 251.453 385.212 258.636C381.894 262.556 379.245 266.582 374.775 269.314C371.963 267.516 369.278 264.782 367.702 261.818L366.727 260.076C368.847 258.786 371.189 257.542 373.087 255.938C377.77 251.978 381.084 246.558 385.637 242.421C389.599 238.821 394.621 236.266 399.362 233.859C399.861 233.389 400.341 233.046 400.906 232.673C402.358 231.714 404.262 230.121 404.599 228.375C404.35 227.232 403.336 226.423 402.37 225.834C399.704 224.208 397.028 224.206 394.14 225.039C393.461 225.235 393.337 225.325 392.625 225.188C393.194 224.815 393.481 224.695 394.178 224.596L394.781 224.531L394.731 223.319C394.453 222.268 393.003 221.717 392.071 221.395L391.393 221.167L390.868 219.924L390.001 219.576C389.277 219.889 388.532 220.178 387.879 220.625C386.839 221.336 386.04 221.522 384.793 221.733L384.315 221.809L394.975 215.748C397.587 214.222 400.172 212.45 402.983 211.321Z"/>
	<defs>
		<linearGradient id="gradient_8" gradientUnits="userSpaceOnUse" x1="410.95544" y1="237.38989" x2="438.97754" y2="321.21277">
			<stop offset="0" stop-color="black"/>
			<stop offset="1" stop-color="#17283D"/>
		</linearGradient>
	</defs>
	<path fill="url(#gradient_8)" transform="scale(0.666667 0.666667)" d="M405.234 238.301C407.364 238.678 408.558 237.719 410.438 237.043C411.965 236.493 413.733 236.115 415.331 235.842C420.626 234.935 427.289 235.201 432.511 236.377C439.976 240.104 443.133 247.282 448.03 253.593C451.284 257.788 455.764 260.756 459.069 264.877C464.512 271.664 468.091 280.501 471.826 288.301C474.659 294.219 477.899 300.271 480.013 306.48C480.412 307.651 480.671 308.763 480.762 309.994C475.904 307.35 469.417 307.22 464.024 307.083L438.939 307.244C426.037 307.484 412.154 308.971 401.02 301.04C393.146 295.43 386.515 285.844 381.096 277.873C379.407 275.387 377.539 271.67 375.27 269.72L374.775 269.314C379.245 266.582 381.894 262.556 385.212 258.636C391.291 251.453 397.491 243.726 405.234 238.301Z"/>
	<path fill="white" transform="scale(0.666667 0.666667)" d="M419.515 245.42L423.75 245.59C429.783 246.047 435.496 248.817 439.451 253.408C445.488 260.416 448.494 270.978 447.816 280.125C447.53 283.987 446.561 287.179 443.579 289.803C436.654 295.9 426.435 296.965 417.658 296.46C410.462 295.926 402.507 293.338 397.014 288.545C393.016 285.056 387.841 278.411 387.65 272.904C387.467 267.633 391.282 261.802 394.688 258.027C401.683 250.273 409.035 246.027 419.515 245.42Z"/>
	<path fill="#985522" transform="scale(0.666667 0.666667)" d="M436.588 256.944C440.44 260.08 443.304 263.893 443.886 268.972C444.552 274.787 443.015 281.658 439.347 286.245C435.969 290.47 430.849 293.212 425.464 293.686C416.625 294.463 406.867 292.296 400.005 286.427C397.18 284.011 395.426 281.579 395.09 277.788C396.585 279.166 397.489 280.91 398.904 282.325C403.026 286.449 409.304 288.888 414.902 290.091C420.09 291.206 426.317 291.641 430.92 288.561C435.512 285.49 438.489 280.107 439.508 274.748L439.62 274.125L439.808 273.035C440.399 268.46 439.894 262.607 436.945 258.89C436.517 258.35 436.63 257.627 436.588 256.944Z"/>
	<path transform="scale(0.666667 0.666667)" d="M395.09 277.788L394.503 274.53C394.04 270.571 396.192 266.537 398.644 263.545C402.125 259.295 406.312 256.577 411.338 254.513C412.95 253.851 414.656 253.114 416.416 253.007C424.213 252.532 429.988 251.904 436.588 256.944C436.63 257.627 436.517 258.35 436.945 258.89C439.894 262.607 440.399 268.46 439.808 273.035L439.62 274.125L439.508 274.748C438.489 280.107 435.512 285.49 430.92 288.561C426.317 291.641 420.09 291.206 414.902 290.091C409.304 288.888 403.026 286.449 398.904 282.325C397.489 280.91 396.585 279.166 395.09 277.788Z"/>
	<path fill="white" transform="scale(0.666667 0.666667)" d="M412.732 259.474C413.944 259.439 415.016 259.583 416.133 260.071C418.532 261.119 420.765 263.218 421.619 265.727C422.274 267.648 421.927 269.841 420.952 271.597C419.455 274.294 416.595 275.4 413.83 276.269C412.375 276.368 410.885 276.265 409.488 275.818C407.616 275.22 406.064 274.134 405.251 272.309C404.317 270.209 404.417 267.778 405.323 265.688C406.817 262.24 409.438 260.829 412.732 259.474Z"/>
	<path fill="#FDE790" transform="scale(0.666667 0.666667)" d="M412.371 470.523C412.4 469.643 411.883 468.833 411.49 468.058L403.141 453.319L388.64 425.962C383.992 417.095 379.194 408.386 375.322 399.132L357.397 350.999C354.68 343.355 352.44 334.566 348.521 327.481C347.338 325.341 345.689 323.464 344.299 321.457L336.92 310.899L318.036 284.625C314.368 279.641 310.203 274.553 307.269 269.107L329.812 281.602L362.574 300.414C370.686 305.173 378.872 311.309 387.685 314.577L387.938 314.939C385.732 316.339 381.02 316.723 378.375 317.248C370.339 318.844 361.735 320.23 354.093 323.224C353.384 323.501 350.601 324.835 350.432 325.502C357.767 329.395 363.998 333.98 370.552 339.04C381.067 347.16 390.725 355.988 400.091 365.399C402.609 367.929 407.618 372.078 408.664 375.542L408.786 376.125L416.513 431.923L416.557 431.917C417.071 442.042 416.294 452.106 416.189 462.223L416.139 470.062C416.139 470.576 416.299 472.077 416.148 472.5C415.993 472.934 415.547 473.2 415.246 473.55C413.403 472.841 413.246 472.205 412.371 470.523Z"/>
	<path fill="#DE7607" transform="scale(0.666667 0.666667)" d="M449.143 226.813C457.855 229.67 467.359 234.581 474.345 240.554C479.266 244.761 483.554 249.752 487.959 254.482L503.064 271.361C507.363 276.528 511.294 281.719 516.015 286.541C512.875 286.156 509.959 286.177 506.815 286.516L507.202 286.718C512.033 289.293 516.195 293.298 520.38 296.78C526.202 301.625 532.282 306.336 538.868 310.098L538.423 310.245C537.777 310.405 537.593 310.35 536.984 310.261C536.244 310.152 535.712 310.207 534.986 310.388C532.301 311.055 529.77 312.237 527.061 312.868C526.034 313.108 523.003 313.25 522.318 313.759C525.691 317.359 528.851 321.312 531.54 325.454C534.886 330.609 537.822 336.478 542.221 340.832C540.179 342.049 538.044 343.277 535.8 344.083L536.644 344.68C539.134 344.024 541.15 343.385 543.77 343.421C548.924 348.168 552.564 353.821 553.115 360.983L553.196 361.348C553.862 364.149 555.436 366.772 557.357 368.891C558.203 369.824 559.541 370.875 560.04 372.017C555.577 370.097 542.065 363.998 537.752 365.252C537.752 365.863 537.682 365.521 538.159 366.218C537.653 366.23 536.491 365.546 535.986 365.317L529.635 362.436L479.29 338.492L479.438 338.218L509.285 346.501C505.975 343.716 502.316 341.441 498.917 338.768C490.56 332.196 483.639 325.383 473.675 321.092L473.574 320.935L491.546 318.604C488.399 316.802 482.907 313.314 480.944 310.329L480.762 309.994C480.671 308.763 480.412 307.651 480.013 306.48C477.899 300.271 474.659 294.219 471.826 288.301C468.091 280.501 464.512 271.664 459.069 264.877C455.764 260.756 451.284 257.788 448.03 253.593C443.133 247.282 439.976 240.104 432.511 236.377C427.289 235.201 420.626 234.935 415.331 235.842C413.733 236.115 411.965 236.493 410.438 237.043C408.558 237.719 407.364 238.678 405.234 238.301L408.814 235.65C413.853 233.518 418.796 232.289 424.228 231.67L424.875 231.296C429.98 231.158 435.293 230.703 440.013 233.089C442.704 234.448 444.839 237.274 446.647 239.623C448.935 242.596 451.152 245.659 453.732 248.39C459.57 254.57 465.798 259.233 473.128 263.436C470.689 256.872 469.878 249.581 466.186 243.543C464.333 240.513 461.679 238.065 459.039 235.739C456.639 233.625 454.196 231.346 451.582 229.502C450.53 228.76 449.955 228.274 449.313 227.131L449.143 226.813Z"/>
	<path fill="#633B14" transform="scale(0.666667 0.666667)" d="M424.228 231.67L426.901 231.841C425.583 232.541 422.769 232.168 421.073 232.699C420.232 232.962 419.469 232.85 418.63 233.005C417.508 233.211 416.399 233.689 415.267 233.94L414.623 234.581C415.764 235.106 416.902 234.971 418.125 234.938L418.5 234.566L421.875 234.658L422.379 234.664C424.561 234.664 426.31 234.419 428.438 234.941L430.875 235.033C431.469 235.466 431.986 235.857 432.511 236.377C427.289 235.201 420.626 234.935 415.331 235.842C413.733 236.115 411.965 236.493 410.438 237.043C408.558 237.719 407.364 238.678 405.234 238.301L408.814 235.65C413.853 233.518 418.796 232.289 424.228 231.67Z"/>
	<path fill="#AD5A04" transform="scale(0.666667 0.666667)" d="M535.8 344.083L536.644 344.68C539.134 344.024 541.15 343.385 543.77 343.421C548.924 348.168 552.564 353.821 553.115 360.983L552.623 360.766L552.375 360.938C551.495 360.923 551.024 360.547 550.322 360.077L549.938 359.816L538.621 351.999C535.621 349.873 532.774 347.718 529.356 346.301C531.326 345.585 533.77 344.431 535.8 344.083Z"/>
	<path fill="#102136" transform="scale(0.666667 0.666667)" d="M293.533 195.736C296.816 194.569 300.336 193.911 303.705 193.014L328.125 187.082C344.412 183.508 360.512 180.314 377.203 179.401C387.145 178.858 397.157 179.404 407.054 180.376C437.217 183.338 466.649 192.133 493.988 205.117C513.944 214.595 533.541 227.327 547.787 244.445C552.627 250.26 556.28 256.913 559.433 263.759C561.211 267.621 562.799 271.827 564.984 275.463C566.534 278.043 590.006 306.673 591.436 307.31L594.452 310.681L594.791 311.579C593.164 314.811 590.402 317.482 587.975 320.118C584.132 324.293 580.037 328.507 576.504 332.932L574.828 335.441C570.916 336.282 566.967 336.151 563.116 336.905C561.694 337.184 558.359 338.725 557.189 338.392C554.703 336.318 552.899 331.972 551.03 329.22C548.573 325.602 545.787 322.253 543.525 318.489C542.655 317.04 541.691 315.584 540.957 314.063C540.325 312.752 540.019 311.033 538.868 310.098C532.282 306.336 526.202 301.625 520.38 296.78C516.195 293.298 512.033 289.293 507.202 286.718L506.815 286.516C509.959 286.177 512.875 286.156 516.015 286.541C511.294 281.719 507.363 276.528 503.064 271.361L487.959 254.482C483.554 249.752 479.266 244.761 474.345 240.554C467.359 234.581 457.855 229.67 449.143 226.813C446.609 224.908 442.03 222.903 438.91 222.214C436.615 222.252 434.295 222.535 432.016 222.809C430.857 222.948 429.503 223.271 428.364 223.009C427.676 222.85 428.042 222.819 427.264 222.97C426.467 223.126 427.037 223.096 426.377 223.096L426.191 222.562L427.277 221.715C431.539 216.97 435.507 213.224 440.803 209.659C437.403 209.942 433.91 210.713 430.5 211.147C422.75 212.134 414.728 212.679 407.198 214.832C408.472 213.239 410.478 212.018 412.078 210.753C414.19 209.083 416.119 207.313 418.026 205.414C413.756 205.222 408.563 207.14 404.422 208.146C398.847 209.499 392.997 210.843 387.302 211.531C385.74 211.72 382.89 212.18 381.494 211.425L381.781 210.775C382.376 210.665 382.814 210.442 383.36 210.188C383.261 210.021 383.227 209.791 383.062 209.687C381.675 208.811 362.61 212.587 359.411 212.996C356.875 213.321 354.359 213.461 351.803 213.422C347.111 213.349 342.377 212.79 337.695 212.454C332.927 212.112 327.546 212.254 323.027 210.586C317.846 208.673 312.873 205.19 307.957 202.614C303.562 200.31 298.687 197.267 293.93 195.847L293.533 195.736Z"/>
	<path fill="#DE7607" transform="scale(0.666667 0.666667)" d="M427.277 221.715L451.01 214.678C447.141 217.017 442.135 218.532 438.967 221.871L438.91 222.214C436.615 222.252 434.295 222.535 432.016 222.809C430.857 222.948 429.503 223.271 428.364 223.009C427.676 222.85 428.042 222.819 427.264 222.97C426.467 223.126 427.037 223.096 426.377 223.096L426.191 222.562L427.277 221.715Z"/>
	<path transform="scale(0.666667 0.666667)" d="M594.452 310.681L594.791 311.579C593.164 314.811 590.402 317.482 587.975 320.118C584.132 324.293 580.037 328.507 576.504 332.932L574.828 335.441C570.916 336.282 566.967 336.151 563.116 336.905C561.694 337.184 558.359 338.725 557.189 338.392C557.798 337.892 557.58 338.142 557.996 337.551C559.99 334.719 562.509 332.317 564.89 329.812C567.739 326.815 570.497 323.805 573.839 321.333C579.986 316.786 587.042 314.359 593.799 311.008L594.452 310.681Z"/>
	<path fill="#DE7607" transform="scale(0.666667 0.666667)" d="M41.267 238.033C46.3539 225.984 52.0749 214.003 58.7144 202.722C64.3062 193.221 70.7122 184.084 77.1193 175.12C89.2493 158.148 102.381 142.241 117.364 127.685L132.375 114.369C149.005 99.9403 166.36 86.8999 184.875 74.9864L205.125 62.2445C217.758 54.9759 231.131 48.6079 244.629 43.1204C277.286 29.8432 311.13 21.0549 346.113 16.8566C361.766 14.9781 377.367 13.8194 393.146 14.3427C408.156 14.8406 422.969 16.9423 437.788 19.2625C466.601 23.7735 495.7 31.8062 522.587 43.1979C533.549 47.8424 544.589 52.5862 555.122 58.1461C572.381 67.2567 588.702 77.7222 604.512 89.1274C612.354 94.7845 620.193 100.501 627.568 106.763L644.628 122.64C662.172 139.653 678.035 157.937 692.05 177.952C705.433 197.062 716.97 217.129 725.716 238.794L726.373 240.396L675.572 266.57L640.153 284.276L640.067 284.587C637.811 286.725 634.781 288.38 632.12 289.977L608.839 302.889C606.083 304.56 602.998 306.23 600.636 308.443C599.918 308.006 600.203 308.266 599.742 307.705L599.62 307.756L599.625 309.75C599.072 310.303 598.431 310.65 597.656 310.805L596.066 311.062L595.594 311.156C594.751 309.741 593.007 307.769 591.436 307.31C590.006 306.673 566.534 278.043 564.984 275.463C562.799 271.827 561.211 267.621 559.433 263.759C556.28 256.913 552.627 250.26 547.787 244.445C533.541 227.327 513.944 214.595 493.988 205.117C466.649 192.133 437.217 183.338 407.054 180.376C397.157 179.404 387.145 178.858 377.203 179.401C360.512 180.314 344.412 183.508 328.125 187.082L303.705 193.014C300.336 193.911 296.816 194.569 293.533 195.736C291.175 195.733 288.694 194.737 286.455 194.03C282.793 192.874 278.989 191.627 275.229 190.884C274.253 191.203 274.133 191.219 273.508 192.02C277.452 197.847 279.443 204.729 282.884 210.853C285.105 214.804 288.261 218.128 290.741 221.906C295.659 229.396 304.636 246.975 302.671 256.008C302.033 258.944 300.256 261.225 297.717 262.804C293.002 265.737 286.234 265.198 280.904 264.949L262.157 264.36C256.367 264.351 249.95 264.276 244.671 267.009C242.295 268.239 240.615 270.134 239.153 272.321C241.094 275.46 243.116 277.559 246.285 279.502L246.285 279.545C246.744 280.17 246.916 280.706 247.687 280.892C248.22 281.02 248.54 281.16 249 281.438C248.129 281.612 248.101 281.644 247.312 281.25C247.026 281.789 247.137 281.474 247.058 282.221C238.201 280.893 224.287 278.758 216.347 283.669C215.66 284.362 215.239 284.76 214.312 285.132C212.465 284.706 210.984 283.744 209.38 282.781L207.48 281.324C200.441 282.337 188.25 285.097 183.941 291.118L182.93 292.688L182.489 293.317L182.109 294.652C181.528 297.092 180.828 299.764 180.745 302.274C180.592 306.832 181.864 311.712 182.473 316.22C182.059 316.971 182.313 316.743 181.771 317.104C178.479 319.298 176.55 324.633 174.784 328.08C168.035 341.256 162.346 354.839 157.1 368.674C153.951 366.722 150.275 365.38 146.888 363.865L129.425 355.936C125.383 354.065 119.314 351.975 116.779 348.214C113.203 342.908 121.41 317.261 122.915 310.437C125.333 302.427 128.043 293.864 131.836 286.422C131.072 285.382 99.289 270.134 94.8159 267.231L41.267 238.033Z"/>
	<path fill="#EB960C" transform="scale(0.666667 0.666667)" d="M94.8159 267.231C95.8573 265.715 96.5958 263.912 97.4792 262.289L104.339 249.334L119.421 223.857C129.852 207.7 141.62 192.929 154.425 178.615C171.885 159.096 190.606 141.551 211.861 126.188C224.041 117.383 236.964 109.665 250.072 102.332C259.998 96.7797 270.546 92.4193 281.154 88.3675C337.617 66.8016 399.715 62.3704 458.051 79.0903C480.238 85.4494 501.13 94.7656 521.35 105.798C540.027 115.988 558.131 127.716 574.56 141.282C589.061 153.255 602.202 166.619 614.941 180.418L634.134 202.042C641.401 210.96 648.15 220.514 654.544 230.079L664.397 246.414L671.37 258.349L675.572 266.57L640.153 284.276C639.37 281.246 637.913 278.325 636.698 275.442C633.049 266.785 628.768 258.233 623.97 250.162C618.71 241.312 613.231 232.573 607.03 224.344C600.659 215.887 593.621 208.098 586.537 200.243C571.356 183.41 554.826 167.921 536.449 154.6C526.987 147.74 516.843 141.551 506.77 135.629C469.198 113.541 423.626 102.226 380.062 103.272C360.526 103.741 340.402 106.82 321.503 111.797C275.73 123.849 234.861 148.458 201.77 182.151C194.934 189.112 188.78 196.493 182.535 203.972C177.51 209.99 171.953 215.609 167.379 221.977C159.721 232.639 152.94 244.419 146.337 255.775C143.325 260.956 140.791 266.327 138.221 271.732C136.055 276.288 133.735 280.982 132.078 285.75L131.836 286.422C131.072 285.382 99.289 270.134 94.8159 267.231Z"/>
	<defs>
		<linearGradient id="gradient_9" gradientUnits="userSpaceOnUse" x1="400.72079" y1="103.86941" x2="369.0654" y2="390.95242">
			<stop offset="0" stop-color="#E66C00"/>
			<stop offset="1" stop-color="#EA8800"/>
		</linearGradient>
	</defs>
	<path fill="url(#gradient_9)" transform="scale(0.666667 0.666667)" d="M131.836 286.422L132.078 285.75C133.735 280.982 136.055 276.288 138.221 271.732C140.791 266.327 143.325 260.956 146.337 255.775C152.94 244.419 159.721 232.639 167.379 221.977C171.953 215.609 177.51 209.99 182.535 203.972C188.78 196.493 194.934 189.112 201.77 182.151C234.861 148.458 275.73 123.849 321.503 111.797C340.402 106.82 360.526 103.741 380.062 103.272C423.626 102.226 469.198 113.541 506.77 135.629C516.843 141.551 526.987 147.74 536.449 154.6C554.826 167.921 571.356 183.41 586.537 200.243C593.621 208.098 600.659 215.887 607.03 224.344C613.231 232.573 618.71 241.312 623.97 250.162C628.768 258.233 633.049 266.785 636.698 275.442C637.913 278.325 639.37 281.246 640.153 284.276L640.067 284.587C637.811 286.725 634.781 288.38 632.12 289.977L608.839 302.889C606.083 304.56 602.998 306.23 600.636 308.443C599.918 308.006 600.203 308.266 599.742 307.705L599.62 307.756L599.625 309.75C599.072 310.303 598.431 310.65 597.656 310.805L596.066 311.062L595.594 311.156C594.751 309.741 593.007 307.769 591.436 307.31C590.006 306.673 566.534 278.043 564.984 275.463C562.799 271.827 561.211 267.621 559.433 263.759C556.28 256.913 552.627 250.26 547.787 244.445C533.541 227.327 513.944 214.595 493.988 205.117C466.649 192.133 437.217 183.338 407.054 180.376C397.157 179.404 387.145 178.858 377.203 179.401C360.512 180.314 344.412 183.508 328.125 187.082L303.705 193.014C300.336 193.911 296.816 194.569 293.533 195.736C291.175 195.733 288.694 194.737 286.455 194.03C282.793 192.874 278.989 191.627 275.229 190.884C274.253 191.203 274.133 191.219 273.508 192.02C277.452 197.847 279.443 204.729 282.884 210.853C285.105 214.804 288.261 218.128 290.741 221.906C295.659 229.396 304.636 246.975 302.671 256.008C302.033 258.944 300.256 261.225 297.717 262.804C293.002 265.737 286.234 265.198 280.904 264.949L262.157 264.36C256.367 264.351 249.95 264.276 244.671 267.009C242.295 268.239 240.615 270.134 239.153 272.321C241.094 275.46 243.116 277.559 246.285 279.502L246.285 279.545C246.744 280.17 246.916 280.706 247.687 280.892C248.22 281.02 248.54 281.16 249 281.438C248.129 281.612 248.101 281.644 247.312 281.25C247.026 281.789 247.137 281.474 247.058 282.221C238.201 280.893 224.287 278.758 216.347 283.669C215.66 284.362 215.239 284.76 214.312 285.132C212.465 284.706 210.984 283.744 209.38 282.781L207.48 281.324C200.441 282.337 188.25 285.097 183.941 291.118L182.93 292.688L182.489 293.317L182.109 294.652C181.528 297.092 180.828 299.764 180.745 302.274C180.592 306.832 181.864 311.712 182.473 316.22C182.059 316.971 182.313 316.743 181.771 317.104C178.479 319.298 176.55 324.633 174.784 328.08C168.035 341.256 162.346 354.839 157.1 368.674C153.951 366.722 150.275 365.38 146.888 363.865L129.425 355.936C125.383 354.065 119.314 351.975 116.779 348.214C113.203 342.908 121.41 317.261 122.915 310.437C125.333 302.427 128.043 293.864 131.836 286.422Z"/>
	<path fill="#EB960C" transform="scale(0.666667 0.666667)" d="M275.229 190.884L275.931 190.633C277.527 190.013 278.944 188.612 280.33 187.604L288.031 182.238C293.906 178.391 300.061 175.147 306.422 172.185C320.454 165.65 335.313 160.215 350.484 157.014C376.335 151.559 403.398 152.543 429.011 158.744C439.31 161.238 449.427 164.875 459.274 168.774C471.606 173.658 482.703 179.656 494.062 186.445C503.729 192.222 513.065 198.25 521.855 205.317C531.56 213.12 540.392 222.13 548.835 231.256C568.387 252.389 586.599 275.809 598.042 302.401C598.721 303.979 599.596 305.999 599.742 307.705L599.62 307.756L599.625 309.75C599.072 310.303 598.431 310.65 597.656 310.805L596.066 311.062L595.594 311.156C594.751 309.741 593.007 307.769 591.436 307.31C590.006 306.673 566.534 278.043 564.984 275.463C562.799 271.827 561.211 267.621 559.433 263.759C556.28 256.913 552.627 250.26 547.787 244.445C533.541 227.327 513.944 214.595 493.988 205.117C466.649 192.133 437.217 183.338 407.054 180.376C397.157 179.404 387.145 178.858 377.203 179.401C360.512 180.314 344.412 183.508 328.125 187.082L303.705 193.014C300.336 193.911 296.816 194.569 293.533 195.736C291.175 195.733 288.694 194.737 286.455 194.03C282.793 192.874 278.989 191.627 275.229 190.884Z"/>
	<path fill="#102136" transform="scale(0.666667 0.666667)" d="M194.964 201.303C198.906 198.711 203.328 196.435 208.084 195.984C211.39 195.67 214.56 195.647 217.709 194.462C223.202 192.394 227.942 188.486 233.516 186.526C235.291 185.902 237.207 185.426 239.067 185.166C249.793 183.664 264.587 185.351 273.508 192.02C277.452 197.847 279.443 204.729 282.884 210.853C285.105 214.804 288.261 218.128 290.741 221.906C295.659 229.396 304.636 246.975 302.671 256.008C302.033 258.944 300.256 261.225 297.717 262.804C293.002 265.737 286.234 265.198 280.904 264.949L262.157 264.36C256.367 264.351 249.95 264.276 244.671 267.009C242.295 268.239 240.615 270.134 239.153 272.321C241.094 275.46 243.116 277.559 246.285 279.502L246.285 279.545C246.744 280.17 246.916 280.706 247.687 280.892C248.22 281.02 248.54 281.16 249 281.438C248.129 281.612 248.101 281.644 247.312 281.25C247.026 281.789 247.137 281.474 247.058 282.221C238.201 280.893 224.287 278.758 216.347 283.669C215.66 284.362 215.239 284.76 214.312 285.132C212.465 284.706 210.984 283.744 209.38 282.781L207.48 281.324C200.441 282.337 188.25 285.097 183.941 291.118L182.93 292.688L182.489 293.317L182.109 294.652L181.728 294.243C181.164 290.822 179.607 288.86 178.13 285.903C176.988 283.618 176.397 280.87 175.815 278.4C172.553 264.565 176.466 251.847 178.738 238.312C179.899 231.393 180.559 224.467 182.858 217.784C184.897 210.906 188.838 205.056 194.964 201.303Z"/>
	<path fill="#76649F" transform="scale(0.666667 0.666667)" d="M238.482 201.733L237.498 201.188C237.891 200.279 238.555 200.151 239.451 199.772C244.115 197.797 252.624 201.353 257.009 203.305C261.599 205.348 269.51 208.912 271.312 214.064C271.661 215.06 272.032 216.363 271.64 217.381C268.232 213.818 263.952 212.021 259.601 209.867C252.852 206.526 245.915 203.208 238.482 201.733Z"/>
	<path fill="#EB960C" transform="scale(0.666667 0.666667)" d="M182.489 293.317C182.117 291.977 181.804 290.664 181.817 289.262C181.866 284.132 185.658 274.48 189.562 271.132C190.634 270.213 191.386 269.92 192.783 270.001C199.42 270.387 203.585 276.724 207.48 281.324C200.441 282.337 188.25 285.097 183.941 291.118L182.93 292.688L182.489 293.317Z"/>
	<path transform="scale(0.666667 0.666667)" d="M209.38 282.781C208.819 279.001 207.687 275.386 207.092 271.628C206.092 265.321 204.905 248.021 208.615 242.809C209.265 241.895 210.062 241.201 211.219 241.086C211.998 241.008 212.035 241.115 212.692 241.428C213.761 243.566 213.29 247.659 213.292 250.1C213.297 255.822 213.133 261.596 213.661 267.298C213.896 269.841 214.199 272.444 214.742 274.941C215.372 277.836 216.28 280.688 216.347 283.669C215.66 284.362 215.239 284.76 214.312 285.132C212.465 284.706 210.984 283.744 209.38 282.781Z"/>
	<path fill="#76649F" transform="scale(0.666667 0.666667)" d="M270.223 232.221C270.544 232.911 270.706 232.859 270.424 233.623C268.17 239.744 261.721 243.867 256.015 246.371C249.734 249.129 242.858 249.994 236.083 250.65L220.329 251.678C222.119 248.771 225.524 242.679 229.062 241.75L229.428 241.668L259.405 238.438C264.233 237.57 267.325 236.35 270.223 232.221Z"/>
	<path fill="#76649F" transform="scale(0.666667 0.666667)" d="M199.474 200.767C203.544 198.365 208.513 195.998 213.375 197.327C217.004 198.318 220.879 201.306 223.855 203.588C224.732 204.261 226.085 205.233 226.531 206.25C227.023 207.373 226.526 208.169 226.008 209.189L225.403 210.242C221.279 215.422 218.027 221.607 217.844 228.361L217.312 229.684C213.229 226.479 211.01 219.424 205.413 219.199C204.482 219.721 204.27 220.009 204.014 221.062L200.037 255C196.319 253.088 191.787 251.172 188.812 248.191C185.576 244.947 183.514 239.083 182.135 234.758L181.942 234.152C181.753 231.776 181.5 229.445 181.859 227.074L182.809 221.062L182.998 220.123C183.241 219.249 183.021 218.671 182.858 217.784C184.897 210.906 188.838 205.056 194.964 201.303C195.882 201.371 196.377 201.247 197.248 200.998C197.993 200.785 198.706 200.778 199.474 200.767Z"/>
	<path transform="scale(0.666667 0.666667)" d="M194.964 201.303C195.882 201.371 196.377 201.247 197.248 200.998C197.993 200.785 198.706 200.778 199.474 200.767C197.585 202.922 196.217 205.13 195.47 207.938C195.238 208.81 195.248 209.764 194.911 210.593L194.941 210.945C195.309 214.507 197.521 217.351 198.283 220.734C198.883 223.395 197.874 226.323 197.062 228.833C196.348 231.044 195.373 233.76 193.921 235.59C193.362 236.294 192.805 236.548 191.983 236.864C190.093 236.85 188.412 236.388 187.092 234.938C186.225 233.984 185.835 232.939 185.537 231.712C184.411 232.019 183.472 232.362 182.438 232.906L181.942 234.152C181.753 231.776 181.5 229.445 181.859 227.074L182.809 221.062L182.998 220.123C183.241 219.249 183.021 218.671 182.858 217.784C184.897 210.906 188.838 205.056 194.964 201.303Z"/>
	<defs>
		<linearGradient id="gradient_10" gradientUnits="userSpaceOnUse" x1="185.45087" y1="212.55681" x2="192.84511" y2="218.69151">
			<stop offset="0" stop-color="#2B3241"/>
			<stop offset="1" stop-color="#3B3E64"/>
		</linearGradient>
	</defs>
	<path fill="url(#gradient_10)" transform="scale(0.666667 0.666667)" d="M194.964 201.303C195.882 201.371 196.377 201.247 197.248 200.998C197.993 200.785 198.706 200.778 199.474 200.767C197.585 202.922 196.217 205.13 195.47 207.938C195.238 208.81 195.248 209.764 194.911 210.593C190.743 213.073 187.801 216.273 186.587 221.052C185.67 224.662 185.623 228.007 185.537 231.712C184.411 232.019 183.472 232.362 182.438 232.906L181.942 234.152C181.753 231.776 181.5 229.445 181.859 227.074L182.809 221.062L182.998 220.123C183.241 219.249 183.021 218.671 182.858 217.784C184.897 210.906 188.838 205.056 194.964 201.303Z"/>
	<path transform="scale(0.666667 0.666667)" d="M238.482 201.733C245.915 203.208 252.852 206.526 259.601 209.867C263.952 212.021 268.232 213.818 271.64 217.381L271.613 217.72C271.34 221.611 271.946 225.336 270.732 229.125C270.419 230.102 269.931 231.202 270.223 232.221C267.325 236.35 264.233 237.57 259.405 238.438L229.428 241.668C228.229 241.537 227.184 241.377 226.232 240.597C224.407 239.101 218.087 230.57 217.844 228.361C218.027 221.607 221.279 215.422 225.403 210.242C230.091 209.234 235.632 205.6 238.482 201.733Z"/>
</svg>
